solid board-display
facet normal 7.97126177700338e-033 4.39159102417435e-016 -1.0
outer loop
vertex 11.0000000000001 112.0 1.50000000000005
vertex 11.0 8.0 1.5
vertex 6.50000000000007 112.0 1.50000000000005
endloop
endfacet
facet normal 7.97126177700338e-033 4.39159102417435e-016 -1.0
outer loop
vertex 167.5 112.0 1.50000000000005
vertex 163.0 8.0 1.5
vertex 163.0 112.0 1.50000000000005
endloop
endfacet
facet normal 7.97126177700338e-033 4.39159102417435e-016 -1.0
outer loop
vertex 6.5 -2.48994949366117 1.5
vertex 11.0 8.0 1.5
vertex 167.5 -2.48994949366117 1.5
endloop
endfacet
facet normal 7.97126177700338e-033 4.39159102417435e-016 -1.0
outer loop
vertex 11.0 8.0 1.5
vertex 6.5 -2.48994949366117 1.5
vertex 6.50000000000007 112.0 1.50000000000005
endloop
endfacet
facet normal 7.97126177700338e-033 4.39159102417435e-016 -1.0
outer loop
vertex 167.5 -2.48994949366117 1.5
vertex 11.0 8.0 1.5
vertex 163.0 8.0 1.5
endloop
endfacet
facet normal 7.97126177700338e-033 4.39159102417435e-016 -1.0
outer loop
vertex 167.5 -2.48994949366117 1.5
vertex 163.0 8.0 1.5
vertex 167.5 112.0 1.50000000000005
endloop
endfacet
facet normal -1.51944127596664e-015 0.707106781186547 -0.707106781186547
outer loop
vertex 8.5 26.5 28.5
vertex 11.0 3.5 5.5
vertex 8.5 3.5 5.5
endloop
endfacet
facet normal -1.51944127596664e-015 0.707106781186547 -0.707106781186547
outer loop
vertex 11.0 3.5 5.5
vertex 8.5 26.5 28.5
vertex 11.0 26.5 28.5
endloop
endfacet
facet normal 1.0 -0.0 -0.0
outer loop
vertex 8.5 6.0 3.0
vertex 8.5 26.5 28.5
vertex 8.5 3.5 5.5
endloop
endfacet
facet normal 1.0 -0.0 -0.0
outer loop
vertex 8.5 26.5 28.5
vertex 8.5 6.0 3.0
vertex 8.5 29.0 26.0
endloop
endfacet
facet normal -2.13506629003544e-019 0.707106781186547 0.707106781186548
outer loop
vertex 11.0 3.5 5.5
vertex 8.5 6.0 3.0
vertex 8.5 3.5 5.5
endloop
endfacet
facet normal -2.13506629003544e-019 0.707106781186547 0.707106781186548
outer loop
vertex 8.5 6.0 3.0
vertex 11.0 3.5 5.5
vertex 11.0 6.0 3.0
endloop
endfacet
facet normal -2.13506629003544e-019 0.707106781186547 0.707106781186548
outer loop
vertex 11.0 6.0 3.0
vertex 11.0 3.5 5.5
vertex 11.0 2.50502525316942 6.49497474683058
endloop
endfacet
facet normal -2.13506629003544e-019 0.707106781186547 0.707106781186548
outer loop
vertex 11.0 6.0 3.0
vertex 11.0 2.50502525316942 6.49497474683058
vertex 163.0 2.50502525316942 6.49497474683058
endloop
endfacet
facet normal -2.13506629003544e-019 0.707106781186547 0.707106781186548
outer loop
vertex 11.0 6.0 3.0
vertex 163.0 2.50502525316942 6.49497474683058
vertex 163.0 6.0 3.0
endloop
endfacet
facet normal -2.13506629003544e-019 0.707106781186547 0.707106781186548
outer loop
vertex 163.0 6.0 3.0
vertex 163.0 2.50502525316942 6.49497474683058
vertex 163.0 3.5 5.5
endloop
endfacet
facet normal -2.13506629003544e-019 0.707106781186547 0.707106781186548
outer loop
vertex 163.0 6.0 3.0
vertex 163.0 3.5 5.5
vertex 165.5 3.5 5.5
endloop
endfacet
facet normal -2.13506629003544e-019 0.707106781186547 0.707106781186548
outer loop
vertex 163.0 6.0 3.0
vertex 165.5 3.5 5.5
vertex 165.5 6.0 3.0
endloop
endfacet
facet normal 1.0 2.77646613619533e-016 -4.30905661584095e-016
outer loop
vertex 11.0 3.5 5.5
vertex 11.0 25.5050252531694 29.4949747468306
vertex 11.0 2.50502525316942 6.49497474683058
endloop
endfacet
facet normal 1.0 2.77646613619533e-016 -4.30905661584095e-016
outer loop
vertex 11.0 25.5050252531694 29.4949747468306
vertex 11.0 3.5 5.5
vertex 11.0 26.5 28.5
endloop
endfacet
facet normal -1.0 6.37209045253858e-016 -6.08339210780142e-016
outer loop
vertex 6.5 25.5050252531694 29.4949747468306
vertex 6.50000000000001 9.4142135623731 4.4
vertex 6.5 -2.48994949366117 1.5
endloop
endfacet
facet normal -1.0 6.37209045253858e-016 -6.08339210780142e-016
outer loop
vertex 6.50000000000001 9.4142135623731 4.4
vertex 6.5 25.5050252531694 29.4949747468306
vertex 6.50000000000001 30.0 25.0
endloop
endfacet
facet normal -1.0 6.37209045253858e-016 -6.08339210780142e-016
outer loop
vertex 6.50000000000001 9.4142135623731 4.4
vertex 6.50000000000007 112.0 1.50000000000005
vertex 6.5 -2.48994949366117 1.5
endloop
endfacet
facet normal -1.0 6.37209045253858e-016 -6.08339210780142e-016
outer loop
vertex 6.50000000000007 112.0 1.50000000000005
vertex 6.50000000000001 9.4142135623731 4.4
vertex 6.50000000000007 112.0 4.40000000000005
endloop
endfacet
facet normal 2.63791888188653e-016 0.707106781186548 -0.707106781186547
outer loop
vertex 6.50000000000001 9.4142135623731 4.4
vertex 11.0 30.0 25.0
vertex 11.0 9.4142135623731 4.4
endloop
endfacet
facet normal 2.63791888188653e-016 0.707106781186548 -0.707106781186547
outer loop
vertex 11.0 30.0 25.0
vertex 6.50000000000001 9.4142135623731 4.4
vertex 6.50000000000001 30.0 25.0
endloop
endfacet
facet normal 1.0 -5.93914625036971e-016 5.90934423119761e-016
outer loop
vertex 11.0 9.4142135623731 4.4
vertex 11.0 29.0 26.0
vertex 11.0 8.0 5.0
endloop
endfacet
facet normal 1.0 -5.93914625036971e-016 5.90934423119761e-016
outer loop
vertex 11.0 29.0 26.0
vertex 11.0 9.4142135623731 4.4
vertex 11.0 30.0 25.0
endloop
endfacet
facet normal 1.0 -5.93914625036971e-016 5.90934423119761e-016
outer loop
vertex 11.0 8.0 1.5
vertex 11.0 9.4142135623731 4.4
vertex 11.0 8.0 5.0
endloop
endfacet
facet normal 1.0 -5.93914625036971e-016 5.90934423119761e-016
outer loop
vertex 11.0 9.4142135623731 4.4
vertex 11.0 8.0 1.5
vertex 11.0000000000001 112.0 1.50000000000005
endloop
endfacet
facet normal 1.0 -5.93914625036971e-016 5.90934423119761e-016
outer loop
vertex 11.0 9.4142135623731 4.4
vertex 11.0000000000001 112.0 1.50000000000005
vertex 11.0000000000001 112.0 4.40000000000005
endloop
endfacet
facet normal -0.0 1.0 -0.0
outer loop
vertex 11.0 8.0 5.0
vertex 163.0 8.0 1.5
vertex 11.0 8.0 1.5
endloop
endfacet
facet normal -0.0 1.0 -0.0
outer loop
vertex 163.0 8.0 1.5
vertex 11.0 8.0 5.0
vertex 163.0 8.0 5.0
endloop
endfacet
facet normal 5.87493017197479e-016 1.0 4.69994413757983e-016
outer loop
vertex 6.50000000000007 112.0 1.50000000000005
vertex 11.0000000000001 112.0 4.40000000000005
vertex 11.0000000000001 112.0 1.50000000000005
endloop
endfacet
facet normal 5.87493017197479e-016 1.0 4.69994413757983e-016
outer loop
vertex 11.0000000000001 112.0 4.40000000000005
vertex 6.50000000000007 112.0 1.50000000000005
vertex 6.50000000000007 112.0 4.40000000000005
endloop
endfacet
facet normal -5.8749301719748e-016 1.0 4.69994413757983e-016
outer loop
vertex 163.0 112.0 4.40000000000005
vertex 167.5 112.0 1.50000000000005
vertex 163.0 112.0 1.50000000000005
endloop
endfacet
facet normal -5.8749301719748e-016 1.0 4.69994413757983e-016
outer loop
vertex 167.5 112.0 1.50000000000005
vertex 163.0 112.0 4.40000000000005
vertex 167.5 112.0 4.40000000000005
endloop
endfacet
facet normal -3.72499685275717e-031 -4.71582933006873e-016 1.0
outer loop
vertex 11.0 9.4142135623731 4.4
vertex 6.50000000000007 112.0 4.40000000000005
vertex 6.50000000000001 9.4142135623731 4.4
endloop
endfacet
facet normal -3.72499685275717e-031 -4.71582933006873e-016 1.0
outer loop
vertex 6.50000000000007 112.0 4.40000000000005
vertex 11.0 9.4142135623731 4.4
vertex 11.0000000000001 112.0 4.40000000000005
endloop
endfacet
facet normal -3.51722517584871e-016 0.707106781186548 -0.707106781186547
outer loop
vertex 163.0 30.0 25.0
vertex 167.5 9.4142135623731 4.41421356237309
vertex 163.0 9.41421356237309 4.41421356237309
endloop
endfacet
facet normal -3.51722517584871e-016 0.707106781186548 -0.707106781186547
outer loop
vertex 167.5 9.4142135623731 4.41421356237309
vertex 163.0 30.0 25.0
vertex 167.5 30.0 25.0
endloop
endfacet
facet normal -2.79579635464257e-019 0.000292545676565228 0.999999957208513
outer loop
vertex 163.0 9.41421356237309 4.41421356237309
vertex 167.5 112.0 4.40000000000005
vertex 163.0 112.0 4.40000000000005
endloop
endfacet
facet normal -2.79579635464257e-019 0.000292545676565228 0.999999957208513
outer loop
vertex 167.5 112.0 4.40000000000005
vertex 163.0 9.41421356237309 4.41421356237309
vertex 167.5 9.4142135623731 4.41421356237309
endloop
endfacet
facet normal 9.40433500623776e-016 0.707106781186547 0.707106781186548
outer loop
vertex 6.5 25.5050252531694 29.4949747468306
vertex 8.5 26.5 28.5
vertex 6.50000000000001 30.0 25.0
endloop
endfacet
facet normal 9.40433500623776e-016 0.707106781186547 0.707106781186548
outer loop
vertex 8.5 26.5 28.5
vertex 6.5 25.5050252531694 29.4949747468306
vertex 11.0 25.5050252531694 29.4949747468306
endloop
endfacet
facet normal 9.40433500623776e-016 0.707106781186547 0.707106781186548
outer loop
vertex 8.5 26.5 28.5
vertex 11.0 25.5050252531694 29.4949747468306
vertex 11.0 26.5 28.5
endloop
endfacet
facet normal 9.40433500623776e-016 0.707106781186547 0.707106781186548
outer loop
vertex 6.50000000000001 30.0 25.0
vertex 8.5 29.0 26.0
vertex 11.0 30.0 25.0
endloop
endfacet
facet normal 9.40433500623776e-016 0.707106781186547 0.707106781186548
outer loop
vertex 8.5 29.0 26.0
vertex 6.50000000000001 30.0 25.0
vertex 8.5 26.5 28.5
endloop
endfacet
facet normal 9.40433500623776e-016 0.707106781186547 0.707106781186548
outer loop
vertex 11.0 30.0 25.0
vertex 8.5 29.0 26.0
vertex 11.0 29.0 26.0
endloop
endfacet
facet normal -1.0 -4.49294884987047e-016 4.25605598906168e-016
outer loop
vertex 163.0 8.0 5.0
vertex 163.0 9.41421356237309 4.41421356237309
vertex 163.0 8.0 1.5
endloop
endfacet
facet normal -1.0 -4.49294884987047e-016 4.25605598906168e-016
outer loop
vertex 163.0 9.41421356237309 4.41421356237309
vertex 163.0 8.0 5.0
vertex 163.0 29.0 26.0
endloop
endfacet
facet normal -1.0 -4.49294884987047e-016 4.25605598906168e-016
outer loop
vertex 163.0 9.41421356237309 4.41421356237309
vertex 163.0 29.0 26.0
vertex 163.0 30.0 25.0
endloop
endfacet
facet normal -1.0 -4.49294884987047e-016 4.25605598906168e-016
outer loop
vertex 163.0 9.41421356237309 4.41421356237309
vertex 163.0 112.0 1.50000000000005
vertex 163.0 8.0 1.5
endloop
endfacet
facet normal -1.0 -4.49294884987047e-016 4.25605598906168e-016
outer loop
vertex 163.0 112.0 1.50000000000005
vertex 163.0 9.41421356237309 4.41421356237309
vertex 163.0 112.0 4.40000000000005
endloop
endfacet
facet normal -6.83221212811347e-018 -0.707106781186547 0.707106781186547
outer loop
vertex 165.5 29.0 26.0
vertex 163.0 6.0 3.0
vertex 165.5 6.0 3.0
endloop
endfacet
facet normal -6.83221212811347e-018 -0.707106781186547 0.707106781186547
outer loop
vertex 163.0 6.0 3.0
vertex 165.5 29.0 26.0
vertex 163.0 8.0 5.0
endloop
endfacet
facet normal -6.83221212811347e-018 -0.707106781186547 0.707106781186547
outer loop
vertex 163.0 6.0 3.0
vertex 163.0 8.0 5.0
vertex 11.0 6.0 3.0
endloop
endfacet
facet normal -6.83221212811347e-018 -0.707106781186547 0.707106781186547
outer loop
vertex 11.0 6.0 3.0
vertex 163.0 8.0 5.0
vertex 8.5 6.0 3.0
endloop
endfacet
facet normal -6.83221212811347e-018 -0.707106781186547 0.707106781186547
outer loop
vertex 163.0 8.0 5.0
vertex 165.5 29.0 26.0
vertex 163.0 29.0 26.0
endloop
endfacet
facet normal -6.83221212811347e-018 -0.707106781186547 0.707106781186547
outer loop
vertex 8.5 6.0 3.0
vertex 11.0 8.0 5.0
vertex 8.5 29.0 26.0
endloop
endfacet
facet normal -6.83221212811347e-018 -0.707106781186547 0.707106781186547
outer loop
vertex 11.0 8.0 5.0
vertex 8.5 6.0 3.0
vertex 163.0 8.0 5.0
endloop
endfacet
facet normal -6.83221212811347e-018 -0.707106781186547 0.707106781186547
outer loop
vertex 8.5 29.0 26.0
vertex 11.0 8.0 5.0
vertex 11.0 29.0 26.0
endloop
endfacet
facet normal -1.0 0.0 0.0
outer loop
vertex 165.5 26.5 28.5
vertex 165.5 6.0 3.0
vertex 165.5 3.5 5.5
endloop
endfacet
facet normal -1.0 0.0 0.0
outer loop
vertex 165.5 6.0 3.0
vertex 165.5 26.5 28.5
vertex 165.5 29.0 26.0
endloop
endfacet
facet normal -7.59720637983324e-016 0.707106781186547 -0.707106781186547
outer loop
vertex 163.0 26.5 28.5
vertex 165.5 3.5 5.5
vertex 163.0 3.5 5.5
endloop
endfacet
facet normal -7.59720637983324e-016 0.707106781186547 -0.707106781186547
outer loop
vertex 165.5 3.5 5.5
vertex 163.0 26.5 28.5
vertex 165.5 26.5 28.5
endloop
endfacet
facet normal -1.0 0.0 0.0
outer loop
vertex 163.0 25.5050252531694 29.4949747468306
vertex 163.0 3.5 5.5
vertex 163.0 2.50502525316942 6.49497474683058
endloop
endfacet
facet normal -1.0 0.0 0.0
outer loop
vertex 163.0 3.5 5.5
vertex 163.0 25.5050252531694 29.4949747468306
vertex 163.0 26.5 28.5
endloop
endfacet
facet normal 1.82332953115996e-017 -0.707106781186548 0.707106781186547
outer loop
vertex 167.5 -2.48994949366117 1.5
vertex 163.0 2.50502525316942 6.49497474683058
vertex 6.5 -2.48994949366117 1.5
endloop
endfacet
facet normal 1.82332953115996e-017 -0.707106781186548 0.707106781186547
outer loop
vertex 163.0 2.50502525316942 6.49497474683058
vertex 167.5 -2.48994949366117 1.5
vertex 167.5 25.5050252531694 29.4949747468306
endloop
endfacet
facet normal 1.82332953115996e-017 -0.707106781186548 0.707106781186547
outer loop
vertex 163.0 2.50502525316942 6.49497474683058
vertex 167.5 25.5050252531694 29.4949747468306
vertex 163.0 25.5050252531694 29.4949747468306
endloop
endfacet
facet normal 1.82332953115996e-017 -0.707106781186548 0.707106781186547
outer loop
vertex 6.5 -2.48994949366117 1.5
vertex 11.0 2.50502525316942 6.49497474683058
vertex 6.5 25.5050252531694 29.4949747468306
endloop
endfacet
facet normal 1.82332953115996e-017 -0.707106781186548 0.707106781186547
outer loop
vertex 11.0 2.50502525316942 6.49497474683058
vertex 6.5 -2.48994949366117 1.5
vertex 163.0 2.50502525316942 6.49497474683058
endloop
endfacet
facet normal 1.82332953115996e-017 -0.707106781186548 0.707106781186547
outer loop
vertex 6.5 25.5050252531694 29.4949747468306
vertex 11.0 2.50502525316942 6.49497474683058
vertex 11.0 25.5050252531694 29.4949747468306
endloop
endfacet
facet normal 1.0 7.1622308757229e-016 -5.66291012477071e-016
outer loop
vertex 167.5 9.4142135623731 4.41421356237309
vertex 167.5 25.5050252531694 29.4949747468306
vertex 167.5 -2.48994949366117 1.5
endloop
endfacet
facet normal 1.0 7.1622308757229e-016 -5.66291012477071e-016
outer loop
vertex 167.5 25.5050252531694 29.4949747468306
vertex 167.5 9.4142135623731 4.41421356237309
vertex 167.5 30.0 25.0
endloop
endfacet
facet normal 1.0 7.1622308757229e-016 -5.66291012477071e-016
outer loop
vertex 167.5 112.0 1.50000000000005
vertex 167.5 9.4142135623731 4.41421356237309
vertex 167.5 -2.48994949366117 1.5
endloop
endfacet
facet normal 1.0 7.1622308757229e-016 -5.66291012477071e-016
outer loop
vertex 167.5 9.4142135623731 4.41421356237309
vertex 167.5 112.0 1.50000000000005
vertex 167.5 112.0 4.40000000000005
endloop
endfacet
facet normal -6.29820887435177e-016 0.707106781186547 0.707106781186548
outer loop
vertex 167.5 25.5050252531694 29.4949747468306
vertex 163.0 26.5 28.5
vertex 163.0 25.5050252531694 29.4949747468306
endloop
endfacet
facet normal -6.29820887435177e-016 0.707106781186547 0.707106781186548
outer loop
vertex 163.0 26.5 28.5
vertex 167.5 25.5050252531694 29.4949747468306
vertex 165.5 26.5 28.5
endloop
endfacet
facet normal -6.29820887435177e-016 0.707106781186547 0.707106781186548
outer loop
vertex 165.5 26.5 28.5
vertex 167.5 25.5050252531694 29.4949747468306
vertex 165.5 29.0 26.0
endloop
endfacet
facet normal -6.29820887435177e-016 0.707106781186547 0.707106781186548
outer loop
vertex 165.5 29.0 26.0
vertex 167.5 25.5050252531694 29.4949747468306
vertex 167.5 30.0 25.0
endloop
endfacet
facet normal -6.29820887435177e-016 0.707106781186547 0.707106781186548
outer loop
vertex 165.5 29.0 26.0
vertex 163.0 30.0 25.0
vertex 163.0 29.0 26.0
endloop
endfacet
facet normal -6.29820887435177e-016 0.707106781186547 0.707106781186548
outer loop
vertex 163.0 30.0 25.0
vertex 165.5 29.0 26.0
vertex 167.5 30.0 25.0
endloop
endfacet
endsolid board-display
