<?xml version="1.0" encoding="UTF-8" ?>
<!DOCTYPE svg PUBLIC "-//W3C//DTD SVG 1.1//EN" "http://www.w3.org/Graphics/SVG/1.1/DTD/svg11.dtd">
<svg width="263pt" height="377pt" viewBox="0 0 263 377" version="1.1" xmlns="http://www.w3.org/2000/svg">
<g id="#fcfcfcff">
<path fill="#fcfcfc" opacity="1.00" d=" M 0.00 0.00 L 0.27 0.00 C 0.21 0.07 0.07 0.20 0.00 0.27 L 0.00 0.00 Z" />
<path fill="#fcfcfc" opacity="1.00" d=" M 240.94 7.12 C 244.89 7.08 248.82 6.41 252.77 6.66 C 254.53 6.70 255.90 8.36 255.72 10.09 C 256.87 30.79 254.62 51.56 256.34 72.25 C 255.33 82.98 257.16 93.87 255.01 104.49 C 253.85 101.70 253.22 98.71 251.90 95.98 C 249.96 92.67 247.17 89.82 245.89 86.15 C 243.88 78.37 239.65 70.88 233.43 65.71 C 233.14 63.66 232.79 61.63 232.43 59.59 C 229.14 58.51 225.06 58.22 222.91 55.13 C 219.04 50.06 215.21 44.67 209.62 41.37 C 205.61 38.93 201.49 36.32 196.84 35.39 C 191.96 35.18 187.06 34.71 182.31 33.47 C 178.25 32.39 175.12 29.37 171.31 27.73 C 167.27 26.01 162.85 25.62 158.51 25.45 C 154.13 25.34 150.21 23.07 145.96 22.32 C 139.49 22.61 133.88 26.51 127.51 27.40 C 119.02 28.53 111.13 31.94 103.01 34.46 C 98.84 35.85 94.09 35.59 90.46 38.41 C 86.50 41.32 82.20 43.70 77.79 45.84 C 74.52 47.38 72.55 50.51 69.91 52.82 C 67.11 54.92 62.91 54.71 60.84 57.83 C 57.61 61.99 52.91 64.58 48.99 68.00 C 46.61 69.88 47.34 73.21 47.14 75.86 C 42.97 78.31 38.16 79.49 34.10 82.10 C 30.11 86.23 28.46 91.90 25.97 96.94 C 25.00 99.28 23.77 101.57 23.27 104.07 C 23.30 107.18 24.74 110.17 24.36 113.30 C 24.09 116.57 23.69 119.82 23.19 123.06 C 25.35 125.02 27.50 127.01 29.61 129.03 C 29.13 131.77 28.65 134.52 28.34 137.28 C 27.85 140.78 29.63 144.00 30.19 147.37 C 30.20 149.73 29.09 152.04 29.65 154.40 C 30.33 157.77 32.00 160.86 32.54 164.27 C 32.97 168.27 31.61 172.22 32.05 176.22 C 32.31 178.48 32.21 180.75 32.23 183.02 C 32.09 186.28 35.21 188.56 35.31 191.79 C 35.99 196.50 34.46 201.78 37.13 206.02 C 38.52 205.50 39.86 204.66 41.38 204.69 C 42.44 208.60 42.78 212.69 42.06 216.70 C 40.65 216.65 39.24 216.60 37.83 216.55 C 38.90 217.95 39.96 219.36 40.99 220.80 C 42.08 220.17 43.16 219.54 44.24 218.92 C 45.69 221.99 46.77 225.36 49.07 227.93 C 53.72 232.50 58.64 237.06 64.81 239.49 C 62.31 234.74 60.47 229.35 56.21 225.83 C 53.91 223.78 51.16 222.25 49.12 219.92 C 48.56 217.15 52.72 218.77 54.38 218.25 C 53.61 217.19 52.84 216.13 52.08 215.07 C 55.20 214.31 58.32 213.51 61.33 212.34 C 61.84 213.25 62.35 214.16 62.88 215.07 C 63.97 213.42 65.04 211.76 66.08 210.08 C 65.03 208.72 63.97 207.38 62.93 206.02 C 64.63 205.15 66.34 204.32 68.08 203.54 C 67.79 202.55 67.52 201.56 67.26 200.57 C 72.79 199.69 78.37 199.15 83.93 198.51 C 83.29 200.71 82.60 202.90 81.96 205.10 C 84.41 202.48 86.26 198.57 90.29 198.28 C 94.15 197.33 95.59 202.14 95.47 205.12 C 94.92 210.17 94.53 215.46 92.07 220.02 C 89.90 224.27 87.59 228.79 83.54 231.53 C 77.78 234.53 71.23 236.11 64.73 235.49 C 65.63 237.43 65.68 240.27 67.94 241.16 C 72.44 243.72 77.60 241.58 82.02 240.00 C 87.31 238.08 91.84 233.67 97.79 234.05 C 96.29 232.71 94.66 231.45 93.55 229.74 C 93.05 224.60 97.01 220.98 99.05 216.75 C 99.75 210.23 100.76 203.54 103.73 197.62 C 107.87 195.52 115.52 193.94 117.37 199.69 C 118.64 204.47 119.36 210.41 115.61 214.32 C 115.95 214.78 116.29 215.24 116.63 215.70 C 115.83 217.60 115.03 219.50 114.35 221.44 C 115.80 222.39 117.23 223.35 118.66 224.34 C 117.83 230.16 119.43 235.86 120.40 241.55 C 119.85 241.52 118.74 241.46 118.19 241.43 C 118.73 242.94 120.73 244.66 119.22 246.17 C 114.82 251.34 107.86 252.68 101.51 253.85 C 100.23 250.82 98.38 247.47 94.68 247.19 C 91.91 246.08 88.45 249.97 90.55 252.36 C 92.09 254.89 94.52 256.71 96.06 259.23 C 96.37 261.90 93.52 263.26 92.01 265.02 C 90.05 271.55 82.11 274.52 81.66 281.66 C 79.31 283.70 76.73 285.43 74.06 287.04 C 73.39 286.10 72.72 285.17 72.05 284.24 C 70.95 286.23 69.85 288.22 68.72 290.20 C 70.67 289.80 72.75 289.31 74.64 290.21 C 75.31 291.48 74.18 292.80 73.70 293.95 C 71.30 293.82 69.09 292.79 66.86 292.02 C 67.56 293.33 68.31 294.62 69.04 295.94 C 68.32 297.17 67.61 298.42 66.89 299.66 C 65.66 298.75 64.43 297.84 63.33 296.78 C 63.68 294.92 64.53 293.20 65.22 291.45 C 64.47 291.84 63.72 292.22 62.97 292.61 C 61.09 290.66 59.10 288.70 56.47 287.84 C 56.97 284.34 58.04 280.85 57.80 277.29 C 56.88 273.86 53.40 272.14 50.87 270.01 C 51.77 268.70 52.67 267.39 53.59 266.09 C 50.55 263.86 48.74 260.56 47.11 257.25 C 48.46 257.42 49.81 257.59 51.16 257.75 C 49.35 256.24 47.45 254.83 45.58 253.39 C 45.67 250.69 45.60 247.98 45.28 245.30 C 43.11 247.87 41.60 250.93 41.65 254.36 C 40.38 254.73 39.09 255.02 37.80 255.26 C 39.18 255.67 40.55 256.12 41.94 256.54 C 43.33 262.24 45.26 267.79 46.72 273.48 C 49.22 279.99 51.80 286.58 52.95 293.50 C 55.49 294.62 58.18 293.90 60.76 293.38 C 59.07 295.23 57.51 297.20 55.89 299.12 C 56.73 299.31 57.57 299.51 58.40 299.71 C 58.30 304.08 59.76 308.25 60.94 312.39 C 62.19 316.56 65.92 319.27 67.53 323.24 C 70.81 329.80 78.56 332.68 81.28 339.61 C 77.69 341.82 74.48 344.56 71.26 347.27 C 67.29 350.50 61.94 351.18 56.98 351.23 C 46.78 351.33 37.25 355.44 27.81 358.85 C 24.44 359.80 22.96 363.69 19.54 364.53 C 16.88 365.28 14.15 365.75 11.44 366.31 C 8.51 367.10 6.18 363.66 6.49 361.00 C 7.29 346.91 7.01 332.78 7.70 318.68 C 8.04 311.45 7.75 304.22 7.21 297.01 C 6.51 288.52 8.40 280.05 7.46 271.57 C 7.06 267.39 6.70 263.19 7.01 258.99 C 7.79 243.67 6.47 228.34 7.11 213.02 C 7.34 204.74 5.75 196.50 6.57 188.22 C 7.25 181.29 6.30 174.35 6.32 167.41 C 6.30 160.59 7.01 153.80 7.09 146.99 C 7.09 139.64 5.92 132.35 5.88 125.01 C 6.08 112.65 5.87 100.29 5.88 87.93 C 5.97 83.69 7.18 79.49 6.58 75.23 C 5.56 66.53 6.05 57.76 5.93 49.01 C 6.46 35.46 5.34 21.90 6.26 8.35 C 15.84 8.50 25.42 7.48 34.99 8.17 C 52.75 8.14 70.55 8.65 88.27 7.25 C 96.53 7.10 104.82 8.35 113.06 7.12 C 121.18 5.77 129.19 8.55 137.30 8.21 C 143.52 7.87 149.77 8.47 155.98 7.75 C 162.85 7.00 169.75 7.72 176.63 7.37 C 186.18 6.81 195.74 8.49 205.27 7.30 C 217.14 5.98 229.05 7.57 240.94 7.12 M 36.26 216.27 C 36.78 216.79 36.78 216.79 36.26 216.27 M 40.55 224.93 C 41.58 226.52 42.67 228.08 43.78 229.64 C 44.18 228.91 44.98 227.45 45.39 226.72 C 43.80 226.06 42.18 225.46 40.55 224.93 M 42.10 237.75 C 42.60 239.28 43.09 240.80 43.56 242.34 C 46.24 242.39 48.91 242.76 51.53 243.35 C 49.90 241.84 48.30 240.30 46.63 238.84 C 46.89 237.61 47.07 236.37 47.23 235.13 C 45.54 236.05 43.84 236.94 42.10 237.75 Z" />
<path fill="#fcfcfc" opacity="1.00" d=" M 131.59 30.56 C 143.05 30.45 155.51 29.78 165.38 36.77 C 164.54 37.60 163.69 38.44 162.86 39.28 C 160.14 37.20 157.70 34.08 153.98 34.05 C 150.36 33.72 146.80 32.81 143.18 32.55 C 141.00 32.38 139.85 34.52 138.19 35.50 C 135.36 35.73 132.53 35.17 129.72 34.82 L 130.57 34.07 C 130.98 32.92 131.29 31.74 131.59 30.56 Z" />
<path fill="#fcfcfc" opacity="1.00" d=" M 106.91 38.97 C 109.09 38.47 111.47 36.61 113.65 38.03 C 112.15 39.46 110.24 40.28 108.36 41.06 C 108.00 40.54 107.27 39.49 106.91 38.97 Z" />
<path fill="#fcfcfc" opacity="1.00" d=" M 99.35 56.69 C 100.60 58.17 101.93 59.64 102.78 61.39 C 103.27 63.98 101.58 66.33 100.80 68.70 C 99.11 64.92 99.29 60.73 99.35 56.69 Z" />
<path fill="#fcfcfc" opacity="1.00" d=" M 197.81 70.97 C 199.02 70.94 200.24 70.91 201.45 70.89 C 200.65 74.63 201.97 78.13 204.57 80.83 C 203.53 82.64 202.55 84.47 201.59 86.32 C 199.97 81.31 198.10 76.29 197.81 70.97 Z" />
<path fill="#fcfcfc" opacity="1.00" d=" M 142.02 84.17 C 145.18 78.35 152.80 77.80 158.46 79.75 C 158.55 80.68 158.63 81.60 158.72 82.53 C 157.78 83.32 156.85 84.12 155.93 84.93 C 153.55 84.18 151.18 83.40 148.76 82.80 C 150.51 84.52 152.36 86.12 154.21 87.73 C 151.99 87.27 149.77 86.77 147.57 86.22 C 145.30 89.27 143.13 92.47 141.90 96.10 C 145.32 99.49 148.29 93.86 150.40 91.63 C 150.41 93.42 150.36 95.20 150.33 96.99 C 153.32 97.85 156.41 97.64 159.48 97.62 C 158.05 99.90 156.77 102.28 155.14 104.44 C 152.15 102.24 149.18 99.82 145.51 98.87 C 145.35 100.76 145.21 102.65 145.07 104.54 C 147.81 105.10 150.62 105.50 153.22 106.56 C 154.20 106.77 154.18 107.92 154.49 108.68 C 155.39 112.16 156.13 115.68 157.17 119.12 C 155.65 120.57 154.16 122.07 152.69 123.57 C 154.20 123.09 155.70 122.58 157.20 122.08 C 159.48 123.22 161.74 124.40 164.01 125.55 C 164.17 122.75 164.55 119.98 164.98 117.21 C 163.01 117.56 161.06 117.96 159.07 118.20 C 159.31 116.44 159.62 114.71 159.94 112.97 C 162.21 113.41 165.22 113.18 166.23 115.79 C 169.11 119.66 168.47 124.56 168.85 129.06 C 170.25 128.03 171.60 126.94 172.99 125.92 C 172.32 130.12 167.27 130.24 165.38 133.61 C 166.78 134.60 168.18 135.60 169.58 136.59 C 171.15 135.47 172.87 134.59 174.71 133.99 C 174.32 131.29 174.50 128.53 175.54 125.97 C 176.96 126.33 178.38 126.68 179.81 127.04 C 178.05 132.10 177.23 137.43 177.29 142.78 C 176.96 144.93 179.30 145.78 180.60 147.01 C 178.53 148.44 176.83 150.32 175.81 152.62 C 174.84 152.82 173.87 153.01 172.90 153.21 C 172.40 151.15 172.12 148.95 170.93 147.14 C 169.43 145.60 167.51 144.51 165.58 143.59 C 162.39 144.25 159.44 145.77 156.27 146.56 C 156.59 149.34 156.63 152.18 155.85 154.90 C 156.83 155.57 157.82 156.25 158.81 156.93 C 160.73 155.39 163.36 152.91 165.95 154.46 C 170.99 157.25 176.14 160.81 178.62 166.19 C 173.85 167.01 169.02 166.23 164.30 165.47 C 162.98 166.97 161.63 168.45 160.24 169.90 C 158.15 169.23 156.00 167.86 153.77 168.80 C 148.53 170.59 142.81 170.41 137.74 172.77 C 135.28 174.03 132.53 173.40 129.90 173.58 C 124.89 174.87 120.00 177.35 116.66 181.40 C 115.74 180.92 114.83 180.44 113.91 179.97 C 113.33 180.97 112.74 181.98 112.15 182.99 C 114.41 183.60 116.66 184.25 118.88 184.98 C 115.31 187.14 111.35 189.21 107.04 188.88 C 103.75 188.63 100.46 188.40 97.18 188.11 C 96.52 185.04 97.96 180.24 94.22 178.83 C 90.01 177.18 85.38 177.46 80.96 177.64 C 77.73 177.79 74.88 176.07 71.89 175.12 C 69.37 174.26 66.63 174.66 64.09 173.88 C 61.19 173.01 58.61 171.40 56.01 169.91 C 53.98 171.25 51.89 172.52 49.82 173.80 C 48.52 173.14 47.22 172.49 45.92 171.83 C 47.04 171.26 48.16 170.69 49.27 170.12 C 46.82 168.81 44.18 167.87 41.53 167.05 C 41.66 164.76 41.69 162.46 41.52 160.17 C 43.11 158.77 44.43 156.81 46.50 156.12 C 48.95 156.01 50.62 158.23 52.41 159.56 C 52.48 158.87 52.55 158.18 52.61 157.49 C 51.13 156.53 49.65 155.57 48.17 154.59 C 48.27 153.52 48.39 152.45 48.49 151.38 C 46.37 151.48 44.24 151.47 42.11 151.32 C 42.62 150.13 43.14 148.94 43.64 147.75 C 44.92 147.94 46.22 148.03 47.52 148.03 C 45.76 146.32 44.03 144.57 42.10 143.04 C 43.58 140.73 44.99 138.38 46.46 136.07 C 45.58 134.80 44.68 133.55 43.79 132.30 C 46.75 130.72 49.83 129.15 51.86 126.36 C 51.09 125.68 50.32 125.01 49.55 124.33 C 49.34 125.29 49.11 126.26 48.88 127.22 C 47.08 128.06 45.31 128.97 43.53 129.87 C 41.97 127.62 42.39 125.09 43.93 122.95 C 46.84 118.54 45.85 112.51 49.61 108.59 C 55.04 102.42 56.35 92.57 64.35 88.82 C 67.77 85.75 71.55 82.05 76.58 82.79 C 83.05 84.30 89.58 82.59 95.92 81.31 C 99.39 83.28 103.39 83.43 107.28 83.37 C 106.48 84.68 105.69 85.98 104.87 87.27 C 109.09 87.18 113.23 88.15 117.36 88.87 C 117.41 87.94 117.47 87.02 117.52 86.09 C 120.46 85.69 123.48 85.64 126.34 86.56 C 130.48 87.84 133.90 84.28 136.88 81.97 C 138.60 82.68 140.31 83.42 142.02 84.17 M 50.74 116.09 C 52.79 117.62 55.02 119.80 57.80 119.40 C 55.88 117.49 53.44 116.30 50.74 116.09 Z" />
<path fill="#fcfcfc" opacity="1.00" d=" M 168.09 81.37 C 168.24 80.27 167.86 78.85 168.95 78.12 C 170.31 78.32 171.64 78.63 172.99 78.93 C 172.39 80.04 171.79 81.15 171.19 82.26 C 170.42 82.04 168.86 81.59 168.09 81.37 Z" />
<path fill="#fcfcfc" opacity="1.00" d=" M 177.72 79.81 C 183.33 79.72 187.87 83.99 190.22 88.75 C 190.00 89.04 189.55 89.61 189.33 89.89 C 184.64 87.80 178.77 85.53 177.72 79.81 Z" />
<path fill="#fcfcfc" opacity="1.00" d=" M 163.67 80.64 C 164.84 81.74 165.99 82.87 167.16 83.98 C 166.20 85.53 165.20 87.26 163.55 88.13 C 163.74 85.64 163.70 83.14 163.67 80.64 Z" />
<path fill="#fcfcfc" opacity="1.00" d=" M 203.01 92.19 C 204.91 90.44 207.02 88.94 209.23 87.62 C 209.44 90.62 209.65 93.62 209.86 96.62 C 209.24 96.64 208.02 96.69 207.40 96.71 C 205.99 95.15 204.51 93.65 203.01 92.19 Z" />
<path fill="#fcfcfc" opacity="1.00" d=" M 188.02 94.50 C 189.33 92.91 190.55 91.25 191.86 89.66 C 192.41 91.67 193.01 93.67 193.77 95.62 C 191.86 95.21 189.94 94.83 188.02 94.50 Z" />
<path fill="#fcfcfc" opacity="1.00" d=" M 42.42 95.64 C 44.26 95.22 46.09 94.80 47.92 94.38 C 48.11 95.47 48.31 96.55 48.50 97.64 C 46.43 98.49 44.39 99.42 42.35 100.35 C 42.28 98.78 42.32 97.20 42.42 95.64 Z" />
<path fill="#fcfcfc" opacity="1.00" d=" M 171.25 111.87 C 173.95 113.04 176.63 114.26 179.28 115.54 C 177.64 117.15 175.80 118.53 174.00 119.95 C 174.51 120.81 175.03 121.67 175.54 122.53 C 174.02 121.74 172.49 120.94 170.96 120.17 C 171.61 119.40 172.25 118.62 172.90 117.85 C 171.98 116.93 171.05 116.02 170.13 115.11 C 170.50 114.03 170.88 112.95 171.25 111.87 Z" />
<path fill="#fcfcfc" opacity="1.00" d=" M 198.62 122.58 C 196.52 120.02 196.81 116.92 198.76 114.36 C 200.07 115.79 201.37 117.23 202.70 118.66 C 201.33 119.96 199.98 121.27 198.62 122.58 Z" />
<path fill="#fcfcfc" opacity="1.00" d=" M 252.36 143.50 C 253.16 139.81 252.66 135.62 255.56 132.71 C 256.77 146.46 256.49 160.27 256.87 174.05 C 257.06 178.28 256.16 182.43 255.29 186.54 C 254.54 184.66 253.83 182.75 252.78 181.03 C 250.73 178.11 246.99 177.41 244.18 175.50 C 243.85 173.04 244.17 170.57 244.28 168.12 C 244.52 164.54 243.97 160.82 245.33 157.40 C 246.86 152.38 250.18 148.21 252.36 143.50 Z" />
<path fill="#fcfcfc" opacity="1.00" d=" M 38.75 170.26 C 41.21 171.32 44.59 171.85 45.76 174.57 C 45.82 178.79 44.52 183.04 45.75 187.21 C 44.18 188.10 42.44 189.56 40.55 188.62 C 38.20 182.66 42.71 175.74 38.75 170.26 Z" />
<path fill="#fcfcfc" opacity="1.00" d=" M 241.25 181.17 C 243.34 180.87 245.43 180.46 247.55 180.33 C 245.66 182.15 243.60 183.77 241.65 185.52 C 241.43 184.08 241.29 182.63 241.25 181.17 Z" />
<path fill="#fcfcfc" opacity="1.00" d=" M 51.36 186.43 C 53.09 184.93 54.52 182.37 57.13 182.52 C 59.92 182.11 62.48 183.45 64.84 184.76 C 60.47 185.87 55.83 188.87 51.36 186.43 Z" />
<path fill="#fcfcfc" opacity="1.00" d=" M 49.32 187.03 C 52.37 185.64 49.28 190.39 49.32 187.03 Z" />
<path fill="#fcfcfc" opacity="1.00" d=" M 39.07 196.15 C 40.08 194.67 41.07 193.17 42.06 191.67 C 42.97 193.08 43.89 194.49 44.81 195.89 C 43.63 197.17 42.42 198.42 41.18 199.64 C 40.48 198.47 39.77 197.31 39.07 196.15 Z" />
<path fill="#fcfcfc" opacity="1.00" d=" M 145.40 201.72 C 148.12 199.21 147.20 195.78 146.30 192.69 C 147.75 193.58 149.18 194.52 150.59 195.48 C 150.12 194.38 149.66 193.27 149.23 192.16 C 150.70 192.95 152.14 193.80 153.56 194.68 C 152.02 196.21 150.46 197.72 148.87 199.21 C 151.31 200.24 153.75 201.30 156.09 202.56 C 155.46 203.48 154.83 204.40 154.20 205.32 C 155.69 206.28 157.19 207.24 158.69 208.18 C 158.24 209.44 157.78 210.71 157.33 211.97 C 159.26 211.36 161.19 210.75 163.14 210.20 C 162.66 209.34 162.18 208.48 161.70 207.63 C 165.43 205.97 168.57 203.29 172.27 201.57 C 173.05 203.36 174.03 205.09 174.45 207.02 C 174.03 212.65 171.53 217.82 169.83 223.14 C 171.92 221.50 174.14 219.82 175.35 217.38 C 177.21 213.99 177.76 210.03 179.79 206.74 C 182.45 204.52 186.12 205.43 189.18 206.10 C 190.79 205.09 192.39 204.05 193.98 203.01 C 195.55 203.68 197.13 204.35 198.70 205.05 C 195.73 207.01 192.44 208.37 189.00 209.22 C 190.90 211.18 193.65 212.70 194.71 215.24 C 194.31 219.15 192.54 222.86 192.51 226.83 C 194.37 228.89 196.85 230.24 199.16 231.73 C 197.54 231.16 195.93 230.58 194.30 230.05 C 193.92 230.84 193.54 231.63 193.16 232.42 C 190.49 232.21 187.82 232.56 185.22 233.19 C 184.98 234.98 184.73 236.77 184.50 238.56 C 186.16 238.55 187.83 238.54 189.49 238.49 C 192.33 243.04 188.75 247.66 187.77 252.14 C 188.12 253.95 189.08 255.57 189.80 257.25 C 187.84 257.88 185.84 258.37 183.83 258.84 C 183.43 260.23 182.99 261.61 182.55 263.00 C 184.05 263.79 185.56 264.58 187.07 265.38 C 184.03 266.82 180.78 267.69 177.42 267.83 C 181.63 270.38 185.96 273.62 191.21 272.46 C 189.67 273.64 188.11 274.79 186.52 275.91 C 187.03 277.84 187.89 279.82 187.43 281.85 C 186.21 281.70 184.99 281.53 183.78 281.33 C 183.20 284.53 182.38 287.75 180.41 290.40 C 177.57 294.19 178.83 299.14 178.52 303.50 C 177.41 301.99 176.62 300.28 175.98 298.53 C 175.56 298.39 174.73 298.11 174.32 297.96 C 171.55 299.98 168.77 301.99 166.02 304.05 C 165.42 302.15 164.76 300.27 164.06 298.40 C 164.89 298.43 165.73 298.46 166.56 298.50 C 166.52 297.26 166.49 296.03 166.48 294.79 C 172.11 292.26 171.98 284.49 169.21 279.82 C 165.92 276.58 160.92 277.50 156.84 276.22 C 155.45 274.85 154.52 273.11 153.39 271.54 C 151.90 269.17 148.99 268.49 146.61 267.35 C 146.89 268.81 147.17 270.27 147.43 271.74 C 144.84 268.29 142.52 264.41 138.25 262.84 C 142.22 258.73 146.36 254.77 150.89 251.28 C 148.51 248.27 145.77 245.52 143.72 242.27 C 142.37 238.90 141.76 235.28 140.10 232.02 C 142.69 232.38 145.29 232.69 147.85 233.22 C 151.84 234.22 155.82 232.76 159.78 232.36 C 160.78 230.49 161.81 228.63 162.86 226.79 C 155.98 227.83 149.01 227.60 142.15 226.52 C 141.00 223.26 138.18 221.29 135.45 219.44 C 133.18 218.05 132.75 215.24 131.79 212.99 C 133.80 212.27 135.83 211.59 137.87 210.92 C 136.80 209.79 135.67 208.72 134.60 207.59 C 136.77 205.57 139.31 204.00 141.91 202.58 C 141.30 201.13 140.67 199.69 140.07 198.24 C 141.15 197.75 142.23 197.25 143.32 196.76 C 143.99 198.42 144.67 200.08 145.40 201.72 M 150.30 266.02 C 150.23 269.37 153.38 264.68 150.30 266.02 Z" />
<path fill="#fcfcfc" opacity="1.00" d=" M 240.23 200.85 C 238.60 198.92 238.09 196.54 238.76 194.11 C 240.44 196.02 240.95 198.42 240.23 200.85 Z" />
<path fill="#fcfcfc" opacity="1.00" d=" M 252.42 217.59 C 252.90 211.37 253.90 205.20 255.12 199.08 C 257.45 204.94 255.96 211.39 256.49 217.53 C 257.41 230.00 256.73 242.51 257.03 255.01 C 256.58 265.93 258.01 276.88 256.77 287.79 C 255.50 288.28 254.23 288.77 252.97 289.26 C 249.81 284.46 245.64 280.46 241.81 276.21 C 237.69 272.89 233.65 268.93 232.33 263.62 C 231.84 261.06 233.49 258.77 234.69 256.65 C 236.04 254.71 236.40 252.30 237.62 250.30 C 239.91 247.05 243.23 244.52 244.76 240.76 C 245.93 237.79 246.45 234.60 247.70 231.65 C 249.39 227.01 252.12 222.62 252.42 217.59 Z" />
<path fill="#fcfcfc" opacity="1.00" d=" M 48.40 207.36 C 49.99 207.89 51.57 208.50 53.07 209.27 C 52.82 210.30 52.49 211.30 52.06 212.27 C 50.16 211.73 48.31 211.02 46.46 210.34 C 46.95 209.60 47.92 208.10 48.40 207.36 Z" />
<path fill="#fcfcfc" opacity="1.00" d=" M 234.71 232.74 C 236.36 231.81 238.15 231.15 239.96 230.59 C 237.62 233.48 234.93 236.11 231.76 238.09 C 232.53 236.24 232.89 233.90 234.71 232.74 Z" />
<path fill="#fcfcfc" opacity="1.00" d=" M 125.77 241.92 C 127.32 239.88 128.83 237.81 130.51 235.87 C 131.04 237.00 131.57 238.14 132.10 239.27 C 130.12 240.44 128.08 241.58 125.77 241.92 Z" />
<path fill="#fcfcfc" opacity="1.00" d=" M 192.40 251.85 C 192.98 250.06 193.55 248.28 194.09 246.48 C 195.42 247.39 196.75 248.32 198.08 249.24 C 196.17 250.07 194.28 250.94 192.40 251.85 Z" />
<path fill="#fcfcfc" opacity="1.00" d=" M 102.49 266.29 C 103.12 265.93 104.37 265.19 105.00 264.82 C 105.79 265.85 106.62 266.85 107.48 267.83 C 105.82 267.30 104.12 266.89 102.49 266.29 Z" />
<path fill="#fcfcfc" opacity="1.00" d=" M 223.29 272.64 C 225.64 272.45 227.53 273.79 229.16 275.32 C 227.06 274.77 225.06 273.89 223.29 272.64 Z" />
<path fill="#fcfcfc" opacity="1.00" d=" M 107.52 283.65 C 111.73 283.30 115.69 281.48 119.92 281.35 C 123.95 281.72 127.55 283.81 131.10 285.60 C 125.97 285.69 120.97 286.87 116.03 288.14 C 112.65 289.27 109.43 287.12 106.05 287.19 C 101.77 287.08 97.50 286.85 93.22 286.75 C 93.22 286.49 93.24 285.96 93.24 285.70 C 98.09 285.64 102.70 283.95 107.52 283.65 Z" />
<path fill="#fcfcfc" opacity="1.00" d=" M 221.32 293.80 C 222.71 293.03 224.07 292.23 225.43 291.42 C 225.66 293.08 226.22 294.76 226.05 296.46 C 225.37 297.55 224.57 298.54 223.82 299.58 C 222.95 297.67 222.15 295.73 221.32 293.80 Z" />
<path fill="#fcfcfc" opacity="1.00" d=" M 80.44 294.11 C 81.97 293.57 83.47 292.90 85.05 292.53 C 88.48 292.95 91.55 295.34 95.12 294.81 C 106.38 293.86 117.60 298.03 128.82 295.79 C 133.02 295.15 137.11 296.83 141.30 296.63 C 143.44 296.64 145.43 295.74 147.53 295.55 C 149.05 296.32 150.40 297.38 151.76 298.41 C 150.25 298.40 148.74 298.35 147.23 298.30 C 147.51 299.74 147.78 301.18 148.05 302.62 C 145.93 302.54 143.80 302.45 141.69 302.29 C 140.48 304.48 139.19 306.63 138.00 308.83 C 138.78 309.64 139.55 310.45 140.29 311.29 C 135.97 312.58 131.56 312.11 127.39 310.46 C 129.03 306.13 134.24 305.31 136.69 301.57 C 130.84 300.33 125.17 303.24 119.31 302.48 C 114.86 301.95 110.35 301.82 106.09 303.44 C 107.92 306.22 110.03 309.24 109.80 312.73 C 107.99 314.00 105.91 314.81 103.91 315.75 C 103.46 313.88 103.01 312.01 102.58 310.14 C 100.95 312.75 99.07 315.19 97.02 317.49 C 101.00 320.42 106.10 319.56 110.72 319.74 C 116.64 319.90 122.44 317.84 128.36 318.64 C 131.49 318.84 134.60 319.69 137.75 319.41 C 143.57 317.70 149.51 315.73 154.34 311.92 C 152.63 311.81 150.92 311.74 149.21 311.65 C 150.57 309.55 152.00 307.46 152.87 305.11 C 152.00 303.81 150.94 302.67 149.90 301.53 C 151.84 300.88 153.79 300.24 155.76 299.65 C 155.74 298.33 155.72 297.01 155.71 295.69 C 156.89 297.74 157.68 300.07 159.25 301.86 C 162.35 304.06 165.83 305.67 168.97 307.82 C 169.94 306.25 170.86 304.60 172.34 303.45 C 173.86 303.54 175.36 303.84 176.85 304.19 C 174.14 307.88 174.16 312.75 171.56 316.51 C 169.56 319.35 169.99 323.12 168.22 326.02 C 165.75 327.85 163.19 329.57 161.18 331.93 C 158.00 330.64 156.17 333.43 154.84 335.84 C 153.79 334.26 152.99 332.53 152.02 330.90 C 151.23 332.09 150.52 333.33 149.76 334.53 C 151.67 335.76 153.60 336.96 155.51 338.20 C 153.45 340.60 150.60 342.00 147.72 343.15 C 146.19 340.47 146.43 337.38 146.89 334.45 C 145.33 335.29 143.76 336.13 142.17 336.92 C 142.71 337.61 143.24 338.31 143.78 339.01 C 140.30 341.87 137.18 345.43 132.74 346.85 C 125.68 350.16 117.78 348.48 110.37 347.79 C 106.51 347.32 102.30 348.47 98.81 346.25 C 92.49 343.52 87.23 338.29 85.07 331.71 C 85.64 329.01 85.51 326.29 84.04 323.88 C 83.09 325.08 82.11 326.26 81.11 327.43 C 81.34 323.17 83.92 319.69 86.23 316.31 C 84.99 316.70 83.77 317.18 82.60 317.75 C 82.38 316.89 82.16 316.04 81.95 315.19 C 80.99 315.72 80.05 316.27 79.10 316.82 C 79.73 314.39 80.46 311.99 80.85 309.51 C 79.86 310.53 78.90 311.58 77.96 312.64 C 75.92 311.39 73.66 310.40 71.25 310.27 C 73.19 312.01 75.35 313.49 77.66 314.71 C 76.56 316.17 75.51 317.67 74.45 319.16 C 72.03 315.01 70.68 310.35 68.50 306.09 C 69.37 305.35 70.24 304.62 71.11 303.89 C 70.99 306.58 72.54 308.51 74.94 309.57 C 74.52 308.05 74.02 306.57 73.52 305.08 C 74.57 305.39 75.61 305.71 76.65 306.02 C 74.71 302.71 76.51 299.33 77.86 296.20 C 79.09 296.46 80.32 296.72 81.54 297.00 C 81.18 296.03 80.81 295.07 80.44 294.11 M 157.83 307.62 C 159.14 309.00 160.42 311.56 162.72 310.35 C 161.14 309.34 159.51 308.43 157.83 307.62 M 87.17 318.05 C 85.87 318.71 85.87 319.39 87.17 320.09 C 88.48 319.41 88.48 318.73 87.17 318.05 Z" />
<path fill="#fcfcfc" opacity="1.00" d=" M 220.06 301.96 C 221.11 300.47 223.07 301.46 224.52 301.50 C 222.50 306.84 218.92 311.29 215.41 315.71 C 214.35 315.88 213.31 316.05 212.26 316.22 C 215.06 311.58 216.93 306.40 220.06 301.96 Z" />
<path fill="#fcfcfc" opacity="1.00" d=" M 111.45 311.26 C 112.98 309.30 115.48 304.68 118.11 307.92 C 117.60 309.62 116.86 311.24 116.15 312.86 C 114.59 312.32 113.02 311.79 111.45 311.26 Z" />
<path fill="#fcfcfc" opacity="1.00" d=" M 205.81 311.92 C 206.82 311.10 207.84 310.29 208.86 309.48 C 209.69 310.93 210.54 312.37 211.40 313.82 C 209.53 313.18 207.67 312.55 205.81 311.92 Z" />
<path fill="#fcfcfc" opacity="1.00" d=" M 77.17 318.33 C 78.51 317.27 80.08 319.55 78.61 320.43 C 77.28 321.48 75.70 319.19 77.17 318.33 Z" />
<path fill="#fcfcfc" opacity="1.00" d=" M 208.44 325.70 C 208.30 322.30 210.56 319.65 212.71 317.31 C 212.53 320.61 210.71 323.41 208.44 325.70 Z" />
<path fill="#fcfcfc" opacity="1.00" d=" M 203.09 329.11 C 204.76 327.88 206.69 327.09 208.53 326.15 C 207.31 329.08 205.86 331.90 204.57 334.79 C 203.13 334.93 201.69 335.07 200.26 335.21 C 201.18 333.17 201.82 330.97 203.09 329.11 Z" />
<path fill="#fcfcfc" opacity="1.00" d=" M 192.99 346.49 C 193.95 344.33 195.05 342.23 196.26 340.19 C 196.48 341.65 196.72 343.13 196.74 344.62 C 195.56 345.38 194.26 345.92 192.99 346.49 Z" />
<path fill="#fcfcfc" opacity="1.00" d=" M 82.56 343.44 C 87.99 345.30 91.08 350.23 95.20 353.86 C 97.84 356.40 101.74 356.08 105.13 356.31 C 105.56 358.40 106.58 360.45 108.62 361.38 C 111.39 362.88 114.22 358.97 116.94 360.72 C 118.58 361.49 118.37 363.49 118.68 364.99 C 123.71 367.20 129.06 368.50 134.39 369.74 C 136.28 369.99 137.17 371.75 138.15 373.15 C 133.12 371.37 128.00 369.68 122.63 369.40 C 125.12 370.57 127.74 371.48 130.31 372.49 C 123.92 373.33 117.45 373.77 111.06 372.78 C 105.96 371.73 100.64 374.89 95.79 372.20 C 92.48 369.91 89.54 366.83 87.84 363.14 C 85.53 356.73 85.27 349.74 82.56 343.44 Z" />
<path fill="#fcfcfc" opacity="1.00" d=" M 182.23 357.40 C 185.25 354.05 188.24 350.65 190.99 347.07 C 191.91 347.39 192.84 347.71 193.77 348.03 C 191.55 352.76 188.77 357.16 185.65 361.33 C 181.85 362.02 178.02 361.42 174.40 360.19 C 177.10 359.65 180.20 359.53 182.23 357.40 Z" />
<path fill="#fcfcfc" opacity="1.00" d=" M 165.05 371.11 C 168.81 369.57 172.12 367.08 175.99 365.77 C 175.30 369.42 171.81 370.89 168.94 372.55 C 167.65 372.04 166.35 371.56 165.05 371.11 Z" />
</g>
<g id="#1b1b1dff">
<path fill="#1b1b1d" opacity="1.00" d=" M 0.27 0.00 L 263.00 0.00 L 263.00 377.00 L 0.00 377.00 L 0.00 0.27 C 0.07 0.20 0.21 0.07 0.27 0.00 M 240.94 7.12 C 229.05 7.57 217.14 5.98 205.27 7.30 C 195.74 8.49 186.18 6.81 176.63 7.37 C 169.75 7.72 162.85 7.00 155.98 7.75 C 149.77 8.47 143.52 7.87 137.30 8.21 C 129.19 8.55 121.18 5.77 113.06 7.12 C 104.82 8.35 96.53 7.10 88.27 7.25 C 70.55 8.65 52.75 8.14 34.99 8.17 C 25.42 7.48 15.84 8.50 6.26 8.35 C 5.34 21.90 6.46 35.46 5.93 49.01 C 6.05 57.76 5.56 66.53 6.58 75.23 C 7.18 79.49 5.97 83.69 5.88 87.93 C 5.87 100.29 6.08 112.65 5.88 125.01 C 5.92 132.35 7.09 139.64 7.09 146.99 C 7.01 153.80 6.30 160.59 6.32 167.41 C 6.30 174.35 7.25 181.29 6.57 188.22 C 5.75 196.50 7.34 204.74 7.11 213.02 C 6.47 228.34 7.79 243.67 7.01 258.99 C 6.70 263.19 7.06 267.39 7.46 271.57 C 8.40 280.05 6.51 288.52 7.21 297.01 C 7.75 304.22 8.04 311.45 7.70 318.68 C 7.01 332.78 7.29 346.91 6.49 361.00 C 6.18 363.66 8.51 367.10 11.44 366.31 C 14.15 365.75 16.88 365.28 19.54 364.53 C 22.96 363.69 24.44 359.80 27.81 358.85 C 37.25 355.44 46.78 351.33 56.98 351.23 C 61.94 351.18 67.29 350.50 71.26 347.27 C 74.48 344.56 77.69 341.82 81.28 339.61 C 78.56 332.68 70.81 329.80 67.53 323.24 C 65.92 319.27 62.19 316.56 60.94 312.39 C 59.76 308.25 58.30 304.08 58.40 299.71 C 57.57 299.51 56.73 299.31 55.89 299.12 C 57.51 297.20 59.07 295.23 60.76 293.38 C 58.18 293.90 55.49 294.62 52.95 293.50 C 51.80 286.58 49.22 279.99 46.72 273.48 C 45.26 267.79 43.33 262.24 41.94 256.54 C 40.55 256.12 39.18 255.67 37.80 255.26 C 39.09 255.02 40.38 254.73 41.65 254.36 C 41.60 250.93 43.11 247.87 45.28 245.30 C 45.60 247.98 45.67 250.69 45.58 253.39 C 47.45 254.83 49.35 256.24 51.16 257.75 C 49.81 257.59 48.46 257.42 47.11 257.25 C 48.74 260.56 50.55 263.86 53.59 266.09 C 52.67 267.39 51.77 268.70 50.87 270.01 C 53.40 272.14 56.88 273.86 57.80 277.29 C 58.04 280.85 56.97 284.34 56.47 287.84 C 59.10 288.70 61.09 290.66 62.97 292.61 C 63.72 292.22 64.47 291.84 65.22 291.45 C 64.53 293.20 63.68 294.92 63.33 296.78 C 64.43 297.84 65.66 298.75 66.89 299.66 C 67.61 298.42 68.32 297.17 69.04 295.94 C 68.31 294.62 67.56 293.33 66.86 292.02 C 69.09 292.79 71.30 293.82 73.70 293.95 C 74.18 292.80 75.31 291.48 74.64 290.21 C 72.75 289.31 70.67 289.80 68.72 290.20 C 69.85 288.22 70.95 286.23 72.05 284.24 C 72.72 285.17 73.39 286.10 74.06 287.04 C 76.73 285.43 79.31 283.70 81.66 281.66 C 82.11 274.52 90.05 271.55 92.01 265.02 C 93.52 263.26 96.37 261.90 96.06 259.23 C 94.52 256.71 92.09 254.89 90.55 252.36 C 88.45 249.97 91.91 246.08 94.68 247.19 C 98.38 247.47 100.23 250.82 101.51 253.85 C 107.86 252.68 114.82 251.34 119.22 246.17 C 120.73 244.66 118.73 242.94 118.19 241.43 C 118.74 241.46 119.85 241.52 120.40 241.55 C 119.43 235.86 117.83 230.16 118.66 224.34 C 117.23 223.35 115.80 222.39 114.35 221.44 C 115.03 219.50 115.83 217.60 116.63 215.70 C 116.29 215.24 115.95 214.78 115.61 214.32 C 119.36 210.41 118.64 204.47 117.37 199.69 C 115.52 193.94 107.87 195.52 103.73 197.62 C 100.76 203.54 99.75 210.23 99.05 216.75 C 97.01 220.98 93.05 224.60 93.55 229.74 C 94.66 231.45 96.29 232.71 97.79 234.05 C 91.84 233.67 87.31 238.08 82.02 240.00 C 77.60 241.58 72.44 243.72 67.94 241.16 C 65.68 240.27 65.63 237.43 64.73 235.49 C 71.23 236.11 77.78 234.53 83.54 231.53 C 87.59 228.79 89.90 224.27 92.07 220.02 C 94.53 215.46 94.92 210.17 95.47 205.12 C 95.59 202.14 94.15 197.33 90.29 198.28 C 86.26 198.57 84.41 202.48 81.96 205.10 C 82.60 202.90 83.29 200.71 83.93 198.51 C 78.37 199.15 72.79 199.69 67.26 200.57 C 67.52 201.56 67.79 202.55 68.08 203.54 C 66.34 204.32 64.63 205.15 62.93 206.02 C 63.97 207.38 65.03 208.72 66.08 210.08 C 65.04 211.76 63.97 213.42 62.88 215.07 C 62.35 214.16 61.84 213.25 61.33 212.34 C 58.32 213.51 55.20 214.31 52.08 215.07 C 52.84 216.13 53.61 217.19 54.38 218.25 C 52.72 218.77 48.56 217.15 49.12 219.92 C 51.16 222.25 53.91 223.78 56.21 225.83 C 60.47 229.35 62.31 234.74 64.81 239.49 C 58.64 237.06 53.72 232.50 49.07 227.93 C 46.77 225.36 45.69 221.99 44.24 218.92 C 43.16 219.54 42.08 220.17 40.99 220.80 C 39.96 219.36 38.90 217.95 37.83 216.55 C 39.24 216.60 40.65 216.65 42.06 216.70 C 42.78 212.69 42.44 208.60 41.38 204.69 C 39.86 204.66 38.52 205.50 37.13 206.02 C 34.46 201.78 35.99 196.50 35.31 191.79 C 35.21 188.56 32.09 186.28 32.23 183.02 C 32.21 180.75 32.31 178.48 32.05 176.22 C 31.61 172.22 32.97 168.27 32.54 164.27 C 32.00 160.86 30.33 157.77 29.65 154.40 C 29.09 152.04 30.20 149.73 30.19 147.37 C 29.63 144.00 27.85 140.78 28.34 137.28 C 28.65 134.52 29.13 131.77 29.61 129.03 C 27.50 127.01 25.35 125.02 23.19 123.06 C 23.69 119.82 24.09 116.57 24.36 113.30 C 24.74 110.17 23.30 107.18 23.27 104.07 C 23.77 101.57 25.00 99.28 25.97 96.94 C 28.46 91.90 30.11 86.23 34.10 82.10 C 38.16 79.49 42.97 78.31 47.14 75.86 C 47.34 73.21 46.61 69.88 48.99 68.00 C 52.91 64.58 57.61 61.99 60.84 57.83 C 62.91 54.71 67.11 54.92 69.91 52.82 C 72.55 50.51 74.52 47.38 77.79 45.84 C 82.20 43.70 86.50 41.32 90.46 38.41 C 94.09 35.59 98.84 35.85 103.01 34.46 C 111.13 31.94 119.02 28.53 127.51 27.40 C 133.88 26.51 139.49 22.61 145.96 22.32 C 150.21 23.07 154.13 25.34 158.51 25.45 C 162.85 25.62 167.27 26.01 171.31 27.73 C 175.12 29.37 178.25 32.39 182.31 33.47 C 187.06 34.71 191.96 35.18 196.84 35.39 C 201.49 36.32 205.61 38.93 209.62 41.37 C 215.21 44.67 219.04 50.06 222.91 55.13 C 225.06 58.22 229.14 58.51 232.43 59.59 C 232.79 61.63 233.14 63.66 233.43 65.71 C 239.65 70.88 243.88 78.37 245.89 86.15 C 247.17 89.82 249.96 92.67 251.90 95.98 C 253.22 98.71 253.85 101.70 255.01 104.49 C 257.16 93.87 255.33 82.98 256.34 72.25 C 254.62 51.56 256.87 30.79 255.72 10.09 C 255.90 8.36 254.53 6.70 252.77 6.66 C 248.82 6.41 244.89 7.08 240.94 7.12 M 131.59 30.56 C 131.29 31.74 130.98 32.92 130.57 34.07 L 129.72 34.82 C 132.53 35.17 135.36 35.73 138.19 35.50 C 139.85 34.52 141.00 32.38 143.18 32.55 C 146.80 32.81 150.36 33.72 153.98 34.05 C 157.70 34.08 160.14 37.20 162.86 39.28 C 163.69 38.44 164.54 37.60 165.38 36.77 C 155.51 29.78 143.05 30.45 131.59 30.56 M 106.91 38.97 C 107.27 39.49 108.00 40.54 108.36 41.06 C 110.24 40.28 112.15 39.46 113.65 38.03 C 111.47 36.61 109.09 38.47 106.91 38.97 M 99.35 56.69 C 99.29 60.73 99.11 64.92 100.80 68.70 C 101.58 66.33 103.27 63.98 102.78 61.39 C 101.93 59.64 100.60 58.17 99.35 56.69 M 197.81 70.97 C 198.10 76.29 199.97 81.31 201.59 86.32 C 202.55 84.47 203.53 82.64 204.57 80.83 C 201.97 78.13 200.65 74.63 201.45 70.89 C 200.24 70.91 199.02 70.94 197.81 70.97 M 142.02 84.17 C 140.31 83.42 138.60 82.68 136.88 81.97 C 133.90 84.28 130.48 87.84 126.34 86.56 C 123.48 85.64 120.46 85.69 117.52 86.09 C 117.47 87.02 117.41 87.94 117.36 88.87 C 113.23 88.15 109.09 87.18 104.87 87.27 C 105.69 85.98 106.48 84.68 107.28 83.37 C 103.39 83.43 99.39 83.28 95.92 81.31 C 89.58 82.59 83.05 84.30 76.58 82.79 C 71.55 82.05 67.77 85.75 64.35 88.82 C 56.35 92.57 55.04 102.42 49.61 108.59 C 45.85 112.51 46.84 118.54 43.93 122.95 C 42.39 125.09 41.97 127.62 43.53 129.87 C 45.31 128.97 47.08 128.06 48.88 127.22 C 49.11 126.26 49.34 125.29 49.55 124.33 C 50.32 125.01 51.09 125.68 51.86 126.36 C 49.83 129.15 46.75 130.72 43.79 132.30 C 44.68 133.55 45.58 134.80 46.46 136.07 C 44.99 138.38 43.58 140.73 42.10 143.04 C 44.03 144.57 45.76 146.32 47.52 148.03 C 46.22 148.03 44.92 147.94 43.64 147.75 C 43.14 148.94 42.62 150.13 42.11 151.32 C 44.24 151.47 46.37 151.48 48.49 151.38 C 48.39 152.45 48.27 153.52 48.17 154.59 C 49.65 155.57 51.13 156.53 52.61 157.49 C 52.55 158.18 52.48 158.87 52.41 159.56 C 50.62 158.23 48.95 156.01 46.50 156.12 C 44.43 156.81 43.11 158.77 41.52 160.17 C 41.69 162.46 41.66 164.76 41.53 167.05 C 44.18 167.87 46.82 168.81 49.27 170.12 C 48.16 170.69 47.04 171.26 45.92 171.83 C 47.22 172.49 48.52 173.14 49.82 173.80 C 51.89 172.52 53.98 171.25 56.01 169.91 C 58.61 171.40 61.19 173.01 64.09 173.88 C 66.63 174.66 69.37 174.26 71.89 175.12 C 74.88 176.07 77.73 177.79 80.96 177.64 C 85.38 177.46 90.01 177.18 94.22 178.83 C 97.96 180.24 96.52 185.04 97.18 188.11 C 100.46 188.40 103.75 188.63 107.04 188.88 C 111.35 189.21 115.31 187.14 118.88 184.98 C 116.66 184.25 114.41 183.60 112.15 182.99 C 112.74 181.98 113.33 180.97 113.91 179.97 C 114.83 180.44 115.74 180.92 116.66 181.40 C 120.00 177.35 124.89 174.87 129.90 173.58 C 132.53 173.40 135.28 174.03 137.74 172.77 C 142.81 170.41 148.53 170.59 153.77 168.80 C 156.00 167.86 158.15 169.23 160.24 169.90 C 161.63 168.45 162.98 166.97 164.30 165.47 C 169.02 166.23 173.85 167.01 178.62 166.19 C 176.14 160.81 170.99 157.25 165.95 154.46 C 163.36 152.91 160.73 155.39 158.81 156.93 C 157.82 156.25 156.83 155.57 155.85 154.90 C 156.63 152.18 156.59 149.34 156.27 146.56 C 159.44 145.77 162.39 144.25 165.58 143.59 C 167.51 144.51 169.43 145.60 170.93 147.14 C 172.12 148.95 172.40 151.15 172.90 153.21 C 173.87 153.01 174.84 152.82 175.81 152.62 C 176.83 150.32 178.53 148.44 180.60 147.01 C 179.30 145.78 176.96 144.93 177.29 142.78 C 177.23 137.43 178.05 132.10 179.81 127.04 C 178.38 126.68 176.96 126.33 175.54 125.97 C 174.50 128.53 174.32 131.29 174.71 133.99 C 172.87 134.59 171.15 135.47 169.58 136.59 C 168.18 135.60 166.78 134.60 165.38 133.61 C 167.27 130.24 172.32 130.12 172.99 125.92 C 171.60 126.94 170.25 128.03 168.85 129.06 C 168.47 124.56 169.11 119.66 166.23 115.79 C 165.22 113.18 162.21 113.41 159.94 112.97 C 159.62 114.71 159.31 116.44 159.07 118.20 C 161.06 117.96 163.01 117.56 164.98 117.21 C 164.55 119.98 164.17 122.75 164.01 125.55 C 161.74 124.40 159.48 123.22 157.20 122.08 C 155.70 122.58 154.20 123.09 152.69 123.57 C 154.16 122.07 155.65 120.57 157.17 119.12 C 156.13 115.68 155.39 112.16 154.49 108.68 C 154.18 107.92 154.20 106.77 153.22 106.56 C 150.62 105.50 147.81 105.10 145.07 104.54 C 145.21 102.65 145.35 100.76 145.51 98.87 C 149.18 99.82 152.15 102.24 155.14 104.44 C 156.77 102.28 158.05 99.90 159.48 97.62 C 156.41 97.64 153.32 97.85 150.33 96.99 C 150.36 95.20 150.41 93.42 150.40 91.63 C 148.29 93.86 145.32 99.49 141.90 96.10 C 143.13 92.47 145.30 89.27 147.57 86.22 C 149.77 86.77 151.99 87.27 154.21 87.73 C 152.36 86.12 150.51 84.52 148.76 82.80 C 151.18 83.40 153.55 84.18 155.93 84.93 C 156.85 84.12 157.78 83.32 158.72 82.53 C 158.63 81.60 158.55 80.68 158.46 79.75 C 152.80 77.80 145.18 78.35 142.02 84.17 M 168.09 81.37 C 168.86 81.59 170.42 82.04 171.19 82.26 C 171.79 81.15 172.39 80.04 172.99 78.93 C 171.64 78.63 170.31 78.32 168.95 78.12 C 167.86 78.85 168.24 80.27 168.09 81.37 M 177.72 79.81 C 178.77 85.53 184.64 87.80 189.33 89.89 C 189.55 89.61 190.00 89.04 190.22 88.75 C 187.87 83.99 183.33 79.72 177.72 79.81 M 163.67 80.64 C 163.70 83.14 163.74 85.64 163.55 88.13 C 165.20 87.26 166.20 85.53 167.16 83.98 C 165.99 82.87 164.84 81.74 163.67 80.64 M 203.01 92.19 C 204.51 93.65 205.99 95.15 207.40 96.71 C 208.02 96.69 209.24 96.64 209.86 96.62 C 209.65 93.62 209.44 90.62 209.23 87.62 C 207.02 88.94 204.91 90.44 203.01 92.19 M 188.02 94.50 C 189.94 94.83 191.86 95.21 193.77 95.62 C 193.01 93.67 192.41 91.67 191.86 89.66 C 190.55 91.25 189.33 92.91 188.02 94.50 M 42.42 95.64 C 42.32 97.20 42.28 98.78 42.35 100.35 C 44.39 99.42 46.43 98.49 48.50 97.64 C 48.31 96.55 48.11 95.47 47.92 94.38 C 46.09 94.80 44.26 95.22 42.42 95.64 M 171.25 111.87 C 170.88 112.95 170.50 114.03 170.13 115.11 C 171.05 116.02 171.98 116.93 172.90 117.85 C 172.25 118.62 171.61 119.40 170.96 120.17 C 172.49 120.94 174.02 121.74 175.54 122.53 C 175.03 121.67 174.51 120.81 174.00 119.95 C 175.80 118.53 177.64 117.15 179.28 115.54 C 176.63 114.26 173.95 113.04 171.25 111.87 M 198.62 122.58 C 199.98 121.27 201.33 119.96 202.70 118.66 C 201.37 117.23 200.07 115.79 198.76 114.36 C 196.81 116.92 196.52 120.02 198.62 122.58 M 252.36 143.50 C 250.18 148.21 246.86 152.38 245.33 157.40 C 243.97 160.82 244.52 164.54 244.28 168.12 C 244.17 170.57 243.85 173.04 244.18 175.50 C 246.99 177.41 250.73 178.11 252.78 181.03 C 253.83 182.75 254.54 184.66 255.29 186.54 C 256.16 182.43 257.06 178.28 256.87 174.05 C 256.49 160.27 256.77 146.46 255.56 132.71 C 252.66 135.62 253.16 139.81 252.36 143.50 M 38.75 170.26 C 42.71 175.74 38.20 182.66 40.55 188.62 C 42.44 189.56 44.18 188.10 45.75 187.21 C 44.52 183.04 45.82 178.79 45.76 174.57 C 44.59 171.85 41.21 171.32 38.75 170.26 M 241.25 181.17 C 241.29 182.63 241.43 184.08 241.65 185.52 C 243.60 183.77 245.66 182.15 247.55 180.33 C 245.43 180.46 243.34 180.87 241.25 181.17 M 51.36 186.43 C 55.83 188.87 60.47 185.87 64.84 184.76 C 62.48 183.45 59.92 182.11 57.13 182.52 C 54.52 182.37 53.09 184.93 51.36 186.43 M 49.32 187.03 C 49.28 190.39 52.37 185.64 49.32 187.03 M 39.07 196.15 C 39.77 197.31 40.48 198.47 41.18 199.64 C 42.42 198.42 43.63 197.17 44.81 195.89 C 43.89 194.49 42.97 193.08 42.06 191.67 C 41.07 193.17 40.08 194.67 39.07 196.15 M 145.40 201.72 C 144.67 200.08 143.99 198.42 143.32 196.76 C 142.23 197.25 141.15 197.75 140.07 198.24 C 140.67 199.69 141.30 201.13 141.91 202.58 C 139.31 204.00 136.77 205.57 134.60 207.59 C 135.67 208.72 136.80 209.79 137.87 210.92 C 135.83 211.59 133.80 212.27 131.79 212.99 C 132.75 215.24 133.18 218.05 135.45 219.44 C 138.18 221.29 141.00 223.26 142.15 226.52 C 149.01 227.60 155.98 227.83 162.86 226.79 C 161.81 228.63 160.78 230.49 159.78 232.36 C 155.82 232.76 151.84 234.22 147.85 233.22 C 145.29 232.69 142.69 232.38 140.10 232.02 C 141.76 235.28 142.37 238.90 143.72 242.27 C 145.77 245.52 148.51 248.27 150.89 251.28 C 146.36 254.77 142.22 258.73 138.25 262.84 C 142.52 264.41 144.84 268.29 147.43 271.74 C 147.17 270.27 146.89 268.81 146.61 267.35 C 148.99 268.49 151.90 269.17 153.39 271.54 C 154.52 273.11 155.45 274.85 156.84 276.22 C 160.92 277.50 165.92 276.58 169.21 279.82 C 171.98 284.49 172.11 292.26 166.48 294.79 C 166.49 296.03 166.52 297.26 166.56 298.50 C 165.73 298.46 164.89 298.43 164.06 298.40 C 164.76 300.27 165.42 302.15 166.02 304.05 C 168.77 301.99 171.55 299.98 174.32 297.96 C 174.73 298.11 175.56 298.39 175.98 298.53 C 176.62 300.28 177.41 301.99 178.52 303.50 C 178.83 299.14 177.57 294.19 180.41 290.40 C 182.38 287.75 183.20 284.53 183.78 281.33 C 184.99 281.53 186.21 281.70 187.43 281.85 C 187.89 279.82 187.03 277.84 186.52 275.91 C 188.11 274.79 189.67 273.64 191.21 272.46 C 185.96 273.62 181.63 270.38 177.42 267.83 C 180.78 267.69 184.03 266.82 187.07 265.38 C 185.56 264.58 184.05 263.79 182.55 263.00 C 182.99 261.61 183.43 260.23 183.83 258.84 C 185.84 258.37 187.84 257.88 189.80 257.25 C 189.08 255.57 188.12 253.95 187.77 252.14 C 188.75 247.66 192.33 243.04 189.49 238.49 C 187.83 238.54 186.16 238.55 184.50 238.56 C 184.73 236.77 184.98 234.98 185.22 233.19 C 187.82 232.56 190.49 232.21 193.16 232.42 C 193.54 231.63 193.92 230.84 194.30 230.05 C 195.93 230.58 197.54 231.16 199.16 231.73 C 196.85 230.24 194.37 228.89 192.51 226.83 C 192.54 222.86 194.31 219.15 194.71 215.24 C 193.65 212.70 190.90 211.18 189.00 209.22 C 192.44 208.37 195.73 207.01 198.70 205.05 C 197.13 204.35 195.55 203.68 193.98 203.01 C 192.39 204.05 190.79 205.09 189.18 206.10 C 186.12 205.43 182.45 204.52 179.79 206.74 C 177.76 210.03 177.21 213.99 175.35 217.38 C 174.14 219.82 171.92 221.50 169.83 223.14 C 171.53 217.82 174.03 212.65 174.45 207.02 C 174.03 205.09 173.05 203.36 172.27 201.57 C 168.57 203.29 165.43 205.97 161.70 207.63 C 162.18 208.48 162.66 209.34 163.14 210.20 C 161.19 210.75 159.26 211.36 157.33 211.97 C 157.78 210.71 158.24 209.44 158.69 208.18 C 157.19 207.24 155.69 206.28 154.20 205.32 C 154.83 204.40 155.46 203.48 156.09 202.56 C 153.75 201.30 151.31 200.24 148.87 199.21 C 150.46 197.72 152.02 196.21 153.56 194.68 C 152.14 193.80 150.70 192.95 149.23 192.16 C 149.66 193.27 150.12 194.38 150.59 195.48 C 149.18 194.52 147.75 193.58 146.30 192.69 C 147.20 195.78 148.12 199.21 145.40 201.72 M 240.23 200.85 C 240.95 198.42 240.44 196.02 238.76 194.11 C 238.09 196.54 238.60 198.92 240.23 200.85 M 252.42 217.59 C 252.12 222.62 249.39 227.01 247.70 231.65 C 246.45 234.60 245.93 237.79 244.76 240.76 C 243.23 244.52 239.91 247.05 237.62 250.30 C 236.40 252.30 236.04 254.71 234.69 256.65 C 233.49 258.77 231.84 261.06 232.33 263.62 C 233.65 268.93 237.69 272.89 241.81 276.21 C 245.64 280.46 249.81 284.46 252.97 289.26 C 254.23 288.77 255.50 288.28 256.77 287.79 C 258.01 276.88 256.58 265.93 257.03 255.01 C 256.73 242.51 257.41 230.00 256.49 217.53 C 255.96 211.39 257.45 204.94 255.12 199.08 C 253.90 205.20 252.90 211.37 252.42 217.59 M 48.40 207.36 C 47.92 208.10 46.95 209.60 46.46 210.34 C 48.31 211.02 50.16 211.73 52.06 212.27 C 52.49 211.30 52.82 210.30 53.07 209.27 C 51.57 208.50 49.99 207.89 48.40 207.36 M 234.71 232.74 C 232.89 233.90 232.53 236.24 231.76 238.09 C 234.93 236.11 237.62 233.48 239.96 230.59 C 238.15 231.15 236.36 231.81 234.71 232.74 M 125.77 241.92 C 128.08 241.58 130.12 240.44 132.10 239.27 C 131.57 238.14 131.04 237.00 130.51 235.87 C 128.83 237.81 127.32 239.88 125.77 241.92 M 192.40 251.85 C 194.28 250.94 196.17 250.07 198.08 249.24 C 196.75 248.32 195.42 247.39 194.09 246.48 C 193.55 248.28 192.98 250.06 192.40 251.85 M 102.49 266.29 C 104.12 266.89 105.82 267.30 107.48 267.83 C 106.62 266.85 105.79 265.85 105.00 264.82 C 104.37 265.19 103.12 265.93 102.49 266.29 M 223.29 272.64 C 225.06 273.89 227.06 274.77 229.16 275.32 C 227.53 273.79 225.64 272.45 223.29 272.64 M 107.52 283.65 C 102.70 283.95 98.09 285.64 93.24 285.70 C 93.24 285.96 93.22 286.49 93.22 286.75 C 97.50 286.85 101.77 287.08 106.05 287.19 C 109.43 287.12 112.65 289.27 116.03 288.14 C 120.97 286.87 125.97 285.69 131.10 285.60 C 127.55 283.81 123.95 281.72 119.92 281.35 C 115.69 281.48 111.73 283.30 107.52 283.65 M 221.32 293.80 C 222.15 295.73 222.95 297.67 223.82 299.58 C 224.57 298.54 225.37 297.55 226.05 296.46 C 226.22 294.76 225.66 293.08 225.43 291.42 C 224.07 292.23 222.71 293.03 221.32 293.80 M 80.44 294.11 C 80.81 295.07 81.18 296.03 81.54 297.00 C 80.32 296.72 79.09 296.46 77.86 296.20 C 76.51 299.33 74.71 302.71 76.65 306.02 C 75.61 305.71 74.57 305.39 73.52 305.08 C 74.02 306.57 74.52 308.05 74.94 309.57 C 72.54 308.51 70.99 306.58 71.11 303.89 C 70.24 304.62 69.37 305.35 68.50 306.09 C 70.68 310.35 72.03 315.01 74.45 319.16 C 75.51 317.67 76.56 316.17 77.66 314.71 C 75.35 313.49 73.19 312.01 71.25 310.27 C 73.66 310.40 75.92 311.39 77.96 312.64 C 78.90 311.58 79.86 310.53 80.85 309.51 C 80.46 311.99 79.73 314.39 79.10 316.82 C 80.05 316.27 80.99 315.72 81.95 315.19 C 82.16 316.04 82.38 316.89 82.60 317.75 C 83.77 317.18 84.99 316.70 86.23 316.31 C 83.92 319.69 81.34 323.17 81.11 327.43 C 82.11 326.26 83.09 325.08 84.04 323.88 C 85.51 326.29 85.64 329.01 85.07 331.71 C 87.23 338.29 92.49 343.52 98.81 346.25 C 102.30 348.47 106.51 347.32 110.37 347.79 C 117.78 348.48 125.68 350.16 132.74 346.85 C 137.18 345.43 140.30 341.87 143.78 339.01 C 143.24 338.31 142.71 337.61 142.17 336.92 C 143.76 336.13 145.33 335.29 146.89 334.45 C 146.43 337.38 146.19 340.47 147.72 343.15 C 150.60 342.00 153.45 340.60 155.51 338.20 C 153.60 336.96 151.67 335.76 149.76 334.53 C 150.52 333.33 151.23 332.09 152.02 330.90 C 152.99 332.53 153.79 334.26 154.84 335.84 C 156.17 333.43 158.00 330.64 161.18 331.93 C 163.19 329.57 165.75 327.85 168.22 326.02 C 169.99 323.12 169.56 319.35 171.56 316.51 C 174.16 312.75 174.14 307.88 176.85 304.19 C 175.36 303.84 173.86 303.54 172.34 303.45 C 170.86 304.60 169.94 306.25 168.97 307.82 C 165.83 305.67 162.35 304.06 159.25 301.86 C 157.68 300.07 156.89 297.74 155.71 295.69 C 155.72 297.01 155.74 298.33 155.76 299.65 C 153.79 300.24 151.84 300.88 149.90 301.53 C 150.94 302.67 152.00 303.81 152.87 305.11 C 152.00 307.46 150.57 309.55 149.21 311.65 C 150.92 311.74 152.63 311.81 154.34 311.92 C 149.51 315.73 143.57 317.70 137.75 319.41 C 134.60 319.69 131.49 318.84 128.36 318.64 C 122.44 317.84 116.64 319.90 110.72 319.74 C 106.10 319.56 101.00 320.42 97.02 317.49 C 99.07 315.19 100.95 312.75 102.58 310.14 C 103.01 312.01 103.46 313.88 103.91 315.75 C 105.91 314.81 107.99 314.00 109.80 312.73 C 110.03 309.24 107.92 306.22 106.09 303.44 C 110.35 301.82 114.86 301.95 119.31 302.48 C 125.17 303.24 130.84 300.33 136.69 301.57 C 134.24 305.31 129.03 306.13 127.39 310.46 C 131.56 312.11 135.97 312.58 140.29 311.29 C 139.55 310.45 138.78 309.64 138.00 308.83 C 139.19 306.63 140.48 304.48 141.69 302.29 C 143.80 302.45 145.93 302.54 148.05 302.62 C 147.78 301.18 147.51 299.74 147.23 298.30 C 148.74 298.35 150.25 298.40 151.76 298.41 C 150.40 297.38 149.05 296.32 147.53 295.55 C 145.43 295.74 143.44 296.64 141.30 296.63 C 137.11 296.83 133.02 295.15 128.82 295.79 C 117.60 298.03 106.38 293.86 95.12 294.81 C 91.55 295.34 88.48 292.95 85.05 292.53 C 83.47 292.90 81.97 293.57 80.44 294.11 M 220.06 301.96 C 216.93 306.40 215.06 311.58 212.26 316.22 C 213.31 316.05 214.35 315.88 215.41 315.71 C 218.92 311.29 222.50 306.84 224.52 301.50 C 223.07 301.46 221.11 300.47 220.06 301.96 M 111.45 311.26 C 113.02 311.79 114.59 312.32 116.15 312.86 C 116.86 311.24 117.60 309.62 118.11 307.92 C 115.48 304.68 112.98 309.30 111.45 311.26 M 205.81 311.92 C 207.67 312.55 209.53 313.18 211.40 313.82 C 210.54 312.37 209.69 310.93 208.86 309.48 C 207.84 310.29 206.82 311.10 205.81 311.92 M 77.17 318.33 C 75.70 319.19 77.28 321.48 78.61 320.43 C 80.08 319.55 78.51 317.27 77.17 318.33 M 208.44 325.70 C 210.71 323.41 212.53 320.61 212.71 317.31 C 210.56 319.65 208.30 322.30 208.44 325.70 M 203.09 329.11 C 201.82 330.97 201.18 333.17 200.26 335.21 C 201.69 335.07 203.13 334.93 204.57 334.79 C 205.86 331.90 207.31 329.08 208.53 326.15 C 206.69 327.09 204.76 327.88 203.09 329.11 M 192.99 346.49 C 194.26 345.92 195.56 345.38 196.74 344.62 C 196.72 343.13 196.48 341.65 196.26 340.19 C 195.05 342.23 193.95 344.33 192.99 346.49 M 82.56 343.44 C 85.27 349.74 85.53 356.73 87.84 363.14 C 89.54 366.83 92.48 369.91 95.79 372.20 C 100.64 374.89 105.96 371.73 111.06 372.78 C 117.45 373.77 123.92 373.33 130.31 372.49 C 127.74 371.48 125.12 370.57 122.63 369.40 C 128.00 369.68 133.12 371.37 138.15 373.15 C 137.17 371.75 136.28 369.99 134.39 369.74 C 129.06 368.50 123.71 367.20 118.68 364.99 C 118.37 363.49 118.58 361.49 116.94 360.72 C 114.22 358.97 111.39 362.88 108.62 361.38 C 106.58 360.45 105.56 358.40 105.13 356.31 C 101.74 356.08 97.84 356.40 95.20 353.86 C 91.08 350.23 87.99 345.30 82.56 343.44 M 182.23 357.40 C 180.20 359.53 177.10 359.65 174.40 360.19 C 178.02 361.42 181.85 362.02 185.65 361.33 C 188.77 357.16 191.55 352.76 193.77 348.03 C 192.84 347.71 191.91 347.39 190.99 347.07 C 188.24 350.65 185.25 354.05 182.23 357.40 M 165.05 371.11 C 166.35 371.56 167.65 372.04 168.94 372.55 C 171.81 370.89 175.30 369.42 175.99 365.77 C 172.12 367.08 168.81 369.57 165.05 371.11 Z" />
<path fill="#1b1b1d" opacity="1.00" d=" M 50.74 116.09 C 53.44 116.30 55.88 117.49 57.80 119.40 C 55.02 119.80 52.79 117.62 50.74 116.09 Z" />
<path fill="#1b1b1d" opacity="1.00" d=" M 36.26 216.27 C 36.78 216.79 36.78 216.79 36.26 216.27 Z" />
<path fill="#1b1b1d" opacity="1.00" d=" M 40.55 224.93 C 42.18 225.46 43.80 226.06 45.39 226.72 C 44.98 227.45 44.18 228.91 43.78 229.64 C 42.67 228.08 41.58 226.52 40.55 224.93 Z" />
<path fill="#1b1b1d" opacity="1.00" d=" M 42.10 237.75 C 43.84 236.94 45.54 236.05 47.23 235.13 C 47.07 236.37 46.89 237.61 46.63 238.84 C 48.30 240.30 49.90 241.84 51.53 243.35 C 48.91 242.76 46.24 242.39 43.56 242.34 C 43.09 240.80 42.60 239.28 42.10 237.75 Z" />
<path fill="#1b1b1d" opacity="1.00" d=" M 150.30 266.02 C 153.38 264.68 150.23 269.37 150.30 266.02 Z" />
<path fill="#1b1b1d" opacity="1.00" d=" M 157.83 307.62 C 159.51 308.43 161.14 309.34 162.72 310.35 C 160.42 311.56 159.14 309.00 157.83 307.62 Z" />
<path fill="#1b1b1d" opacity="1.00" d=" M 87.17 318.05 C 88.48 318.73 88.48 319.41 87.17 320.09 C 85.87 319.39 85.87 318.71 87.17 318.05 Z" />
</g>
</svg>
