solid keyboard-slide-stopper
facet normal -1.0 0.0 0.0
outer loop
vertex 0.0 1.80000000000002 19.3000000000001
vertex 0.0 5.6399329650958e-014 10.2
vertex 0.0 2.25597318603832e-014 19.3000000000001
endloop
endfacet
facet normal -1.0 0.0 0.0
outer loop
vertex 0.0 5.6399329650958e-014 10.2
vertex 0.0 1.80000000000002 19.3000000000001
vertex 0.0 1.80000000000002 17.1000000000001
endloop
endfacet
facet normal -1.0 0.0 0.0
outer loop
vertex 0.0 5.6399329650958e-014 10.2
vertex 0.0 1.80000000000002 17.1000000000001
vertex 0.0 1.80000000000005 10.2
endloop
endfacet
facet normal 3.53015945385043e-015 3.00296018129054e-015 -1.0
outer loop
vertex 35.1 8.70000000000004 10.2
vertex 35.1 1.80000000000004 10.2
vertex 34.05 8.70000000000006 10.2
endloop
endfacet
facet normal 3.53015945385043e-015 3.00296018129054e-015 -1.0
outer loop
vertex 34.05 3.00000000000006 10.2
vertex 33.95 5.6399329650958e-014 10.2
vertex 33.95 3.00000000000006 10.2
endloop
endfacet
facet normal 3.53015945385043e-015 3.00296018129054e-015 -1.0
outer loop
vertex 33.95 5.6399329650958e-014 10.2
vertex 34.05 3.00000000000006 10.2
vertex 36.05 3.38395977905748e-014 10.2
endloop
endfacet
facet normal 3.53015945385043e-015 3.00296018129054e-015 -1.0
outer loop
vertex 36.05 3.38395977905748e-014 10.2
vertex 34.05 3.00000000000006 10.2
vertex 35.1 1.80000000000004 10.2
endloop
endfacet
facet normal 3.53015945385043e-015 3.00296018129054e-015 -1.0
outer loop
vertex 35.1 1.80000000000004 10.2
vertex 34.05 3.00000000000006 10.2
vertex 34.05 8.70000000000006 10.2
endloop
endfacet
facet normal 3.53015945385043e-015 3.00296018129054e-015 -1.0
outer loop
vertex 36.05 3.38395977905748e-014 10.2
vertex 35.1 1.80000000000004 10.2
vertex 36.05 1.80000000000003 10.2
endloop
endfacet
facet normal 0.0 3.91662011464987e-015 -1.0
outer loop
vertex 1.25 1.80000000000005 10.2
vertex 0.0 5.6399329650958e-014 10.2
vertex 0.0 1.80000000000005 10.2
endloop
endfacet
facet normal 0.0 3.91662011464987e-015 -1.0
outer loop
vertex 0.0 5.6399329650958e-014 10.2
vertex 1.25 1.80000000000005 10.2
vertex 1.25 5.6399329650958e-014 10.2
endloop
endfacet
facet normal 4.22594776879563e-016 1.0 2.56360589322535e-015
outer loop
vertex 0.0 1.80000000000002 19.3000000000001
vertex 2.2 1.80000000000002 17.1000000000001
vertex 0.0 1.80000000000002 17.1000000000001
endloop
endfacet
facet normal 4.22594776879563e-016 1.0 2.56360589322535e-015
outer loop
vertex 2.2 1.80000000000002 17.1000000000001
vertex 0.0 1.80000000000002 19.3000000000001
vertex 4.85 1.80000000000004 17.1000000000001
endloop
endfacet
facet normal 4.22594776879563e-016 1.0 2.56360589322535e-015
outer loop
vertex 4.85 1.80000000000004 17.1000000000001
vertex 0.0 1.80000000000002 19.3000000000001
vertex 32.45 1.80000000000003 17.1000000000001
endloop
endfacet
facet normal 4.22594776879563e-016 1.0 2.56360589322535e-015
outer loop
vertex 32.45 1.80000000000003 17.1000000000001
vertex 0.0 1.80000000000002 19.3000000000001
vertex 35.1 1.80000000000001 17.1000000000001
endloop
endfacet
facet normal 4.22594776879563e-016 1.0 2.56360589322535e-015
outer loop
vertex 35.1 1.80000000000001 17.1000000000001
vertex 0.0 1.80000000000002 19.3000000000001
vertex 37.3 1.80000000000001 17.1000000000001
endloop
endfacet
facet normal 4.22594776879563e-016 1.0 2.56360589322535e-015
outer loop
vertex 37.3 1.80000000000001 17.1000000000001
vertex 0.0 1.80000000000002 19.3000000000001
vertex 37.3 1.8 19.3000000000001
endloop
endfacet
facet normal 1.0 0.0 0.0
outer loop
vertex 37.3 3.38395977905748e-014 10.2
vertex 37.3 1.8 19.3000000000001
vertex 37.3 0.0 19.3000000000001
endloop
endfacet
facet normal 1.0 0.0 0.0
outer loop
vertex 37.3 1.8 19.3000000000001
vertex 37.3 3.38395977905748e-014 10.2
vertex 37.3 1.80000000000003 10.2
endloop
endfacet
facet normal 1.0 0.0 0.0
outer loop
vertex 37.3 1.8 19.3000000000001
vertex 37.3 1.80000000000003 10.2
vertex 37.3 1.80000000000001 17.1000000000001
endloop
endfacet
facet normal 1.51204637133933e-016 -3.98954217083848e-015 1.0
outer loop
vertex 37.3 0.0 19.3000000000001
vertex 0.0 1.80000000000002 19.3000000000001
vertex 0.0 2.25597318603832e-014 19.3000000000001
endloop
endfacet
facet normal 1.51204637133933e-016 -3.98954217083848e-015 1.0
outer loop
vertex 0.0 1.80000000000002 19.3000000000001
vertex 37.3 0.0 19.3000000000001
vertex 37.3 1.8 19.3000000000001
endloop
endfacet
facet normal -1.45900583741096e-015 -1.55627289323832e-016 1.0
outer loop
vertex 4.85 5.6399329650958e-014 10.2
vertex 3.35000000000001 3.00000000000006 10.2
vertex 3.35000000000001 5.6399329650958e-014 10.2
endloop
endfacet
facet normal -1.45900583741096e-015 -1.55627289323832e-016 1.0
outer loop
vertex 3.35000000000001 3.00000000000006 10.2
vertex 4.85 5.6399329650958e-014 10.2
vertex 4.85 3.00000000000006 10.2
endloop
endfacet
facet normal -1.45900583741096e-015 -1.55627289323832e-016 1.0
outer loop
vertex 4.85 3.00000000000006 10.2
vertex 4.85 5.6399329650958e-014 10.2
vertex 4.85 1.80000000000005 10.2
endloop
endfacet
facet normal 0.284797771775347 3.70590755584738e-015 -0.958587622073119
outer loop
vertex 18.65 1.80000000000003 14.3
vertex 6.35 1.50000000000006 10.645652173913
vertex 6.05000000000001 1.80000000000005 10.5565217391304
endloop
endfacet
facet normal 0.284797771775347 3.70590755584738e-015 -0.958587622073119
outer loop
vertex 6.35 1.50000000000006 10.645652173913
vertex 18.65 3.38395977905748e-014 14.3
vertex 4.85 5.6399329650958e-014 10.2
endloop
endfacet
facet normal 0.284797771775347 3.70590755584738e-015 -0.958587622073119
outer loop
vertex 18.65 3.38395977905748e-014 14.3
vertex 6.35 1.50000000000006 10.645652173913
vertex 18.65 1.80000000000003 14.3
endloop
endfacet
facet normal -1.0 5.6648333313876e-015 4.45680469136099e-016
outer loop
vertex 32.45 8.70000000000006 10.2
vertex 32.45 1.80000000000005 10.5565217391304
vertex 32.45 1.80000000000003 17.1000000000001
endloop
endfacet
facet normal -1.0 5.6648333313876e-015 4.45680469136099e-016
outer loop
vertex 32.45 1.80000000000005 10.5565217391304
vertex 32.45 8.70000000000006 10.2
vertex 32.45 3.00000000000006 10.2
endloop
endfacet
facet normal 1.4422777206716e-016 1.0 2.80325374386564e-015
outer loop
vertex 4.85 1.80000000000004 17.1000000000001
vertex 6.05000000000001 1.80000000000005 10.5565217391304
vertex 4.85 1.80000000000005 10.5565217391304
endloop
endfacet
facet normal 1.4422777206716e-016 1.0 2.80325374386564e-015
outer loop
vertex 6.05000000000001 1.80000000000005 10.5565217391304
vertex 4.85 1.80000000000004 17.1000000000001
vertex 18.65 1.80000000000003 14.3
endloop
endfacet
facet normal 1.4422777206716e-016 1.0 2.80325374386564e-015
outer loop
vertex 18.65 1.80000000000003 14.3
vertex 32.45 1.80000000000005 10.5565217391304
vertex 31.25 1.80000000000005 10.5565217391304
endloop
endfacet
facet normal 1.4422777206716e-016 1.0 2.80325374386564e-015
outer loop
vertex 32.45 1.80000000000005 10.5565217391304
vertex 18.65 1.80000000000003 14.3
vertex 32.45 1.80000000000003 17.1000000000001
endloop
endfacet
facet normal 1.4422777206716e-016 1.0 2.80325374386564e-015
outer loop
vertex 32.45 1.80000000000003 17.1000000000001
vertex 18.65 1.80000000000003 14.3
vertex 4.85 1.80000000000004 17.1000000000001
endloop
endfacet
facet normal 1.0 3.48605128085391e-015 2.7426490408375e-016
outer loop
vertex 4.85 1.80000000000005 10.5565217391304
vertex 4.84999999999998 8.70000000000005 10.2000000000001
vertex 4.85 1.80000000000004 17.1000000000001
endloop
endfacet
facet normal 1.0 3.48605128085391e-015 2.7426490408375e-016
outer loop
vertex 4.84999999999998 8.70000000000005 10.2000000000001
vertex 4.85 1.80000000000005 10.5565217391304
vertex 4.85 3.00000000000006 10.2
endloop
endfacet
facet normal -8.04683148272455e-032 4.45257865665458e-015 -1.0
outer loop
vertex 32.45 8.70000000000006 10.2
vertex 33.95 3.00000000000006 10.2
vertex 32.45 3.00000000000006 10.2
endloop
endfacet
facet normal -8.04683148272455e-032 4.45257865665458e-015 -1.0
outer loop
vertex 33.95 3.00000000000006 10.2
vertex 32.45 8.70000000000006 10.2
vertex 34.05 8.70000000000006 10.2
endloop
endfacet
facet normal -8.04683148272455e-032 4.45257865665458e-015 -1.0
outer loop
vertex 33.95 3.00000000000006 10.2
vertex 34.05 8.70000000000006 10.2
vertex 34.05 3.00000000000006 10.2
endloop
endfacet
facet normal -0.0 -0.0 -1.0
outer loop
vertex 4.85 3.00000000000006 0.0
vertex 3.35000000000001 5.6399329650958e-014 0.0
vertex 3.35000000000001 3.00000000000006 0.0
endloop
endfacet
facet normal -0.0 -0.0 -1.0
outer loop
vertex 3.35000000000001 5.6399329650958e-014 0.0
vertex 4.85 3.00000000000006 0.0
vertex 4.85 5.6399329650958e-014 0.0
endloop
endfacet
facet normal 0.284797771775346 3.69537075215778e-015 -0.95858762207312
outer loop
vertex 6.05000000000001 1.80000000000005 10.5565217391304
vertex 4.85 5.6399329650958e-014 10.2
vertex 4.85 1.80000000000005 10.2
endloop
endfacet
facet normal 0.284797771775346 3.69537075215778e-015 -0.95858762207312
outer loop
vertex 4.85 5.6399329650958e-014 10.2
vertex 6.05000000000001 1.80000000000005 10.5565217391304
vertex 6.35 1.50000000000006 10.645652173913
endloop
endfacet
facet normal 1.0 -5.31298032943807e-015 -2.63118827208075e-029
outer loop
vertex 35.1 8.70000000000004 10.2
vertex 35.1 1.80000000000001 17.1000000000001
vertex 35.1 1.80000000000004 10.2
endloop
endfacet
facet normal -0.284797771775347 3.47620254205519e-015 -0.958587622073119
outer loop
vertex 31.25 1.80000000000005 10.5565217391304
vertex 18.65 3.38395977905748e-014 14.3
vertex 18.65 1.80000000000003 14.3
endloop
endfacet
facet normal -0.284797771775347 3.47620254205519e-015 -0.958587622073119
outer loop
vertex 18.65 3.38395977905748e-014 14.3
vertex 31.25 1.80000000000005 10.5565217391304
vertex 30.95 1.50000000000006 10.645652173913
endloop
endfacet
facet normal -0.284797771775347 3.47620254205519e-015 -0.958587622073119
outer loop
vertex 32.45 5.6399329650958e-014 10.2
vertex 18.65 3.38395977905748e-014 14.3
vertex 30.95 1.50000000000006 10.645652173913
endloop
endfacet
facet normal -0.707106781186547 0.707106781186548 -9.41723073136368e-017
outer loop
vertex 30.95 1.50000000000006 10.2
vertex 32.45 3.00000000000006 0.0
vertex 30.95 1.50000000000006 0.0
endloop
endfacet
facet normal -0.707106781186547 0.707106781186548 -9.41723073136368e-017
outer loop
vertex 32.45 3.00000000000006 0.0
vertex 30.95 1.50000000000006 10.2
vertex 32.45 3.00000000000006 10.2
endloop
endfacet
facet normal -0.707106781186547 0.707106781186548 -9.41723073136368e-017
outer loop
vertex 32.45 3.00000000000006 10.2
vertex 30.95 1.50000000000006 10.2
vertex 30.95 1.50000000000006 10.645652173913
endloop
endfacet
facet normal -0.707106781186547 0.707106781186548 -9.41723073136368e-017
outer loop
vertex 32.45 3.00000000000006 10.2
vertex 30.95 1.50000000000006 10.645652173913
vertex 31.25 1.80000000000005 10.5565217391304
endloop
endfacet
facet normal -4.32683382163092e-016 -1.0 -3.98954217083848e-015
outer loop
vertex 37.3 0.0 19.3000000000001
vertex 36.05 3.38395977905748e-014 10.2
vertex 37.3 3.38395977905748e-014 10.2
endloop
endfacet
facet normal -4.32683382163092e-016 -1.0 -3.98954217083848e-015
outer loop
vertex 36.05 3.38395977905748e-014 10.2
vertex 37.3 0.0 19.3000000000001
vertex 18.65 3.38395977905748e-014 14.3
endloop
endfacet
facet normal -4.32683382163092e-016 -1.0 -3.98954217083848e-015
outer loop
vertex 18.65 3.38395977905748e-014 14.3
vertex 3.35000000000001 5.6399329650958e-014 10.2
vertex 4.85 5.6399329650958e-014 10.2
endloop
endfacet
facet normal -4.32683382163092e-016 -1.0 -3.98954217083848e-015
outer loop
vertex 3.35000000000001 5.6399329650958e-014 10.2
vertex 18.65 3.38395977905748e-014 14.3
vertex 1.25 5.6399329650958e-014 10.2
endloop
endfacet
facet normal -4.32683382163092e-016 -1.0 -3.98954217083848e-015
outer loop
vertex 1.25 5.6399329650958e-014 10.2
vertex 18.65 3.38395977905748e-014 14.3
vertex 0.0 5.6399329650958e-014 10.2
endloop
endfacet
facet normal -4.32683382163092e-016 -1.0 -3.98954217083848e-015
outer loop
vertex 0.0 5.6399329650958e-014 10.2
vertex 18.65 3.38395977905748e-014 14.3
vertex 0.0 2.25597318603832e-014 19.3000000000001
endloop
endfacet
facet normal -4.32683382163092e-016 -1.0 -3.98954217083848e-015
outer loop
vertex 0.0 2.25597318603832e-014 19.3000000000001
vertex 18.65 3.38395977905748e-014 14.3
vertex 37.3 0.0 19.3000000000001
endloop
endfacet
facet normal -4.32683382163092e-016 -1.0 -3.98954217083848e-015
outer loop
vertex 36.05 3.38395977905748e-014 10.2
vertex 32.45 5.6399329650958e-014 10.2
vertex 33.95 5.6399329650958e-014 10.2
endloop
endfacet
facet normal -4.32683382163092e-016 -1.0 -3.98954217083848e-015
outer loop
vertex 32.45 5.6399329650958e-014 10.2
vertex 36.05 3.38395977905748e-014 10.2
vertex 18.65 3.38395977905748e-014 14.3
endloop
endfacet
facet normal 0.284797771775346 -5.65346884311353e-015 -0.95858762207312
outer loop
vertex 6.05000000000001 1.80000000000005 10.5565217391304
vertex 4.85 1.80000000000005 10.2
vertex 4.85 3.00000000000006 10.2
endloop
endfacet
facet normal -1.12798659301916e-015 3.91662011464987e-015 -1.0
outer loop
vertex 37.3 1.80000000000003 10.2
vertex 36.05 3.38395977905748e-014 10.2
vertex 36.05 1.80000000000003 10.2
endloop
endfacet
facet normal -1.12798659301916e-015 3.91662011464987e-015 -1.0
outer loop
vertex 36.05 3.38395977905748e-014 10.2
vertex 37.3 1.80000000000003 10.2
vertex 37.3 3.38395977905748e-014 10.2
endloop
endfacet
facet normal 1.45900583741095e-015 -1.55627289323832e-016 1.0
outer loop
vertex 33.95 5.6399329650958e-014 10.2
vertex 32.45 1.80000000000005 10.2
vertex 32.45 5.6399329650958e-014 10.2
endloop
endfacet
facet normal 1.45900583741095e-015 -1.55627289323832e-016 1.0
outer loop
vertex 32.45 1.80000000000005 10.2
vertex 33.95 5.6399329650958e-014 10.2
vertex 32.45 3.00000000000006 10.2
endloop
endfacet
facet normal 1.45900583741095e-015 -1.55627289323832e-016 1.0
outer loop
vertex 32.45 3.00000000000006 10.2
vertex 33.95 5.6399329650958e-014 10.2
vertex 33.95 3.00000000000006 10.2
endloop
endfacet
facet normal 1.0 0.0 0.0
outer loop
vertex 4.85 3.00000000000006 0.0
vertex 4.85 5.6399329650958e-014 10.2
vertex 4.85 5.6399329650958e-014 0.0
endloop
endfacet
facet normal 1.0 0.0 0.0
outer loop
vertex 4.85 5.6399329650958e-014 10.2
vertex 4.85 3.00000000000006 0.0
vertex 4.85 1.80000000000005 10.2
endloop
endfacet
facet normal 1.0 0.0 0.0
outer loop
vertex 4.85 1.80000000000005 10.2
vertex 4.85 3.00000000000006 0.0
vertex 4.85 3.00000000000006 10.2
endloop
endfacet
facet normal -0.0 -0.0 -1.0
outer loop
vertex 33.95 3.00000000000006 0.0
vertex 32.45 5.6399329650958e-014 0.0
vertex 32.45 3.00000000000006 0.0
endloop
endfacet
facet normal -0.0 -0.0 -1.0
outer loop
vertex 32.45 5.6399329650958e-014 0.0
vertex 33.95 3.00000000000006 0.0
vertex 33.95 5.6399329650958e-014 0.0
endloop
endfacet
facet normal -0.70710678118655 -0.707106781186545 0.0
outer loop
vertex 30.95 1.50000000000006 10.2
vertex 32.45 5.6399329650958e-014 10.2
vertex 30.95 1.50000000000006 10.645652173913
endloop
endfacet
facet normal 0.0 -1.0 0.0
outer loop
vertex 33.95 5.6399329650958e-014 10.2
vertex 32.45 5.6399329650958e-014 0.0
vertex 33.95 5.6399329650958e-014 0.0
endloop
endfacet
facet normal 0.0 -1.0 0.0
outer loop
vertex 32.45 5.6399329650958e-014 0.0
vertex 33.95 5.6399329650958e-014 10.2
vertex 32.45 5.6399329650958e-014 10.2
endloop
endfacet
facet normal -1.0 0.0 0.0
outer loop
vertex 32.45 1.80000000000005 10.2
vertex 32.45 5.6399329650958e-014 0.0
vertex 32.45 5.6399329650958e-014 10.2
endloop
endfacet
facet normal -1.0 0.0 0.0
outer loop
vertex 32.45 5.6399329650958e-014 0.0
vertex 32.45 1.80000000000005 10.2
vertex 32.45 3.00000000000006 0.0
endloop
endfacet
facet normal -1.0 0.0 0.0
outer loop
vertex 32.45 3.00000000000006 0.0
vertex 32.45 1.80000000000005 10.2
vertex 32.45 3.00000000000006 10.2
endloop
endfacet
facet normal 0.0 1.0 0.0
outer loop
vertex 32.45 3.00000000000006 10.2
vertex 33.95 3.00000000000006 0.0
vertex 32.45 3.00000000000006 0.0
endloop
endfacet
facet normal 0.0 1.0 0.0
outer loop
vertex 33.95 3.00000000000006 0.0
vertex 32.45 3.00000000000006 10.2
vertex 33.95 3.00000000000006 10.2
endloop
endfacet
facet normal -0.70710678118655 -0.707106781186545 3.80322791506149e-018
outer loop
vertex 30.95 1.50000000000006 10.2
vertex 32.45 5.6399329650958e-014 0.0
vertex 32.45 5.6399329650958e-014 10.2
endloop
endfacet
facet normal -0.70710678118655 -0.707106781186545 3.80322791506149e-018
outer loop
vertex 32.45 5.6399329650958e-014 0.0
vertex 30.95 1.50000000000006 10.2
vertex 30.95 1.50000000000006 0.0
endloop
endfacet
facet normal 0.707106781186548 0.707106781186548 0.0
outer loop
vertex 4.85 3.00000000000006 0.0
vertex 6.35 1.50000000000006 10.645652173913
vertex 6.35 1.50000000000006 0.0
endloop
endfacet
facet normal 0.707106781186548 0.707106781186548 0.0
outer loop
vertex 6.35 1.50000000000006 10.645652173913
vertex 4.85 3.00000000000006 0.0
vertex 6.05000000000001 1.80000000000005 10.5565217391304
endloop
endfacet
facet normal 0.707106781186548 0.707106781186548 0.0
outer loop
vertex 6.05000000000001 1.80000000000005 10.5565217391304
vertex 4.85 3.00000000000006 0.0
vertex 4.85 3.00000000000006 10.2
endloop
endfacet
facet normal 2.4395178633782e-015 1.0 3.7967697503301e-015
outer loop
vertex 35.1 1.80000000000001 17.1000000000001
vertex 36.05 1.80000000000003 10.2
vertex 35.1 1.80000000000004 10.2
endloop
endfacet
facet normal 2.4395178633782e-015 1.0 3.7967697503301e-015
outer loop
vertex 36.05 1.80000000000003 10.2
vertex 37.3 1.80000000000001 17.1000000000001
vertex 37.3 1.80000000000003 10.2
endloop
endfacet
facet normal 2.4395178633782e-015 1.0 3.7967697503301e-015
outer loop
vertex 37.3 1.80000000000001 17.1000000000001
vertex 36.05 1.80000000000003 10.2
vertex 35.1 1.80000000000001 17.1000000000001
endloop
endfacet
facet normal 0.0 0.0 -1.0
outer loop
vertex 6.35 1.50000000000006 0.0
vertex 4.85 5.6399329650958e-014 0.0
vertex 4.85 3.00000000000006 0.0
endloop
endfacet
facet normal -0.284797771775346 3.48570432650343e-015 -0.95858762207312
outer loop
vertex 31.25 1.80000000000005 10.5565217391304
vertex 32.45 5.6399329650958e-014 10.2
vertex 30.95 1.50000000000006 10.645652173913
endloop
endfacet
facet normal -0.284797771775346 3.48570432650343e-015 -0.95858762207312
outer loop
vertex 32.45 5.6399329650958e-014 10.2
vertex 31.25 1.80000000000005 10.5565217391304
vertex 32.45 1.80000000000005 10.2
endloop
endfacet
facet normal 0.0 0.0 -1.0
outer loop
vertex 32.45 5.6399329650958e-014 0.0
vertex 30.95 1.50000000000006 0.0
vertex 32.45 3.00000000000006 0.0
endloop
endfacet
facet normal 0.70710678118655 -0.707106781186545 0.0
outer loop
vertex 6.35 1.50000000000006 0.0
vertex 4.85 5.6399329650958e-014 10.2
vertex 4.85 5.6399329650958e-014 0.0
endloop
endfacet
facet normal 0.70710678118655 -0.707106781186545 0.0
outer loop
vertex 4.85 5.6399329650958e-014 10.2
vertex 6.35 1.50000000000006 0.0
vertex 6.35 1.50000000000006 10.645652173913
endloop
endfacet
facet normal 2.16754415747825e-031 1.0 4.90428953486583e-015
outer loop
vertex 0.0 1.80000000000002 17.1000000000001
vertex 1.25 1.80000000000005 10.2
vertex 0.0 1.80000000000005 10.2
endloop
endfacet
facet normal 2.16754415747825e-031 1.0 4.90428953486583e-015
outer loop
vertex 1.25 1.80000000000005 10.2
vertex 0.0 1.80000000000002 17.1000000000001
vertex 2.2 1.80000000000005 10.2
endloop
endfacet
facet normal 2.16754415747825e-031 1.0 4.90428953486583e-015
outer loop
vertex 2.2 1.80000000000005 10.2
vertex 0.0 1.80000000000002 17.1000000000001
vertex 2.2 1.80000000000002 17.1000000000001
endloop
endfacet
facet normal -0.284797771775345 -5.62290955206962e-015 -0.95858762207312
outer loop
vertex 32.45 1.80000000000005 10.2
vertex 31.25 1.80000000000005 10.5565217391304
vertex 32.45 3.00000000000006 10.2
endloop
endfacet
facet normal -1.77379589022718e-014 1.09783160574089e-014 -1.0
outer loop
vertex 3.24999999999998 8.70000000000006 10.2
vertex 2.2 1.80000000000005 10.2
vertex 2.19999999999997 8.70000000000003 10.2000000000001
endloop
endfacet
facet normal -1.77379589022718e-014 1.09783160574089e-014 -1.0
outer loop
vertex 2.2 1.80000000000005 10.2
vertex 1.25 5.6399329650958e-014 10.2
vertex 1.25 1.80000000000005 10.2
endloop
endfacet
facet normal -1.77379589022718e-014 1.09783160574089e-014 -1.0
outer loop
vertex 1.25 5.6399329650958e-014 10.2
vertex 2.2 1.80000000000005 10.2
vertex 3.35000000000001 5.6399329650958e-014 10.2
endloop
endfacet
facet normal -1.77379589022718e-014 1.09783160574089e-014 -1.0
outer loop
vertex 3.35000000000001 5.6399329650958e-014 10.2
vertex 2.2 1.80000000000005 10.2
vertex 3.25000000000001 3.00000000000006 10.2
endloop
endfacet
facet normal -1.77379589022718e-014 1.09783160574089e-014 -1.0
outer loop
vertex 3.25000000000001 3.00000000000006 10.2
vertex 2.2 1.80000000000005 10.2
vertex 3.24999999999998 8.70000000000006 10.2
endloop
endfacet
facet normal -1.77379589022718e-014 1.09783160574089e-014 -1.0
outer loop
vertex 3.35000000000001 5.6399329650958e-014 10.2
vertex 3.25000000000001 3.00000000000006 10.2
vertex 3.35000000000001 3.00000000000006 10.2
endloop
endfacet
facet normal 0.0 1.0 0.0
outer loop
vertex 3.35000000000001 3.00000000000006 10.2
vertex 4.85 3.00000000000006 0.0
vertex 3.35000000000001 3.00000000000006 0.0
endloop
endfacet
facet normal 0.0 1.0 0.0
outer loop
vertex 4.85 3.00000000000006 0.0
vertex 3.35000000000001 3.00000000000006 10.2
vertex 4.85 3.00000000000006 10.2
endloop
endfacet
facet normal 5.45867599833341e-015 0.70710678118655 0.707106781186545
outer loop
vertex 32.45 1.80000000000003 17.1000000000001
vertex 34.05 8.70000000000006 10.2
vertex 32.45 8.70000000000006 10.2
endloop
endfacet
facet normal 5.45867599833341e-015 0.70710678118655 0.707106781186545
outer loop
vertex 34.05 8.70000000000006 10.2
vertex 32.45 1.80000000000003 17.1000000000001
vertex 35.1 8.70000000000004 10.2
endloop
endfacet
facet normal 5.45867599833341e-015 0.70710678118655 0.707106781186545
outer loop
vertex 35.1 8.70000000000004 10.2
vertex 32.45 1.80000000000003 17.1000000000001
vertex 35.1 1.80000000000001 17.1000000000001
endloop
endfacet
facet normal 0.0 -1.0 0.0
outer loop
vertex 4.85 5.6399329650958e-014 10.2
vertex 3.35000000000001 5.6399329650958e-014 0.0
vertex 4.85 5.6399329650958e-014 0.0
endloop
endfacet
facet normal 0.0 -1.0 0.0
outer loop
vertex 3.35000000000001 5.6399329650958e-014 0.0
vertex 4.85 5.6399329650958e-014 10.2
vertex 3.35000000000001 5.6399329650958e-014 10.2
endloop
endfacet
facet normal -1.0 0.0 0.0
outer loop
vertex 32.45 3.00000000000006 10.2
vertex 32.45 1.80000000000005 10.2
vertex 32.45 1.80000000000005 10.5565217391304
endloop
endfacet
facet normal 0.0 1.0 0.0
outer loop
vertex 6.05000000000001 1.80000000000005 10.5565217391304
vertex 4.85 1.80000000000005 10.2
vertex 4.85 1.80000000000005 10.5565217391304
endloop
endfacet
facet normal -1.0 0.0 0.0
outer loop
vertex 3.35000000000001 3.00000000000006 10.2
vertex 3.35000000000001 5.6399329650958e-014 0.0
vertex 3.35000000000001 5.6399329650958e-014 10.2
endloop
endfacet
facet normal -1.0 0.0 0.0
outer loop
vertex 3.35000000000001 5.6399329650958e-014 0.0
vertex 3.35000000000001 3.00000000000006 10.2
vertex 3.35000000000001 3.00000000000006 0.0
endloop
endfacet
facet normal 0.0 1.0 0.0
outer loop
vertex 32.45 1.80000000000005 10.5565217391304
vertex 32.45 1.80000000000005 10.2
vertex 31.25 1.80000000000005 10.5565217391304
endloop
endfacet
facet normal 1.0 0.0 0.0
outer loop
vertex 33.95 3.00000000000006 0.0
vertex 33.95 5.6399329650958e-014 10.2
vertex 33.95 5.6399329650958e-014 0.0
endloop
endfacet
facet normal 1.0 0.0 0.0
outer loop
vertex 33.95 5.6399329650958e-014 10.2
vertex 33.95 3.00000000000006 0.0
vertex 33.95 3.00000000000006 10.2
endloop
endfacet
facet normal -1.0 -3.26952635657728e-015 -1.61266377966241e-029
outer loop
vertex 2.19999999999997 8.70000000000003 10.2000000000001
vertex 2.2 1.80000000000005 10.2
vertex 2.2 1.80000000000002 17.1000000000001
endloop
endfacet
facet normal 3.81136094906865e-014 1.40379910425083e-014 -1.0
outer loop
vertex 4.84999999999998 8.70000000000005 10.2000000000001
vertex 3.25000000000001 3.00000000000006 10.2
vertex 3.24999999999998 8.70000000000006 10.2
endloop
endfacet
facet normal 3.81136094906865e-014 1.40379910425083e-014 -1.0
outer loop
vertex 3.25000000000001 3.00000000000006 10.2
vertex 4.84999999999998 8.70000000000005 10.2000000000001
vertex 3.35000000000001 3.00000000000006 10.2
endloop
endfacet
facet normal 3.81136094906865e-014 1.40379910425083e-014 -1.0
outer loop
vertex 3.35000000000001 3.00000000000006 10.2
vertex 4.84999999999998 8.70000000000005 10.2000000000001
vertex 4.85 3.00000000000006 10.2
endloop
endfacet
facet normal 3.05592910438566e-017 -0.284797771775352 -0.958587622073118
outer loop
vertex 32.45 1.80000000000005 10.5565217391304
vertex 31.25 1.80000000000005 10.5565217391304
vertex 32.45 3.00000000000006 10.2
endloop
endfacet
facet normal 1.0 0.0 0.0
outer loop
vertex 4.85 3.00000000000006 10.2
vertex 4.85 1.80000000000005 10.5565217391304
vertex 4.85 1.80000000000005 10.2
endloop
endfacet
facet normal -3.05592910438569e-017 -0.284797771775351 -0.958587622073118
outer loop
vertex 6.05000000000001 1.80000000000005 10.5565217391304
vertex 4.85 1.80000000000005 10.5565217391304
vertex 4.85 3.00000000000006 10.2
endloop
endfacet
facet normal -7.98565801564519e-015 0.707106781186547 0.707106781186548
outer loop
vertex 2.2 1.80000000000002 17.1000000000001
vertex 3.24999999999998 8.70000000000006 10.2
vertex 2.19999999999997 8.70000000000003 10.2000000000001
endloop
endfacet
facet normal -7.98565801564519e-015 0.707106781186547 0.707106781186548
outer loop
vertex 3.24999999999998 8.70000000000006 10.2
vertex 2.2 1.80000000000002 17.1000000000001
vertex 4.85 1.80000000000004 17.1000000000001
endloop
endfacet
facet normal -7.98565801564519e-015 0.707106781186547 0.707106781186548
outer loop
vertex 3.24999999999998 8.70000000000006 10.2
vertex 4.85 1.80000000000004 17.1000000000001
vertex 4.84999999999998 8.70000000000005 10.2000000000001
endloop
endfacet
endsolid keyboard-slide-stopper
