solid keyboard-support-pad
facet normal -0.0 -0.0 1.0
outer loop
vertex -0.0999999999999951 38.4699999999995 20.9
vertex 2.88717720036823 45.8100000000017 20.9
vertex -0.0999999999999952 45.8100000000017 20.9
endloop
endfacet
facet normal -0.0 -0.0 1.0
outer loop
vertex 2.88717720036823 45.8100000000017 20.9
vertex -0.0999999999999951 38.4699999999995 20.9
vertex 2.88717720036823 38.4699999999995 20.9
endloop
endfacet
facet normal -0.0 1.0 -0.0
outer loop
vertex -0.0999999999999952 45.8100000000017 3.0
vertex 4.88717720036823 45.8100000000017 8.0
vertex 7.88717720036823 45.8100000000017 3.0
endloop
endfacet
facet normal -0.0 1.0 -0.0
outer loop
vertex 4.88717720036823 45.8100000000017 8.0
vertex -0.0999999999999952 45.8100000000017 3.0
vertex -0.0999999999999952 45.8100000000017 20.9
endloop
endfacet
facet normal -0.0 1.0 -0.0
outer loop
vertex 4.88717720036823 45.8100000000017 8.0
vertex -0.0999999999999952 45.8100000000017 20.9
vertex 2.88717720036823 45.8100000000017 16.9
endloop
endfacet
facet normal -0.0 1.0 -0.0
outer loop
vertex 2.88717720036823 45.8100000000017 16.9
vertex -0.0999999999999952 45.8100000000017 20.9
vertex 2.88717720036823 45.8100000000017 20.9
endloop
endfacet
facet normal 0.975668414321671 -5.06696405645021e-017 0.21925132906105
outer loop
vertex 4.88717720036823 45.8100000000017 8.0
vertex 2.88717720036823 38.4699999999995 16.9
vertex 4.88717720036823 38.4699999999995 8.0
endloop
endfacet
facet normal 0.975668414321671 -5.06696405645021e-017 0.21925132906105
outer loop
vertex 2.88717720036823 38.4699999999995 16.9
vertex 4.88717720036823 45.8100000000017 8.0
vertex 2.88717720036823 45.8100000000017 16.9
endloop
endfacet
facet normal 0.0 -1.0 0.0
outer loop
vertex 4.88717720036823 38.4699999999995 8.0
vertex -0.0999999999999951 38.4699999999995 3.0
vertex 7.88717720036823 38.4699999999995 3.0
endloop
endfacet
facet normal 0.0 -1.0 0.0
outer loop
vertex -0.0999999999999951 38.4699999999995 3.0
vertex 4.88717720036823 38.4699999999995 8.0
vertex -0.0999999999999951 38.4699999999995 20.9
endloop
endfacet
facet normal 0.0 -1.0 0.0
outer loop
vertex -0.0999999999999951 38.4699999999995 20.9
vertex 4.88717720036823 38.4699999999995 8.0
vertex 2.88717720036823 38.4699999999995 16.9
endloop
endfacet
facet normal 0.0 -1.0 0.0
outer loop
vertex -0.0999999999999951 38.4699999999995 20.9
vertex 2.88717720036823 38.4699999999995 16.9
vertex 2.88717720036823 38.4699999999995 20.9
endloop
endfacet
facet normal -1.0 7.6519483072723e-017 -1.96787061289892e-016
outer loop
vertex -0.100000000000007 15.5300000000005 20.9
vertex -0.0999999999999984 15.5300000000005 3.0
vertex -0.100000000000008 8.18999999999845 20.9
endloop
endfacet
facet normal -1.0 7.6519483072723e-017 -1.96787061289892e-016
outer loop
vertex -0.100000000000006 30.6700000000011 20.9
vertex -0.0999999999999968 30.6700000000011 3.0
vertex -0.100000000000006 23.3299999999989 20.9
endloop
endfacet
facet normal -1.0 7.6519483072723e-017 -1.96787061289892e-016
outer loop
vertex -0.0999999999999944 54.0 3.0
vertex -0.0999999999999993 45.8100000000017 1.5
vertex -0.0999999999999952 45.8100000000017 3.0
endloop
endfacet
facet normal -1.0 7.6519483072723e-017 -1.96787061289892e-016
outer loop
vertex -0.0999999999999993 45.8100000000017 1.5
vertex -0.0999999999999944 54.0 3.0
vertex -0.100000000000002 54.0 1.5
endloop
endfacet
facet normal -1.0 7.6519483072723e-017 -1.96787061289892e-016
outer loop
vertex -0.0999999999999952 45.8100000000017 20.9
vertex -0.0999999999999951 38.4699999999995 3.0
vertex -0.0999999999999951 38.4699999999995 20.9
endloop
endfacet
facet normal -1.0 7.6519483072723e-017 -1.96787061289892e-016
outer loop
vertex -0.0999999999999951 38.4699999999995 3.0
vertex -0.0999999999999952 45.8100000000017 20.9
vertex -0.0999999999999988 38.4699999999996 1.5
endloop
endfacet
facet normal -1.0 7.6519483072723e-017 -1.96787061289892e-016
outer loop
vertex -0.0999999999999988 38.4699999999996 1.5
vertex -0.0999999999999952 45.8100000000017 20.9
vertex -0.1 38.4699999999996 0.0
endloop
endfacet
facet normal -1.0 7.6519483072723e-017 -1.96787061289892e-016
outer loop
vertex -0.1 38.4699999999996 0.0
vertex -0.0999999999999952 45.8100000000017 20.9
vertex -0.0999999999999952 45.8100000000017 3.0
endloop
endfacet
facet normal -1.0 7.6519483072723e-017 -1.96787061289892e-016
outer loop
vertex -0.1 38.4699999999996 0.0
vertex -0.0999999999999952 45.8100000000017 3.0
vertex -0.100000000000002 45.8100000000017 0.0
endloop
endfacet
facet normal -1.0 7.6519483072723e-017 -1.96787061289892e-016
outer loop
vertex -0.100000000000002 45.8100000000017 0.0
vertex -0.0999999999999952 45.8100000000017 3.0
vertex -0.0999999999999993 45.8100000000017 1.5
endloop
endfacet
facet normal -1.0 7.6519483072723e-017 -1.96787061289892e-016
outer loop
vertex -0.0999999999999951 38.4699999999995 3.0
vertex -0.0999999999999992 30.6700000000011 1.5
vertex -0.0999999999999968 30.6700000000011 3.0
endloop
endfacet
facet normal -1.0 7.6519483072723e-017 -1.96787061289892e-016
outer loop
vertex -0.0999999999999992 30.6700000000011 1.5
vertex -0.0999999999999951 38.4699999999995 3.0
vertex -0.0999999999999988 38.4699999999996 1.5
endloop
endfacet
facet normal -1.0 7.6519483072723e-017 -1.96787061289892e-016
outer loop
vertex -0.0999999999999965 23.3299999999989 3.0
vertex -0.0999999999999994 15.5300000000005 1.5
vertex -0.0999999999999984 15.5300000000005 3.0
endloop
endfacet
facet normal -1.0 7.6519483072723e-017 -1.96787061289892e-016
outer loop
vertex -0.0999999999999994 15.5300000000005 1.5
vertex -0.0999999999999965 23.3299999999989 3.0
vertex -0.0999999999999982 23.3299999999989 1.5
endloop
endfacet
facet normal -1.0 7.6519483072723e-017 -1.96787061289892e-016
outer loop
vertex -0.0999999999999982 23.3299999999989 1.5
vertex -0.0999999999999965 23.3299999999989 3.0
vertex -0.100000000000006 23.3299999999989 20.9
endloop
endfacet
facet normal -1.0 7.6519483072723e-017 -1.96787061289892e-016
outer loop
vertex -0.0999999999999982 23.3299999999989 1.5
vertex -0.100000000000006 23.3299999999989 20.9
vertex -0.0999999999999979 23.3299999999989 0.0
endloop
endfacet
facet normal -1.0 7.6519483072723e-017 -1.96787061289892e-016
outer loop
vertex -0.0999999999999979 23.3299999999989 0.0
vertex -0.100000000000006 23.3299999999989 20.9
vertex -0.0999999999999994 30.6700000000011 0.0
endloop
endfacet
facet normal -1.0 7.6519483072723e-017 -1.96787061289892e-016
outer loop
vertex -0.0999999999999994 30.6700000000011 0.0
vertex -0.100000000000006 23.3299999999989 20.9
vertex -0.0999999999999968 30.6700000000011 3.0
endloop
endfacet
facet normal -1.0 7.6519483072723e-017 -1.96787061289892e-016
outer loop
vertex -0.0999999999999994 30.6700000000011 0.0
vertex -0.0999999999999968 30.6700000000011 3.0
vertex -0.0999999999999992 30.6700000000011 1.5
endloop
endfacet
facet normal -1.0 7.6519483072723e-017 -1.96787061289892e-016
outer loop
vertex -0.0999999999999986 8.18999999999845 3.0
vertex -0.1 -5.09435764743912e-017 1.5
vertex -0.1 -5.09435764743912e-017 3.0
endloop
endfacet
facet normal -1.0 7.6519483072723e-017 -1.96787061289892e-016
outer loop
vertex -0.1 -5.09435764743912e-017 1.5
vertex -0.0999999999999986 8.18999999999845 3.0
vertex -0.0999999999999996 8.18999999999845 1.5
endloop
endfacet
facet normal -1.0 7.6519483072723e-017 -1.96787061289892e-016
outer loop
vertex -0.0999999999999996 8.18999999999845 1.5
vertex -0.0999999999999986 8.18999999999845 3.0
vertex -0.100000000000008 8.18999999999845 20.9
endloop
endfacet
facet normal -1.0 7.6519483072723e-017 -1.96787061289892e-016
outer loop
vertex -0.0999999999999996 8.18999999999845 1.5
vertex -0.100000000000008 8.18999999999845 20.9
vertex -0.0999999999999994 8.18999999999845 0.0
endloop
endfacet
facet normal -1.0 7.6519483072723e-017 -1.96787061289892e-016
outer loop
vertex -0.0999999999999994 8.18999999999845 0.0
vertex -0.100000000000008 8.18999999999845 20.9
vertex -0.0999999999999991 15.5300000000005 0.0
endloop
endfacet
facet normal -1.0 7.6519483072723e-017 -1.96787061289892e-016
outer loop
vertex -0.0999999999999991 15.5300000000005 0.0
vertex -0.100000000000008 8.18999999999845 20.9
vertex -0.0999999999999984 15.5300000000005 3.0
endloop
endfacet
facet normal -1.0 7.6519483072723e-017 -1.96787061289892e-016
outer loop
vertex -0.0999999999999991 15.5300000000005 0.0
vertex -0.0999999999999984 15.5300000000005 3.0
vertex -0.0999999999999994 15.5300000000005 1.5
endloop
endfacet
facet normal -0.0 -0.0 1.0
outer loop
vertex -0.100000000000006 23.3299999999989 20.9
vertex 2.88717720036822 30.6700000000011 20.9
vertex -0.100000000000006 30.6700000000011 20.9
endloop
endfacet
facet normal -0.0 -0.0 1.0
outer loop
vertex 2.88717720036822 30.6700000000011 20.9
vertex -0.100000000000006 23.3299999999989 20.9
vertex 2.88717720036822 23.3299999999989 20.9
endloop
endfacet
facet normal -1.09251251016431e-016 -1.0 2.58927431910877e-016
outer loop
vertex 4.88717720036823 23.3299999999989 8.0
vertex -0.0999999999999965 23.3299999999989 3.0
vertex 7.88717720036823 23.3299999999989 3.0
endloop
endfacet
facet normal -1.09251251016431e-016 -1.0 2.58927431910877e-016
outer loop
vertex -0.0999999999999965 23.3299999999989 3.0
vertex 4.88717720036823 23.3299999999989 8.0
vertex -0.100000000000006 23.3299999999989 20.9
endloop
endfacet
facet normal -1.09251251016431e-016 -1.0 2.58927431910877e-016
outer loop
vertex -0.100000000000006 23.3299999999989 20.9
vertex 4.88717720036823 23.3299999999989 8.0
vertex 2.88717720036823 23.3299999999989 16.9
endloop
endfacet
facet normal -1.09251251016431e-016 -1.0 2.58927431910877e-016
outer loop
vertex -0.100000000000006 23.3299999999989 20.9
vertex 2.88717720036823 23.3299999999989 16.9
vertex 2.88717720036822 23.3299999999989 20.9
endloop
endfacet
facet normal 6.48682481878685e-017 1.0 -6.90106151826639e-016
outer loop
vertex -0.0999999999999968 30.6700000000011 3.0
vertex 4.88717720036823 30.6700000000011 8.0
vertex 7.88717720036823 30.6700000000011 3.0
endloop
endfacet
facet normal 6.48682481878685e-017 1.0 -6.90106151826639e-016
outer loop
vertex 4.88717720036823 30.6700000000011 8.0
vertex -0.0999999999999968 30.6700000000011 3.0
vertex -0.100000000000006 30.6700000000011 20.9
endloop
endfacet
facet normal 6.48682481878685e-017 1.0 -6.90106151826639e-016
outer loop
vertex 4.88717720036823 30.6700000000011 8.0
vertex -0.100000000000006 30.6700000000011 20.9
vertex 2.88717720036823 30.6700000000011 16.9
endloop
endfacet
facet normal 6.48682481878685e-017 1.0 -6.90106151826639e-016
outer loop
vertex 2.88717720036823 30.6700000000011 16.9
vertex -0.100000000000006 30.6700000000011 20.9
vertex 2.88717720036822 30.6700000000011 20.9
endloop
endfacet
facet normal 0.975668414321671 -4.83923533481199e-017 0.21925132906105
outer loop
vertex 4.88717720036823 30.6700000000011 8.0
vertex 2.88717720036823 23.3299999999989 16.9
vertex 4.88717720036823 23.3299999999989 8.0
endloop
endfacet
facet normal 0.975668414321671 -4.83923533481199e-017 0.21925132906105
outer loop
vertex 2.88717720036823 23.3299999999989 16.9
vertex 4.88717720036823 30.6700000000011 8.0
vertex 2.88717720036823 30.6700000000011 16.9
endloop
endfacet
facet normal -0.0 -0.0 1.0
outer loop
vertex 2.88717720036822 8.18999999999845 20.9
vertex -0.100000000000007 15.5300000000005 20.9
vertex -0.100000000000008 8.18999999999845 20.9
endloop
endfacet
facet normal -0.0 -0.0 1.0
outer loop
vertex -0.100000000000007 15.5300000000005 20.9
vertex 2.88717720036822 8.18999999999845 20.9
vertex 2.88717720036822 15.5300000000005 20.9
endloop
endfacet
facet normal -7.08426875551824e-017 -1.0 3.01990253912098e-016
outer loop
vertex 4.88717720036823 8.18999999999845 8.0
vertex -0.0999999999999986 8.18999999999845 3.0
vertex 7.88717720036823 8.18999999999845 3.0
endloop
endfacet
facet normal -7.08426875551824e-017 -1.0 3.01990253912098e-016
outer loop
vertex -0.0999999999999986 8.18999999999845 3.0
vertex 4.88717720036823 8.18999999999845 8.0
vertex -0.100000000000008 8.18999999999845 20.9
endloop
endfacet
facet normal -7.08426875551824e-017 -1.0 3.01990253912098e-016
outer loop
vertex -0.100000000000008 8.18999999999845 20.9
vertex 4.88717720036823 8.18999999999845 8.0
vertex 2.88717720036823 8.18999999999845 16.9
endloop
endfacet
facet normal -7.08426875551824e-017 -1.0 3.01990253912098e-016
outer loop
vertex -0.100000000000008 8.18999999999845 20.9
vertex 2.88717720036823 8.18999999999845 16.9
vertex 2.88717720036822 8.18999999999845 20.9
endloop
endfacet
facet normal 3.24341240939342e-017 1.0 -3.4505307591332e-016
outer loop
vertex -0.0999999999999984 15.5300000000005 3.0
vertex 4.88717720036823 15.5300000000005 8.0
vertex 7.88717720036823 15.5300000000005 3.0
endloop
endfacet
facet normal 3.24341240939342e-017 1.0 -3.4505307591332e-016
outer loop
vertex 4.88717720036823 15.5300000000005 8.0
vertex -0.0999999999999984 15.5300000000005 3.0
vertex -0.100000000000007 15.5300000000005 20.9
endloop
endfacet
facet normal 3.24341240939342e-017 1.0 -3.4505307591332e-016
outer loop
vertex 4.88717720036823 15.5300000000005 8.0
vertex -0.100000000000007 15.5300000000005 20.9
vertex 2.88717720036823 15.5300000000005 16.9
endloop
endfacet
facet normal 3.24341240939342e-017 1.0 -3.4505307591332e-016
outer loop
vertex 2.88717720036823 15.5300000000005 16.9
vertex -0.100000000000007 15.5300000000005 20.9
vertex 2.88717720036822 15.5300000000005 20.9
endloop
endfacet
facet normal 0.975668414321671 -4.33823214720809e-017 0.21925132906105
outer loop
vertex 4.88717720036823 15.5300000000005 8.0
vertex 2.88717720036823 8.18999999999845 16.9
vertex 4.88717720036823 8.18999999999845 8.0
endloop
endfacet
facet normal 0.975668414321671 -4.33823214720809e-017 0.21925132906105
outer loop
vertex 2.88717720036823 8.18999999999845 16.9
vertex 4.88717720036823 15.5300000000005 8.0
vertex 2.88717720036823 15.5300000000005 16.9
endloop
endfacet
facet normal -0.0 -0.0 1.0
outer loop
vertex 31.1 8.18999999999845 20.9
vertex 28.1 15.5300000000005 20.9
vertex 28.1 8.18999999999845 20.9
endloop
endfacet
facet normal -0.0 -0.0 1.0
outer loop
vertex 28.1 15.5300000000005 20.9
vertex 31.1 8.18999999999845 20.9
vertex 31.1 15.5300000000005 20.9
endloop
endfacet
facet normal -0.0 -0.0 1.0
outer loop
vertex 31.1 23.3299999999989 20.9
vertex 28.1 30.6700000000011 20.9
vertex 28.1 23.3299999999989 20.9
endloop
endfacet
facet normal -0.0 -0.0 1.0
outer loop
vertex 28.1 30.6700000000011 20.9
vertex 31.1 23.3299999999989 20.9
vertex 31.1 30.6700000000011 20.9
endloop
endfacet
facet normal -0.0 -0.0 1.0
outer loop
vertex 31.1 38.4699999999995 20.9
vertex 28.1 45.8100000000017 20.9
vertex 28.1 38.4699999999995 20.9
endloop
endfacet
facet normal -0.0 -0.0 1.0
outer loop
vertex 28.1 45.8100000000017 20.9
vertex 31.1 38.4699999999995 20.9
vertex 31.1 45.8100000000017 20.9
endloop
endfacet
facet normal 0.0 -1.0 0.0
outer loop
vertex 31.1 38.4699999999995 3.0
vertex 26.1 38.4699999999995 8.0
vertex 23.1 38.4699999999995 3.0
endloop
endfacet
facet normal 0.0 -1.0 0.0
outer loop
vertex 26.1 38.4699999999995 8.0
vertex 31.1 38.4699999999995 3.0
vertex 31.1 38.4699999999995 20.9
endloop
endfacet
facet normal 0.0 -1.0 0.0
outer loop
vertex 26.1 38.4699999999995 8.0
vertex 31.1 38.4699999999995 20.9
vertex 28.1 38.4699999999995 16.9
endloop
endfacet
facet normal 0.0 -1.0 0.0
outer loop
vertex 28.1 38.4699999999995 16.9
vertex 31.1 38.4699999999995 20.9
vertex 28.1 38.4699999999995 20.9
endloop
endfacet
facet normal -0.0 1.0 -0.0
outer loop
vertex 26.1 45.8100000000017 8.0
vertex 31.1 45.8100000000017 3.0
vertex 23.1 45.8100000000017 3.0
endloop
endfacet
facet normal -0.0 1.0 -0.0
outer loop
vertex 31.1 45.8100000000017 3.0
vertex 26.1 45.8100000000017 8.0
vertex 31.1 45.8100000000017 20.9
endloop
endfacet
facet normal -0.0 1.0 -0.0
outer loop
vertex 31.1 45.8100000000017 20.9
vertex 26.1 45.8100000000017 8.0
vertex 28.1 45.8100000000017 16.9
endloop
endfacet
facet normal -0.0 1.0 -0.0
outer loop
vertex 31.1 45.8100000000017 20.9
vertex 28.1 45.8100000000017 16.9
vertex 28.1 45.8100000000017 20.9
endloop
endfacet
facet normal -0.975668414321671 -4.55457443276424e-017 0.21925132906105
outer loop
vertex 28.1 45.8100000000017 16.9
vertex 26.1 38.4699999999995 8.0
vertex 28.1 38.4699999999995 16.9
endloop
endfacet
facet normal -0.975668414321671 -4.55457443276424e-017 0.21925132906105
outer loop
vertex 26.1 38.4699999999995 8.0
vertex 28.1 45.8100000000017 16.9
vertex 26.1 45.8100000000017 8.0
endloop
endfacet
facet normal -0.975668414321671 -1.02477924737168e-018 0.21925132906105
outer loop
vertex 28.1 30.6700000000011 16.9
vertex 26.1 23.3299999999989 8.0
vertex 28.1 23.3299999999989 16.9
endloop
endfacet
facet normal -0.975668414321671 -1.02477924737168e-018 0.21925132906105
outer loop
vertex 26.1 23.3299999999989 8.0
vertex 28.1 30.6700000000011 16.9
vertex 26.1 30.6700000000011 8.0
endloop
endfacet
facet normal 0.0 -1.0 0.0
outer loop
vertex 31.1 23.3299999999989 3.0
vertex 26.1 23.3299999999989 8.0
vertex 23.1 23.3299999999989 3.0
endloop
endfacet
facet normal 0.0 -1.0 0.0
outer loop
vertex 26.1 23.3299999999989 8.0
vertex 31.1 23.3299999999989 3.0
vertex 31.1 23.3299999999989 20.9
endloop
endfacet
facet normal 0.0 -1.0 0.0
outer loop
vertex 26.1 23.3299999999989 8.0
vertex 31.1 23.3299999999989 20.9
vertex 28.1 23.3299999999989 16.9
endloop
endfacet
facet normal 0.0 -1.0 0.0
outer loop
vertex 28.1 23.3299999999989 16.9
vertex 31.1 23.3299999999989 20.9
vertex 28.1 23.3299999999989 20.9
endloop
endfacet
facet normal -0.0 1.0 -0.0
outer loop
vertex 26.1 30.6700000000011 8.0
vertex 31.1 30.6700000000011 3.0
vertex 23.1 30.6700000000011 3.0
endloop
endfacet
facet normal -0.0 1.0 -0.0
outer loop
vertex 31.1 30.6700000000011 3.0
vertex 26.1 30.6700000000011 8.0
vertex 31.1 30.6700000000011 20.9
endloop
endfacet
facet normal -0.0 1.0 -0.0
outer loop
vertex 31.1 30.6700000000011 20.9
vertex 26.1 30.6700000000011 8.0
vertex 28.1 30.6700000000011 16.9
endloop
endfacet
facet normal -0.0 1.0 -0.0
outer loop
vertex 31.1 30.6700000000011 20.9
vertex 28.1 30.6700000000011 16.9
vertex 28.1 30.6700000000011 20.9
endloop
endfacet
facet normal -0.0 1.0 -0.0
outer loop
vertex 26.1 15.5300000000005 8.0
vertex 31.1 15.5300000000005 3.0
vertex 23.1 15.5300000000005 3.0
endloop
endfacet
facet normal -0.0 1.0 -0.0
outer loop
vertex 31.1 15.5300000000005 3.0
vertex 26.1 15.5300000000005 8.0
vertex 31.1 15.5300000000005 20.9
endloop
endfacet
facet normal -0.0 1.0 -0.0
outer loop
vertex 31.1 15.5300000000005 20.9
vertex 26.1 15.5300000000005 8.0
vertex 28.1 15.5300000000005 16.9
endloop
endfacet
facet normal -0.0 1.0 -0.0
outer loop
vertex 31.1 15.5300000000005 20.9
vertex 28.1 15.5300000000005 16.9
vertex 28.1 15.5300000000005 20.9
endloop
endfacet
facet normal 1.0 -1.05925592593849e-031 -2.09914639490271e-031
outer loop
vertex 31.1 54.0 1.5
vertex 31.1 45.8100000000017 3.0
vertex 31.1 45.8100000000017 1.5
endloop
endfacet
facet normal 1.0 -1.05925592593849e-031 -2.09914639490271e-031
outer loop
vertex 31.1 45.8100000000017 3.0
vertex 31.1 54.0 1.5
vertex 31.1 54.0 3.0
endloop
endfacet
facet normal 1.0 -1.05925592593849e-031 -2.09914639490271e-031
outer loop
vertex 31.1 45.8100000000017 0.0
vertex 31.1 38.4699999999995 1.5
vertex 31.1 38.4699999999995 0.0
endloop
endfacet
facet normal 1.0 -1.05925592593849e-031 -2.09914639490271e-031
outer loop
vertex 31.1 38.4699999999995 1.5
vertex 31.1 45.8100000000017 0.0
vertex 31.1 38.4699999999995 3.0
endloop
endfacet
facet normal 1.0 -1.05925592593849e-031 -2.09914639490271e-031
outer loop
vertex 31.1 38.4699999999995 3.0
vertex 31.1 45.8100000000017 0.0
vertex 31.1 38.4699999999995 20.9
endloop
endfacet
facet normal 1.0 -1.05925592593849e-031 -2.09914639490271e-031
outer loop
vertex 31.1 38.4699999999995 20.9
vertex 31.1 45.8100000000017 0.0
vertex 31.1 45.8100000000017 20.9
endloop
endfacet
facet normal 1.0 -1.05925592593849e-031 -2.09914639490271e-031
outer loop
vertex 31.1 45.8100000000017 20.9
vertex 31.1 45.8100000000017 0.0
vertex 31.1 45.8100000000017 1.5
endloop
endfacet
facet normal 1.0 -1.05925592593849e-031 -2.09914639490271e-031
outer loop
vertex 31.1 45.8100000000017 20.9
vertex 31.1 45.8100000000017 1.5
vertex 31.1 45.8100000000017 3.0
endloop
endfacet
facet normal 1.0 -1.05925592593849e-031 -2.09914639490271e-031
outer loop
vertex 31.1 38.4699999999995 1.5
vertex 31.1 30.6700000000011 3.0
vertex 31.1 30.6700000000011 1.5
endloop
endfacet
facet normal 1.0 -1.05925592593849e-031 -2.09914639490271e-031
outer loop
vertex 31.1 30.6700000000011 3.0
vertex 31.1 38.4699999999995 1.5
vertex 31.1 38.4699999999995 3.0
endloop
endfacet
facet normal 1.0 -1.05925592593849e-031 -2.09914639490271e-031
outer loop
vertex 31.1 30.6700000000011 0.0
vertex 31.1 23.3299999999989 1.5
vertex 31.1 23.3299999999989 0.0
endloop
endfacet
facet normal 1.0 -1.05925592593849e-031 -2.09914639490271e-031
outer loop
vertex 31.1 23.3299999999989 1.5
vertex 31.1 30.6700000000011 0.0
vertex 31.1 23.3299999999989 3.0
endloop
endfacet
facet normal 1.0 -1.05925592593849e-031 -2.09914639490271e-031
outer loop
vertex 31.1 23.3299999999989 3.0
vertex 31.1 30.6700000000011 0.0
vertex 31.1 23.3299999999989 20.9
endloop
endfacet
facet normal 1.0 -1.05925592593849e-031 -2.09914639490271e-031
outer loop
vertex 31.1 23.3299999999989 20.9
vertex 31.1 30.6700000000011 0.0
vertex 31.1 30.6700000000011 20.9
endloop
endfacet
facet normal 1.0 -1.05925592593849e-031 -2.09914639490271e-031
outer loop
vertex 31.1 30.6700000000011 20.9
vertex 31.1 30.6700000000011 0.0
vertex 31.1 30.6700000000011 1.5
endloop
endfacet
facet normal 1.0 -1.05925592593849e-031 -2.09914639490271e-031
outer loop
vertex 31.1 30.6700000000011 20.9
vertex 31.1 30.6700000000011 1.5
vertex 31.1 30.6700000000011 3.0
endloop
endfacet
facet normal 1.0 -1.05925592593849e-031 -2.09914639490271e-031
outer loop
vertex 31.1 23.3299999999989 1.5
vertex 31.1 15.5300000000005 3.0
vertex 31.1 15.5300000000005 1.5
endloop
endfacet
facet normal 1.0 -1.05925592593849e-031 -2.09914639490271e-031
outer loop
vertex 31.1 15.5300000000005 3.0
vertex 31.1 23.3299999999989 1.5
vertex 31.1 23.3299999999989 3.0
endloop
endfacet
facet normal 1.0 -1.05925592593849e-031 -2.09914639490271e-031
outer loop
vertex 31.1 15.5300000000005 0.0
vertex 31.1 8.18999999999845 1.5
vertex 31.1 8.18999999999845 0.0
endloop
endfacet
facet normal 1.0 -1.05925592593849e-031 -2.09914639490271e-031
outer loop
vertex 31.1 8.18999999999845 1.5
vertex 31.1 15.5300000000005 0.0
vertex 31.1 8.18999999999845 3.0
endloop
endfacet
facet normal 1.0 -1.05925592593849e-031 -2.09914639490271e-031
outer loop
vertex 31.1 8.18999999999845 3.0
vertex 31.1 15.5300000000005 0.0
vertex 31.1 8.18999999999845 20.9
endloop
endfacet
facet normal 1.0 -1.05925592593849e-031 -2.09914639490271e-031
outer loop
vertex 31.1 8.18999999999845 20.9
vertex 31.1 15.5300000000005 0.0
vertex 31.1 15.5300000000005 20.9
endloop
endfacet
facet normal 1.0 -1.05925592593849e-031 -2.09914639490271e-031
outer loop
vertex 31.1 15.5300000000005 20.9
vertex 31.1 15.5300000000005 0.0
vertex 31.1 15.5300000000005 1.5
endloop
endfacet
facet normal 1.0 -1.05925592593849e-031 -2.09914639490271e-031
outer loop
vertex 31.1 15.5300000000005 20.9
vertex 31.1 15.5300000000005 1.5
vertex 31.1 15.5300000000005 3.0
endloop
endfacet
facet normal 1.0 -1.05925592593849e-031 -2.09914639490271e-031
outer loop
vertex 31.1 8.18999999999845 1.5
vertex 31.1 -5.09435764743912e-017 3.0
vertex 31.1 -7.55935197111366e-016 1.5
endloop
endfacet
facet normal 1.0 -1.05925592593849e-031 -2.09914639490271e-031
outer loop
vertex 31.1 -5.09435764743912e-017 3.0
vertex 31.1 8.18999999999845 1.5
vertex 31.1 8.18999999999845 3.0
endloop
endfacet
facet normal 9.53284254755617e-033 -1.49677467795656e-032 1.0
outer loop
vertex 31.1 -5.09435764743912e-017 3.0
vertex -0.0999999999999986 8.18999999999845 3.0
vertex -0.1 -5.09435764743912e-017 3.0
endloop
endfacet
facet normal 9.53284254755617e-033 -1.49677467795656e-032 1.0
outer loop
vertex -0.0999999999999986 8.18999999999845 3.0
vertex 31.1 -5.09435764743912e-017 3.0
vertex 7.88717720036823 8.18999999999845 3.0
endloop
endfacet
facet normal 9.53284254755617e-033 -1.49677467795656e-032 1.0
outer loop
vertex 7.88717720036823 8.18999999999845 3.0
vertex 31.1 -5.09435764743912e-017 3.0
vertex 7.88717720036823 15.5300000000005 3.0
endloop
endfacet
facet normal 9.53284254755617e-033 -1.49677467795656e-032 1.0
outer loop
vertex 7.88717720036823 15.5300000000005 3.0
vertex 31.1 -5.09435764743912e-017 3.0
vertex 7.88717720036823 23.3299999999989 3.0
endloop
endfacet
facet normal 9.53284254755617e-033 -1.49677467795656e-032 1.0
outer loop
vertex 7.88717720036823 23.3299999999989 3.0
vertex 31.1 -5.09435764743912e-017 3.0
vertex 23.1 8.18999999999845 3.0
endloop
endfacet
facet normal 9.53284254755617e-033 -1.49677467795656e-032 1.0
outer loop
vertex 7.88717720036823 23.3299999999989 3.0
vertex 23.1 8.18999999999845 3.0
vertex 7.88717720036823 30.6700000000011 3.0
endloop
endfacet
facet normal 9.53284254755617e-033 -1.49677467795656e-032 1.0
outer loop
vertex 7.88717720036823 30.6700000000011 3.0
vertex 23.1 8.18999999999845 3.0
vertex 7.88717720036823 38.4699999999995 3.0
endloop
endfacet
facet normal 9.53284254755617e-033 -1.49677467795656e-032 1.0
outer loop
vertex 7.88717720036823 38.4699999999995 3.0
vertex 23.1 8.18999999999845 3.0
vertex 7.88717720036823 45.8100000000017 3.0
endloop
endfacet
facet normal 9.53284254755617e-033 -1.49677467795656e-032 1.0
outer loop
vertex 23.1 8.18999999999845 3.0
vertex 31.1 -5.09435764743912e-017 3.0
vertex 31.1 8.18999999999845 3.0
endloop
endfacet
facet normal 9.53284254755617e-033 -1.49677467795656e-032 1.0
outer loop
vertex 31.1 15.5300000000005 3.0
vertex 23.1 23.3299999999989 3.0
vertex 23.1 15.5300000000005 3.0
endloop
endfacet
facet normal 9.53284254755617e-033 -1.49677467795656e-032 1.0
outer loop
vertex 23.1 23.3299999999989 3.0
vertex 31.1 15.5300000000005 3.0
vertex 31.1 23.3299999999989 3.0
endloop
endfacet
facet normal 9.53284254755617e-033 -1.49677467795656e-032 1.0
outer loop
vertex 31.1 30.6700000000011 3.0
vertex 23.1 38.4699999999995 3.0
vertex 23.1 30.6700000000011 3.0
endloop
endfacet
facet normal 9.53284254755617e-033 -1.49677467795656e-032 1.0
outer loop
vertex 23.1 38.4699999999995 3.0
vertex 31.1 30.6700000000011 3.0
vertex 31.1 38.4699999999995 3.0
endloop
endfacet
facet normal 9.53284254755617e-033 -1.49677467795656e-032 1.0
outer loop
vertex 7.88717720036823 45.8100000000017 3.0
vertex -0.0999999999999944 54.0 3.0
vertex -0.0999999999999952 45.8100000000017 3.0
endloop
endfacet
facet normal 9.53284254755617e-033 -1.49677467795656e-032 1.0
outer loop
vertex -0.0999999999999944 54.0 3.0
vertex 7.88717720036823 45.8100000000017 3.0
vertex 31.1 54.0 3.0
endloop
endfacet
facet normal 9.53284254755617e-033 -1.49677467795656e-032 1.0
outer loop
vertex 31.1 54.0 3.0
vertex 7.88717720036823 45.8100000000017 3.0
vertex 23.1 45.8100000000017 3.0
endloop
endfacet
facet normal 9.53284254755617e-033 -1.49677467795656e-032 1.0
outer loop
vertex 23.1 45.8100000000017 3.0
vertex 7.88717720036823 45.8100000000017 3.0
vertex 23.1 8.18999999999845 3.0
endloop
endfacet
facet normal 9.53284254755617e-033 -1.49677467795656e-032 1.0
outer loop
vertex 23.1 45.8100000000017 3.0
vertex 23.1 8.18999999999845 3.0
vertex 23.1 15.5300000000005 3.0
endloop
endfacet
facet normal 9.53284254755617e-033 -1.49677467795656e-032 1.0
outer loop
vertex 23.1 45.8100000000017 3.0
vertex 23.1 15.5300000000005 3.0
vertex 23.1 23.3299999999989 3.0
endloop
endfacet
facet normal 9.53284254755617e-033 -1.49677467795656e-032 1.0
outer loop
vertex 23.1 45.8100000000017 3.0
vertex 23.1 23.3299999999989 3.0
vertex 23.1 30.6700000000011 3.0
endloop
endfacet
facet normal 9.53284254755617e-033 -1.49677467795656e-032 1.0
outer loop
vertex 23.1 45.8100000000017 3.0
vertex 23.1 30.6700000000011 3.0
vertex 23.1 38.4699999999995 3.0
endloop
endfacet
facet normal 9.53284254755617e-033 -1.49677467795656e-032 1.0
outer loop
vertex 31.1 54.0 3.0
vertex 23.1 45.8100000000017 3.0
vertex 31.1 45.8100000000017 3.0
endloop
endfacet
facet normal 9.53284254755617e-033 -1.49677467795656e-032 1.0
outer loop
vertex 7.88717720036823 30.6700000000011 3.0
vertex -0.0999999999999951 38.4699999999995 3.0
vertex -0.0999999999999968 30.6700000000011 3.0
endloop
endfacet
facet normal 9.53284254755617e-033 -1.49677467795656e-032 1.0
outer loop
vertex -0.0999999999999951 38.4699999999995 3.0
vertex 7.88717720036823 30.6700000000011 3.0
vertex 7.88717720036823 38.4699999999995 3.0
endloop
endfacet
facet normal 9.53284254755617e-033 -1.49677467795656e-032 1.0
outer loop
vertex 7.88717720036823 15.5300000000005 3.0
vertex -0.0999999999999965 23.3299999999989 3.0
vertex -0.0999999999999984 15.5300000000005 3.0
endloop
endfacet
facet normal 9.53284254755617e-033 -1.49677467795656e-032 1.0
outer loop
vertex -0.0999999999999965 23.3299999999989 3.0
vertex 7.88717720036823 15.5300000000005 3.0
vertex 7.88717720036823 23.3299999999989 3.0
endloop
endfacet
facet normal 0.0 0.0 -1.0
outer loop
vertex -0.0999999999999991 15.5300000000005 0.0
vertex 6.16867668057353e-016 8.18999999999845 0.0
vertex -0.0999999999999994 8.18999999999845 0.0
endloop
endfacet
facet normal 0.0 0.0 -1.0
outer loop
vertex 6.16867668057353e-016 8.18999999999845 0.0
vertex -0.0999999999999991 15.5300000000005 0.0
vertex 9.6936347837584e-016 15.5300000000005 0.0
endloop
endfacet
facet normal 0.0 0.0 -1.0
outer loop
vertex -1.67435509901281e-015 45.8100000000017 0.0
vertex -0.1 38.4699999999996 0.0
vertex -0.100000000000002 45.8100000000017 0.0
endloop
endfacet
facet normal 0.0 0.0 -1.0
outer loop
vertex -0.1 38.4699999999996 0.0
vertex -1.67435509901281e-015 45.8100000000017 0.0
vertex 0.0 38.4699999999996 0.0
endloop
endfacet
facet normal 0.0 0.0 -1.0
outer loop
vertex 0.0 38.4699999999996 0.0
vertex -1.67435509901281e-015 45.8100000000017 0.0
vertex -1.40998324127395e-015 54.0 0.0
endloop
endfacet
facet normal 0.0 0.0 -1.0
outer loop
vertex 0.0 38.4699999999996 0.0
vertex -1.40998324127395e-015 54.0 0.0
vertex 31.0 54.0 0.0
endloop
endfacet
facet normal 0.0 0.0 -1.0
outer loop
vertex 0.0 38.4699999999996 0.0
vertex 31.0 54.0 0.0
vertex 6.16867668057353e-016 30.6700000000011 0.0
endloop
endfacet
facet normal 0.0 0.0 -1.0
outer loop
vertex 6.16867668057353e-016 30.6700000000011 0.0
vertex 31.0 54.0 0.0
vertex 2.11497486191092e-015 23.3299999999989 0.0
endloop
endfacet
facet normal 0.0 0.0 -1.0
outer loop
vertex 31.1 45.8100000000017 0.0
vertex 31.0 38.4699999999995 0.0
vertex 31.0 45.8100000000017 0.0
endloop
endfacet
facet normal 0.0 0.0 -1.0
outer loop
vertex 31.0 38.4699999999995 0.0
vertex 31.1 45.8100000000017 0.0
vertex 31.1 38.4699999999995 0.0
endloop
endfacet
facet normal 0.0 0.0 -1.0
outer loop
vertex 31.1 30.6700000000011 0.0
vertex 31.0 23.3299999999989 0.0
vertex 31.0 30.6700000000011 0.0
endloop
endfacet
facet normal 0.0 0.0 -1.0
outer loop
vertex 31.0 23.3299999999989 0.0
vertex 31.1 30.6700000000011 0.0
vertex 31.1 23.3299999999989 0.0
endloop
endfacet
facet normal 0.0 0.0 -1.0
outer loop
vertex 31.1 15.5300000000005 0.0
vertex 31.0 8.18999999999845 0.0
vertex 31.0 15.5300000000005 0.0
endloop
endfacet
facet normal 0.0 0.0 -1.0
outer loop
vertex 31.0 8.18999999999845 0.0
vertex 31.1 15.5300000000005 0.0
vertex 31.1 8.18999999999845 0.0
endloop
endfacet
facet normal 0.0 0.0 -1.0
outer loop
vertex 6.16867668057353e-016 8.18999999999845 0.0
vertex 31.0 -7.55935197111366e-016 0.0
vertex 0.0 -5.09435764743912e-017 0.0
endloop
endfacet
facet normal 0.0 0.0 -1.0
outer loop
vertex 31.0 -7.55935197111366e-016 0.0
vertex 6.16867668057353e-016 8.18999999999845 0.0
vertex 9.6936347837584e-016 15.5300000000005 0.0
endloop
endfacet
facet normal 0.0 0.0 -1.0
outer loop
vertex 31.0 -7.55935197111366e-016 0.0
vertex 9.6936347837584e-016 15.5300000000005 0.0
vertex 2.11497486191092e-015 23.3299999999989 0.0
endloop
endfacet
facet normal 0.0 0.0 -1.0
outer loop
vertex 31.0 -7.55935197111366e-016 0.0
vertex 2.11497486191092e-015 23.3299999999989 0.0
vertex 31.0 54.0 0.0
endloop
endfacet
facet normal 0.0 0.0 -1.0
outer loop
vertex 31.0 -7.55935197111366e-016 0.0
vertex 31.0 54.0 0.0
vertex 31.0 45.8100000000017 0.0
endloop
endfacet
facet normal 0.0 0.0 -1.0
outer loop
vertex 31.0 -7.55935197111366e-016 0.0
vertex 31.0 45.8100000000017 0.0
vertex 31.0 38.4699999999995 0.0
endloop
endfacet
facet normal 0.0 0.0 -1.0
outer loop
vertex 31.0 -7.55935197111366e-016 0.0
vertex 31.0 38.4699999999995 0.0
vertex 31.0 30.6700000000011 0.0
endloop
endfacet
facet normal 0.0 0.0 -1.0
outer loop
vertex 31.0 -7.55935197111366e-016 0.0
vertex 31.0 30.6700000000011 0.0
vertex 31.0 23.3299999999989 0.0
endloop
endfacet
facet normal 0.0 0.0 -1.0
outer loop
vertex 31.0 -7.55935197111366e-016 0.0
vertex 31.0 23.3299999999989 0.0
vertex 31.0 15.5300000000005 0.0
endloop
endfacet
facet normal 0.0 0.0 -1.0
outer loop
vertex 31.0 -7.55935197111366e-016 0.0
vertex 31.0 15.5300000000005 0.0
vertex 31.0 8.18999999999845 0.0
endloop
endfacet
facet normal 0.0 0.0 -1.0
outer loop
vertex 6.16867668057353e-016 30.6700000000011 0.0
vertex -0.0999999999999979 23.3299999999989 0.0
vertex -0.0999999999999994 30.6700000000011 0.0
endloop
endfacet
facet normal 0.0 0.0 -1.0
outer loop
vertex -0.0999999999999979 23.3299999999989 0.0
vertex 6.16867668057353e-016 30.6700000000011 0.0
vertex 2.11497486191092e-015 23.3299999999989 0.0
endloop
endfacet
facet normal -0.0 1.0 -0.0
outer loop
vertex -0.0999999999999944 54.0 3.0
vertex 0.499999999999998 54.0 1.5
vertex -0.100000000000002 54.0 1.5
endloop
endfacet
facet normal -0.0 1.0 -0.0
outer loop
vertex 0.499999999999998 54.0 1.5
vertex -0.0999999999999944 54.0 3.0
vertex 30.5 54.0 1.5
endloop
endfacet
facet normal -0.0 1.0 -0.0
outer loop
vertex 30.5 54.0 1.5
vertex -0.0999999999999944 54.0 3.0
vertex 31.1 54.0 1.5
endloop
endfacet
facet normal -0.0 1.0 -0.0
outer loop
vertex 31.1 54.0 1.5
vertex -0.0999999999999944 54.0 3.0
vertex 31.1 54.0 3.0
endloop
endfacet
facet normal -0.0 1.0 -0.0
outer loop
vertex 0.499999999999998 54.0 1.5
vertex 31.0 54.0 0.0
vertex -1.40998324127395e-015 54.0 0.0
endloop
endfacet
facet normal -0.0 1.0 -0.0
outer loop
vertex 31.0 54.0 0.0
vertex 0.499999999999998 54.0 1.5
vertex 30.5 54.0 1.5
endloop
endfacet
facet normal -1.70699253712641e-017 -1.0 1.17498603439496e-016
outer loop
vertex 31.1 -5.09435764743912e-017 3.0
vertex 30.5 -7.55935197111366e-016 1.5
vertex 31.1 -7.55935197111366e-016 1.5
endloop
endfacet
facet normal -1.70699253712641e-017 -1.0 1.17498603439496e-016
outer loop
vertex 30.5 -7.55935197111366e-016 1.5
vertex 31.1 -5.09435764743912e-017 3.0
vertex 0.5 -5.09435764743912e-017 1.5
endloop
endfacet
facet normal -1.70699253712641e-017 -1.0 1.17498603439496e-016
outer loop
vertex 0.5 -5.09435764743912e-017 1.5
vertex 31.1 -5.09435764743912e-017 3.0
vertex -0.1 -5.09435764743912e-017 1.5
endloop
endfacet
facet normal -1.70699253712641e-017 -1.0 1.17498603439496e-016
outer loop
vertex -0.1 -5.09435764743912e-017 1.5
vertex 31.1 -5.09435764743912e-017 3.0
vertex -0.1 -5.09435764743912e-017 3.0
endloop
endfacet
facet normal -1.70699253712641e-017 -1.0 1.17498603439496e-016
outer loop
vertex 30.5 -7.55935197111366e-016 1.5
vertex 0.0 -5.09435764743912e-017 0.0
vertex 31.0 -7.55935197111366e-016 0.0
endloop
endfacet
facet normal -1.70699253712641e-017 -1.0 1.17498603439496e-016
outer loop
vertex 0.0 -5.09435764743912e-017 0.0
vertex 30.5 -7.55935197111366e-016 1.5
vertex 0.5 -5.09435764743912e-017 1.5
endloop
endfacet
facet normal -0.857492925712544 0.0 0.514495755427527
outer loop
vertex 26.1 45.8100000000017 8.0
vertex 23.1 38.4699999999995 3.0
vertex 26.1 38.4699999999995 8.0
endloop
endfacet
facet normal -0.857492925712544 0.0 0.514495755427527
outer loop
vertex 23.1 38.4699999999995 3.0
vertex 26.1 45.8100000000017 8.0
vertex 23.1 45.8100000000017 3.0
endloop
endfacet
facet normal -0.857492925712544 -2.53137399649542e-031 0.514495755427527
outer loop
vertex 26.1 30.6700000000011 8.0
vertex 23.1 23.3299999999989 3.0
vertex 26.1 23.3299999999989 8.0
endloop
endfacet
facet normal -0.857492925712544 -2.53137399649542e-031 0.514495755427527
outer loop
vertex 23.1 23.3299999999989 3.0
vertex 26.1 30.6700000000011 8.0
vertex 23.1 30.6700000000011 3.0
endloop
endfacet
facet normal 0.857492925712544 1.78129609177376e-017 0.514495755427527
outer loop
vertex 7.88717720036823 30.6700000000011 3.0
vertex 4.88717720036823 23.3299999999989 8.0
vertex 7.88717720036823 23.3299999999989 3.0
endloop
endfacet
facet normal 0.857492925712544 1.78129609177376e-017 0.514495755427527
outer loop
vertex 4.88717720036823 23.3299999999989 8.0
vertex 7.88717720036823 30.6700000000011 3.0
vertex 4.88717720036823 30.6700000000011 8.0
endloop
endfacet
facet normal 0.857492925712544 1.78129609177383e-017 0.514495755427527
outer loop
vertex 7.88717720036823 15.5300000000005 3.0
vertex 4.88717720036823 8.18999999999845 8.0
vertex 7.88717720036823 8.18999999999845 3.0
endloop
endfacet
facet normal 0.857492925712544 1.78129609177383e-017 0.514495755427527
outer loop
vertex 4.88717720036823 8.18999999999845 8.0
vertex 7.88717720036823 15.5300000000005 3.0
vertex 4.88717720036823 15.5300000000005 8.0
endloop
endfacet
facet normal 0.857492925712544 -0.0 0.514495755427527
outer loop
vertex 7.88717720036823 45.8100000000017 3.0
vertex 4.88717720036823 38.4699999999995 8.0
vertex 7.88717720036823 38.4699999999995 3.0
endloop
endfacet
facet normal 0.857492925712544 -0.0 0.514495755427527
outer loop
vertex 4.88717720036823 38.4699999999995 8.0
vertex 7.88717720036823 45.8100000000017 3.0
vertex 4.88717720036823 45.8100000000017 8.0
endloop
endfacet
facet normal -1.0 0.0 0.0
outer loop
vertex 28.1 8.18999999999845 20.9
vertex 28.1 15.5300000000005 16.9
vertex 28.1 8.18999999999845 16.9
endloop
endfacet
facet normal -1.0 0.0 0.0
outer loop
vertex 28.1 15.5300000000005 16.9
vertex 28.1 8.18999999999845 20.9
vertex 28.1 15.5300000000005 20.9
endloop
endfacet
facet normal -1.0 0.0 0.0
outer loop
vertex 28.1 30.6700000000011 20.9
vertex 28.1 23.3299999999989 16.9
vertex 28.1 23.3299999999989 20.9
endloop
endfacet
facet normal -1.0 0.0 0.0
outer loop
vertex 28.1 23.3299999999989 16.9
vertex 28.1 30.6700000000011 20.9
vertex 28.1 30.6700000000011 16.9
endloop
endfacet
facet normal -1.0 0.0 0.0
outer loop
vertex 28.1 45.8100000000017 20.9
vertex 28.1 38.4699999999995 16.9
vertex 28.1 38.4699999999995 20.9
endloop
endfacet
facet normal -1.0 0.0 0.0
outer loop
vertex 28.1 38.4699999999995 16.9
vertex 28.1 45.8100000000017 20.9
vertex 28.1 45.8100000000017 16.9
endloop
endfacet
facet normal 1.0 -4.80239523594527e-017 1.14561138353508e-015
outer loop
vertex 2.88717720036823 30.6700000000011 16.9
vertex 2.88717720036822 23.3299999999989 20.9
vertex 2.88717720036823 23.3299999999989 16.9
endloop
endfacet
facet normal 1.0 -4.80239523594527e-017 1.14561138353508e-015
outer loop
vertex 2.88717720036822 23.3299999999989 20.9
vertex 2.88717720036823 30.6700000000011 16.9
vertex 2.88717720036822 30.6700000000011 20.9
endloop
endfacet
facet normal 1.0 -4.80239523594529e-017 -8.81239525796218e-017
outer loop
vertex 2.88717720036823 45.8100000000017 16.9
vertex 2.88717720036823 38.4699999999995 20.9
vertex 2.88717720036823 38.4699999999995 16.9
endloop
endfacet
facet normal 1.0 -4.80239523594529e-017 -8.81239525796218e-017
outer loop
vertex 2.88717720036823 38.4699999999995 20.9
vertex 2.88717720036823 45.8100000000017 16.9
vertex 2.88717720036823 45.8100000000017 20.9
endloop
endfacet
facet normal 1.0 -4.80239523594536e-017 7.93115573216596e-016
outer loop
vertex 2.88717720036823 15.5300000000005 16.9
vertex 2.88717720036822 8.18999999999845 20.9
vertex 2.88717720036823 8.18999999999845 16.9
endloop
endfacet
facet normal 1.0 -4.80239523594536e-017 7.93115573216596e-016
outer loop
vertex 2.88717720036822 8.18999999999845 20.9
vertex 2.88717720036823 15.5300000000005 16.9
vertex 2.88717720036822 15.5300000000005 20.9
endloop
endfacet
facet normal -0.857492925712544 0.0 0.514495755427526
outer loop
vertex 26.1 15.5300000000005 8.0
vertex 23.1 8.18999999999845 3.0
vertex 26.1 8.18999999999845 8.0
endloop
endfacet
facet normal -0.857492925712544 0.0 0.514495755427526
outer loop
vertex 23.1 8.18999999999845 3.0
vertex 26.1 15.5300000000005 8.0
vertex 23.1 15.5300000000005 3.0
endloop
endfacet
facet normal -0.975668414321671 3.98525262866901e-018 0.21925132906105
outer loop
vertex 28.1 15.5300000000005 16.9
vertex 26.1 8.18999999999845 8.0
vertex 28.1 8.18999999999845 16.9
endloop
endfacet
facet normal -0.975668414321671 3.98525262866901e-018 0.21925132906105
outer loop
vertex 26.1 8.18999999999845 8.0
vertex 28.1 15.5300000000005 16.9
vertex 26.1 15.5300000000005 8.0
endloop
endfacet
facet normal -4.21838496348053e-016 -1.0 2.70051267101135e-017
outer loop
vertex 31.1 8.18999999999845 3.0
vertex 26.1 8.18999999999845 8.0
vertex 23.1 8.18999999999845 3.0
endloop
endfacet
facet normal -4.21838496348053e-016 -1.0 2.70051267101135e-017
outer loop
vertex 26.1 8.18999999999845 8.0
vertex 31.1 8.18999999999845 3.0
vertex 31.1 8.18999999999845 20.9
endloop
endfacet
facet normal -4.21838496348053e-016 -1.0 2.70051267101135e-017
outer loop
vertex 26.1 8.18999999999845 8.0
vertex 31.1 8.18999999999845 20.9
vertex 28.1 8.18999999999845 16.9
endloop
endfacet
facet normal -4.21838496348053e-016 -1.0 2.70051267101135e-017
outer loop
vertex 28.1 8.18999999999845 16.9
vertex 31.1 8.18999999999845 20.9
vertex 28.1 8.18999999999845 20.9
endloop
endfacet
facet normal 0.948683298050514 -0.0 0.316227766016837
outer loop
vertex 31.0 8.18999999999845 0.0
vertex 30.5 -7.55935197111366e-016 1.5
vertex 31.0 -7.55935197111366e-016 0.0
endloop
endfacet
facet normal 0.948683298050514 -0.0 0.316227766016837
outer loop
vertex 30.5 -7.55935197111366e-016 1.5
vertex 31.0 8.18999999999845 0.0
vertex 30.5 8.18999999999845 1.5
endloop
endfacet
facet normal 0.0 0.0 -1.0
outer loop
vertex 31.1 8.18999999999845 1.5
vertex 30.5 -7.55935197111366e-016 1.5
vertex 30.5 8.18999999999845 1.5
endloop
endfacet
facet normal 0.0 0.0 -1.0
outer loop
vertex 30.5 -7.55935197111366e-016 1.5
vertex 31.1 8.18999999999845 1.5
vertex 31.1 -7.55935197111366e-016 1.5
endloop
endfacet
facet normal 0.0 -1.0 0.0
outer loop
vertex 31.1 8.18999999999845 1.5
vertex 31.0 8.18999999999845 0.0
vertex 31.1 8.18999999999845 0.0
endloop
endfacet
facet normal 0.0 -1.0 0.0
outer loop
vertex 31.0 8.18999999999845 0.0
vertex 31.1 8.18999999999845 1.5
vertex 30.5 8.18999999999845 1.5
endloop
endfacet
facet normal 0.948683298050514 -0.0 0.316227766016837
outer loop
vertex 31.0 23.3299999999989 0.0
vertex 30.5 15.5300000000005 1.5
vertex 31.0 15.5300000000005 0.0
endloop
endfacet
facet normal 0.948683298050514 -0.0 0.316227766016837
outer loop
vertex 30.5 15.5300000000005 1.5
vertex 31.0 23.3299999999989 0.0
vertex 30.5 23.3299999999989 1.5
endloop
endfacet
facet normal -0.0 1.0 -0.0
outer loop
vertex 30.5 15.5300000000005 1.5
vertex 31.1 15.5300000000005 0.0
vertex 31.0 15.5300000000005 0.0
endloop
endfacet
facet normal -0.0 1.0 -0.0
outer loop
vertex 31.1 15.5300000000005 0.0
vertex 30.5 15.5300000000005 1.5
vertex 31.1 15.5300000000005 1.5
endloop
endfacet
facet normal 0.0 0.0 -1.0
outer loop
vertex 31.1 23.3299999999989 1.5
vertex 30.5 15.5300000000005 1.5
vertex 30.5 23.3299999999989 1.5
endloop
endfacet
facet normal 0.0 0.0 -1.0
outer loop
vertex 30.5 15.5300000000005 1.5
vertex 31.1 23.3299999999989 1.5
vertex 31.1 15.5300000000005 1.5
endloop
endfacet
facet normal 0.0 -1.0 0.0
outer loop
vertex 31.1 23.3299999999989 1.5
vertex 31.0 23.3299999999989 0.0
vertex 31.1 23.3299999999989 0.0
endloop
endfacet
facet normal 0.0 -1.0 0.0
outer loop
vertex 31.0 23.3299999999989 0.0
vertex 31.1 23.3299999999989 1.5
vertex 30.5 23.3299999999989 1.5
endloop
endfacet
facet normal 0.948683298050514 -0.0 0.316227766016837
outer loop
vertex 31.0 38.4699999999995 0.0
vertex 30.5 30.6700000000011 1.5
vertex 31.0 30.6700000000011 0.0
endloop
endfacet
facet normal 0.948683298050514 -0.0 0.316227766016837
outer loop
vertex 30.5 30.6700000000011 1.5
vertex 31.0 38.4699999999995 0.0
vertex 30.5 38.4699999999995 1.5
endloop
endfacet
facet normal -0.0 1.0 -0.0
outer loop
vertex 30.5 30.6700000000011 1.5
vertex 31.1 30.6700000000011 0.0
vertex 31.0 30.6700000000011 0.0
endloop
endfacet
facet normal -0.0 1.0 -0.0
outer loop
vertex 31.1 30.6700000000011 0.0
vertex 30.5 30.6700000000011 1.5
vertex 31.1 30.6700000000011 1.5
endloop
endfacet
facet normal 0.0 0.0 -1.0
outer loop
vertex 31.1 38.4699999999995 1.5
vertex 30.5 30.6700000000011 1.5
vertex 30.5 38.4699999999995 1.5
endloop
endfacet
facet normal 0.0 0.0 -1.0
outer loop
vertex 30.5 30.6700000000011 1.5
vertex 31.1 38.4699999999995 1.5
vertex 31.1 30.6700000000011 1.5
endloop
endfacet
facet normal 0.0 -1.0 0.0
outer loop
vertex 31.1 38.4699999999995 1.5
vertex 31.0 38.4699999999995 0.0
vertex 31.1 38.4699999999995 0.0
endloop
endfacet
facet normal 0.0 -1.0 0.0
outer loop
vertex 31.0 38.4699999999995 0.0
vertex 31.1 38.4699999999995 1.5
vertex 30.5 38.4699999999995 1.5
endloop
endfacet
facet normal 0.948683298050514 -0.0 0.316227766016837
outer loop
vertex 31.0 54.0 0.0
vertex 30.5 45.8100000000017 1.5
vertex 31.0 45.8100000000017 0.0
endloop
endfacet
facet normal 0.948683298050514 -0.0 0.316227766016837
outer loop
vertex 30.5 45.8100000000017 1.5
vertex 31.0 54.0 0.0
vertex 30.5 54.0 1.5
endloop
endfacet
facet normal -0.0 1.0 -0.0
outer loop
vertex 30.5 45.8100000000017 1.5
vertex 31.1 45.8100000000017 0.0
vertex 31.0 45.8100000000017 0.0
endloop
endfacet
facet normal -0.0 1.0 -0.0
outer loop
vertex 31.1 45.8100000000017 0.0
vertex 30.5 45.8100000000017 1.5
vertex 31.1 45.8100000000017 1.5
endloop
endfacet
facet normal 0.0 0.0 -1.0
outer loop
vertex 31.1 54.0 1.5
vertex 30.5 45.8100000000017 1.5
vertex 30.5 54.0 1.5
endloop
endfacet
facet normal 0.0 0.0 -1.0
outer loop
vertex 30.5 45.8100000000017 1.5
vertex 31.1 54.0 1.5
vertex 31.1 45.8100000000017 1.5
endloop
endfacet
facet normal -0.948683298050514 5.54012016439442e-017 0.316227766016837
outer loop
vertex 0.5 8.18999999999845 1.5
vertex 0.0 -5.09435764743912e-017 0.0
vertex 0.5 -5.09435764743912e-017 1.5
endloop
endfacet
facet normal -0.948683298050514 5.54012016439442e-017 0.316227766016837
outer loop
vertex 0.0 -5.09435764743912e-017 0.0
vertex 0.5 8.18999999999845 1.5
vertex 6.16867668057353e-016 8.18999999999845 0.0
endloop
endfacet
facet normal 0.0 -1.0 0.0
outer loop
vertex 0.5 8.18999999999845 1.5
vertex -0.0999999999999994 8.18999999999845 0.0
vertex 6.16867668057353e-016 8.18999999999845 0.0
endloop
endfacet
facet normal 0.0 -1.0 0.0
outer loop
vertex -0.0999999999999994 8.18999999999845 0.0
vertex 0.5 8.18999999999845 1.5
vertex -0.0999999999999996 8.18999999999845 1.5
endloop
endfacet
facet normal 0.0 0.0 -1.0
outer loop
vertex -0.0999999999999996 8.18999999999845 1.5
vertex 0.5 -5.09435764743912e-017 1.5
vertex -0.1 -5.09435764743912e-017 1.5
endloop
endfacet
facet normal 0.0 0.0 -1.0
outer loop
vertex 0.5 -5.09435764743912e-017 1.5
vertex -0.0999999999999996 8.18999999999845 1.5
vertex 0.5 8.18999999999845 1.5
endloop
endfacet
facet normal -0.948683298050514 1.39611028142743e-016 0.316227766016837
outer loop
vertex 0.500000000000002 23.3299999999989 1.5
vertex 9.6936347837584e-016 15.5300000000005 0.0
vertex 0.500000000000001 15.5300000000005 1.5
endloop
endfacet
facet normal -0.948683298050514 1.39611028142743e-016 0.316227766016837
outer loop
vertex 9.6936347837584e-016 15.5300000000005 0.0
vertex 0.500000000000002 23.3299999999989 1.5
vertex 2.11497486191092e-015 23.3299999999989 0.0
endloop
endfacet
facet normal 0.0 -1.0 0.0
outer loop
vertex 0.500000000000002 23.3299999999989 1.5
vertex -0.0999999999999979 23.3299999999989 0.0
vertex 2.11497486191092e-015 23.3299999999989 0.0
endloop
endfacet
facet normal 0.0 -1.0 0.0
outer loop
vertex -0.0999999999999979 23.3299999999989 0.0
vertex 0.500000000000002 23.3299999999989 1.5
vertex -0.0999999999999982 23.3299999999989 1.5
endloop
endfacet
facet normal 0.0 0.0 -1.0
outer loop
vertex -0.0999999999999982 23.3299999999989 1.5
vertex 0.500000000000001 15.5300000000005 1.5
vertex -0.0999999999999994 15.5300000000005 1.5
endloop
endfacet
facet normal 0.0 0.0 -1.0
outer loop
vertex 0.500000000000001 15.5300000000005 1.5
vertex -0.0999999999999982 23.3299999999989 1.5
vertex 0.500000000000002 23.3299999999989 1.5
endloop
endfacet
facet normal -0.0 1.0 -0.0
outer loop
vertex -0.0999999999999994 15.5300000000005 1.5
vertex 9.6936347837584e-016 15.5300000000005 0.0
vertex -0.0999999999999991 15.5300000000005 0.0
endloop
endfacet
facet normal -0.0 1.0 -0.0
outer loop
vertex 9.6936347837584e-016 15.5300000000005 0.0
vertex -0.0999999999999994 15.5300000000005 1.5
vertex 0.500000000000001 15.5300000000005 1.5
endloop
endfacet
facet normal -0.948683298050514 -1.3088533888382e-017 0.316227766016838
outer loop
vertex 0.500000000000001 38.4699999999996 1.5
vertex 6.16867668057353e-016 30.6700000000011 0.0
vertex 0.500000000000001 30.6700000000011 1.5
endloop
endfacet
facet normal -0.948683298050514 -1.3088533888382e-017 0.316227766016838
outer loop
vertex 6.16867668057353e-016 30.6700000000011 0.0
vertex 0.500000000000001 38.4699999999996 1.5
vertex 0.0 38.4699999999996 0.0
endloop
endfacet
facet normal 0.0 -1.0 0.0
outer loop
vertex 0.500000000000001 38.4699999999996 1.5
vertex -0.1 38.4699999999996 0.0
vertex 0.0 38.4699999999996 0.0
endloop
endfacet
facet normal 0.0 -1.0 0.0
outer loop
vertex -0.1 38.4699999999996 0.0
vertex 0.500000000000001 38.4699999999996 1.5
vertex -0.0999999999999988 38.4699999999996 1.5
endloop
endfacet
facet normal 0.0 0.0 -1.0
outer loop
vertex -0.0999999999999988 38.4699999999996 1.5
vertex 0.500000000000001 30.6700000000011 1.5
vertex -0.0999999999999992 30.6700000000011 1.5
endloop
endfacet
facet normal 0.0 0.0 -1.0
outer loop
vertex 0.500000000000001 30.6700000000011 1.5
vertex -0.0999999999999988 38.4699999999996 1.5
vertex 0.500000000000001 38.4699999999996 1.5
endloop
endfacet
facet normal -0.0 1.0 -0.0
outer loop
vertex -0.0999999999999992 30.6700000000011 1.5
vertex 6.16867668057353e-016 30.6700000000011 0.0
vertex -0.0999999999999994 30.6700000000011 0.0
endloop
endfacet
facet normal -0.0 1.0 -0.0
outer loop
vertex 6.16867668057353e-016 30.6700000000011 0.0
vertex -0.0999999999999992 30.6700000000011 1.5
vertex 0.500000000000001 30.6700000000011 1.5
endloop
endfacet
facet normal -0.948683298050514 -1.26631318043305e-016 0.316227766016838
outer loop
vertex 0.499999999999998 54.0 1.5
vertex -1.67435509901281e-015 45.8100000000017 0.0
vertex 0.500000000000001 45.8100000000017 1.5
endloop
endfacet
facet normal -0.948683298050514 -1.26631318043305e-016 0.316227766016838
outer loop
vertex -1.67435509901281e-015 45.8100000000017 0.0
vertex 0.499999999999998 54.0 1.5
vertex -1.40998324127395e-015 54.0 0.0
endloop
endfacet
facet normal 0.0 0.0 -1.0
outer loop
vertex 0.499999999999998 54.0 1.5
vertex -0.0999999999999993 45.8100000000017 1.5
vertex -0.100000000000002 54.0 1.5
endloop
endfacet
facet normal 0.0 0.0 -1.0
outer loop
vertex -0.0999999999999993 45.8100000000017 1.5
vertex 0.499999999999998 54.0 1.5
vertex 0.500000000000001 45.8100000000017 1.5
endloop
endfacet
facet normal -0.0 1.0 -0.0
outer loop
vertex -0.0999999999999993 45.8100000000017 1.5
vertex -1.67435509901281e-015 45.8100000000017 0.0
vertex -0.100000000000002 45.8100000000017 0.0
endloop
endfacet
facet normal -0.0 1.0 -0.0
outer loop
vertex -1.67435509901281e-015 45.8100000000017 0.0
vertex -0.0999999999999993 45.8100000000017 1.5
vertex 0.500000000000001 45.8100000000017 1.5
endloop
endfacet
endsolid keyboard-support-pad
