solid keyboard-button-grid
facet normal 0.0 0.0 -1.0
outer loop
vertex 15.16 16.0 0.0
vertex 8.56 7.4 0.0
vertex 8.36 16.0 0.0
endloop
endfacet
facet normal 0.0 0.0 -1.0
outer loop
vertex 8.56 7.4 0.0
vertex 15.16 16.0 0.0
vertex 14.96 7.4 0.0
endloop
endfacet
facet normal 0.0 0.0 -1.0
outer loop
vertex 14.96 7.4 0.0
vertex 15.16 16.0 0.0
vertex 14.96 1.0 0.0
endloop
endfacet
facet normal 0.0 0.0 -1.0
outer loop
vertex -0.5 24.1 0.0
vertex 0.799999999999998 22.8 0.0
vertex -0.5 -0.5 0.0
endloop
endfacet
facet normal 0.0 0.0 -1.0
outer loop
vertex 0.799999999999998 22.8 0.0
vertex -0.5 24.1 0.0
vertex 31.6 24.1 0.0
endloop
endfacet
facet normal 0.0 0.0 -1.0
outer loop
vertex 0.799999999999998 22.8 0.0
vertex 31.6 24.1 0.0
vertex 7.6 22.8 0.0
endloop
endfacet
facet normal 0.0 0.0 -1.0
outer loop
vertex 7.6 22.8 0.0
vertex 31.6 24.1 0.0
vertex 8.36 22.8 0.0
endloop
endfacet
facet normal 0.0 0.0 -1.0
outer loop
vertex 7.6 22.8 0.0
vertex 8.36 22.8 0.0
vertex 7.6 7.6 0.0
endloop
endfacet
facet normal 0.0 0.0 -1.0
outer loop
vertex 7.6 7.6 0.0
vertex 8.36 22.8 0.0
vertex 7.6 0.8 0.0
endloop
endfacet
facet normal 0.0 0.0 -1.0
outer loop
vertex 8.36 22.8 0.0
vertex 31.6 24.1 0.0
vertex 15.16 22.8 0.0
endloop
endfacet
facet normal 0.0 0.0 -1.0
outer loop
vertex 15.16 22.8 0.0
vertex 31.6 24.1 0.0
vertex 15.94 22.8 0.0
endloop
endfacet
facet normal 0.0 0.0 -1.0
outer loop
vertex 15.16 22.8 0.0
vertex 15.94 22.8 0.0
vertex 15.16 16.0 0.0
endloop
endfacet
facet normal 0.0 0.0 -1.0
outer loop
vertex 15.94 22.8 0.0
vertex 31.6 24.1 0.0
vertex 22.74 22.8 0.0
endloop
endfacet
facet normal 0.0 0.0 -1.0
outer loop
vertex 22.74 22.8 0.0
vertex 31.6 24.1 0.0
vertex 23.5 22.8 0.0
endloop
endfacet
facet normal 0.0 0.0 -1.0
outer loop
vertex 22.74 22.8 0.0
vertex 23.5 22.8 0.0
vertex 22.74 16.0 0.0
endloop
endfacet
facet normal 0.0 0.0 -1.0
outer loop
vertex 22.74 16.0 0.0
vertex 23.5 22.8 0.0
vertex 22.74 7.6 0.0
endloop
endfacet
facet normal 0.0 0.0 -1.0
outer loop
vertex 22.74 7.6 0.0
vertex 23.5 22.8 0.0
vertex 22.74 0.800000000000001 0.0
endloop
endfacet
facet normal 0.0 0.0 -1.0
outer loop
vertex 23.5 22.8 0.0
vertex 31.6 24.1 0.0
vertex 30.3 22.8 0.0
endloop
endfacet
facet normal 0.0 0.0 -1.0
outer loop
vertex 30.3 22.8 0.0
vertex 31.6 24.1 0.0
vertex 30.3 16.0 0.0
endloop
endfacet
facet normal 0.0 0.0 -1.0
outer loop
vertex 30.3 16.0 0.0
vertex 31.6 24.1 0.0
vertex 30.3 7.6 0.0
endloop
endfacet
facet normal 0.0 0.0 -1.0
outer loop
vertex 30.3 7.6 0.0
vertex 31.6 24.1 0.0
vertex 30.3 0.800000000000001 0.0
endloop
endfacet
facet normal 0.0 0.0 -1.0
outer loop
vertex -0.5 -0.5 0.0
vertex 0.8 0.8 0.0
vertex 31.6 -0.5 0.0
endloop
endfacet
facet normal 0.0 0.0 -1.0
outer loop
vertex 0.8 0.8 0.0
vertex -0.5 -0.5 0.0
vertex 0.799999999999998 16.0 0.0
endloop
endfacet
facet normal 0.0 0.0 -1.0
outer loop
vertex 0.799999999999998 16.0 0.0
vertex -0.5 -0.5 0.0
vertex 0.799999999999998 22.8 0.0
endloop
endfacet
facet normal 0.0 0.0 -1.0
outer loop
vertex 0.8 0.8 0.0
vertex 0.799999999999998 16.0 0.0
vertex 0.8 7.6 0.0
endloop
endfacet
facet normal 0.0 0.0 -1.0
outer loop
vertex 31.6 -0.5 0.0
vertex 0.8 0.8 0.0
vertex 7.6 0.8 0.0
endloop
endfacet
facet normal 0.0 0.0 -1.0
outer loop
vertex 31.6 -0.5 0.0
vertex 7.6 0.8 0.0
vertex 8.56 1.0 0.0
endloop
endfacet
facet normal 0.0 0.0 -1.0
outer loop
vertex 8.56 1.0 0.0
vertex 7.6 0.8 0.0
vertex 8.36 16.0 0.0
endloop
endfacet
facet normal 0.0 0.0 -1.0
outer loop
vertex 8.36 16.0 0.0
vertex 7.6 0.8 0.0
vertex 8.36 22.8 0.0
endloop
endfacet
facet normal 0.0 0.0 -1.0
outer loop
vertex 8.56 1.0 0.0
vertex 8.36 16.0 0.0
vertex 8.56 7.4 0.0
endloop
endfacet
facet normal 0.0 0.0 -1.0
outer loop
vertex 31.6 -0.5 0.0
vertex 8.56 1.0 0.0
vertex 15.94 0.800000000000001 0.0
endloop
endfacet
facet normal 0.0 0.0 -1.0
outer loop
vertex 15.94 0.800000000000001 0.0
vertex 8.56 1.0 0.0
vertex 14.96 1.0 0.0
endloop
endfacet
facet normal 0.0 0.0 -1.0
outer loop
vertex 15.94 0.800000000000001 0.0
vertex 14.96 1.0 0.0
vertex 15.16 16.0 0.0
endloop
endfacet
facet normal 0.0 0.0 -1.0
outer loop
vertex 15.94 0.800000000000001 0.0
vertex 15.16 16.0 0.0
vertex 15.94 22.8 0.0
endloop
endfacet
facet normal 0.0 0.0 -1.0
outer loop
vertex 15.94 0.800000000000001 0.0
vertex 15.94 22.8 0.0
vertex 15.94 16.0 0.0
endloop
endfacet
facet normal 0.0 0.0 -1.0
outer loop
vertex 15.94 0.800000000000001 0.0
vertex 15.94 16.0 0.0
vertex 15.94 7.6 0.0
endloop
endfacet
facet normal 0.0 0.0 -1.0
outer loop
vertex 31.6 -0.5 0.0
vertex 15.94 0.800000000000001 0.0
vertex 22.74 0.800000000000001 0.0
endloop
endfacet
facet normal 0.0 0.0 -1.0
outer loop
vertex 31.6 -0.5 0.0
vertex 22.74 0.800000000000001 0.0
vertex 23.5 0.800000000000001 0.0
endloop
endfacet
facet normal 0.0 0.0 -1.0
outer loop
vertex 23.5 0.800000000000001 0.0
vertex 22.74 0.800000000000001 0.0
vertex 23.5 22.8 0.0
endloop
endfacet
facet normal 0.0 0.0 -1.0
outer loop
vertex 23.5 0.800000000000001 0.0
vertex 23.5 22.8 0.0
vertex 23.5 16.0 0.0
endloop
endfacet
facet normal 0.0 0.0 -1.0
outer loop
vertex 23.5 0.800000000000001 0.0
vertex 23.5 16.0 0.0
vertex 23.5 7.6 0.0
endloop
endfacet
facet normal 0.0 0.0 -1.0
outer loop
vertex 31.6 -0.5 0.0
vertex 23.5 0.800000000000001 0.0
vertex 30.3 0.800000000000001 0.0
endloop
endfacet
facet normal 0.0 0.0 -1.0
outer loop
vertex 31.6 -0.5 0.0
vertex 30.3 0.800000000000001 0.0
vertex 31.6 24.1 0.0
endloop
endfacet
facet normal 0.0 0.0 -1.0
outer loop
vertex 30.3 16.0 0.0
vertex 23.5 7.6 0.0
vertex 23.5 16.0 0.0
endloop
endfacet
facet normal 0.0 0.0 -1.0
outer loop
vertex 23.5 7.6 0.0
vertex 30.3 16.0 0.0
vertex 30.3 7.6 0.0
endloop
endfacet
facet normal 0.0 0.0 -1.0
outer loop
vertex 22.74 16.0 0.0
vertex 15.94 7.6 0.0
vertex 15.94 16.0 0.0
endloop
endfacet
facet normal 0.0 0.0 -1.0
outer loop
vertex 15.94 7.6 0.0
vertex 22.74 16.0 0.0
vertex 22.74 7.6 0.0
endloop
endfacet
facet normal 0.0 0.0 -1.0
outer loop
vertex 7.6 16.0 0.0
vertex 0.8 7.6 0.0
vertex 0.799999999999998 16.0 0.0
endloop
endfacet
facet normal 0.0 0.0 -1.0
outer loop
vertex 0.8 7.6 0.0
vertex 7.6 16.0 0.0
vertex 7.6 7.6 0.0
endloop
endfacet
facet normal 0.0 0.0 -1.0
outer loop
vertex 7.6 7.6 0.0
vertex 7.6 16.0 0.0
vertex 7.6 22.8 0.0
endloop
endfacet
facet normal -0.0 -0.0 1.0
outer loop
vertex 0.799999999999998 16.0 1.0
vertex 0.8 7.6 1.0
vertex 7.6 16.0 1.0
endloop
endfacet
facet normal -0.0 -0.0 1.0
outer loop
vertex 0.8 7.6 1.0
vertex 0.799999999999998 16.0 1.0
vertex 0.8 0.8 1.0
endloop
endfacet
facet normal -0.0 -0.0 1.0
outer loop
vertex 7.6 16.0 1.0
vertex 0.8 7.6 1.0
vertex 7.6 7.6 1.0
endloop
endfacet
facet normal -0.0 -0.0 1.0
outer loop
vertex 7.6 16.0 1.0
vertex 7.6 7.6 1.0
vertex 7.6 22.8 1.0
endloop
endfacet
facet normal -0.0 -0.0 1.0
outer loop
vertex -0.5 -0.5 1.0
vertex 0.8 0.8 1.0
vertex -0.5 24.1 1.0
endloop
endfacet
facet normal -0.0 -0.0 1.0
outer loop
vertex 0.8 0.8 1.0
vertex -0.5 -0.5 1.0
vertex 31.6 -0.5 1.0
endloop
endfacet
facet normal -0.0 -0.0 1.0
outer loop
vertex -0.5 24.1 1.0
vertex 0.8 0.8 1.0
vertex 0.799999999999998 16.0 1.0
endloop
endfacet
facet normal -0.0 -0.0 1.0
outer loop
vertex -0.5 24.1 1.0
vertex 0.799999999999998 16.0 1.0
vertex 0.799999999999998 22.8 1.0
endloop
endfacet
facet normal -0.0 -0.0 1.0
outer loop
vertex 0.8 0.8 1.0
vertex 31.6 -0.5 1.0
vertex 7.6 0.8 1.0
endloop
endfacet
facet normal -0.0 -0.0 1.0
outer loop
vertex 7.6 0.8 1.0
vertex 31.6 -0.5 1.0
vertex 8.56 1.0 1.0
endloop
endfacet
facet normal -0.0 -0.0 1.0
outer loop
vertex 7.6 0.8 1.0
vertex 8.56 1.0 1.0
vertex 7.6 7.6 1.0
endloop
endfacet
facet normal -0.0 -0.0 1.0
outer loop
vertex 7.6 7.6 1.0
vertex 8.56 1.0 1.0
vertex 7.6 22.8 1.0
endloop
endfacet
facet normal -0.0 -0.0 1.0
outer loop
vertex 7.6 22.8 1.0
vertex 8.56 1.0 1.0
vertex 8.36 16.0 1.0
endloop
endfacet
facet normal -0.0 -0.0 1.0
outer loop
vertex 8.56 1.0 1.0
vertex 31.6 -0.5 1.0
vertex 15.94 0.800000000000001 1.0
endloop
endfacet
facet normal -0.0 -0.0 1.0
outer loop
vertex 8.56 1.0 1.0
vertex 15.94 0.800000000000001 1.0
vertex 14.96 1.0 1.0
endloop
endfacet
facet normal -0.0 -0.0 1.0
outer loop
vertex 14.96 1.0 1.0
vertex 15.94 0.800000000000001 1.0
vertex 14.96 7.4 1.0
endloop
endfacet
facet normal -0.0 -0.0 1.0
outer loop
vertex 14.96 7.4 1.0
vertex 15.94 0.800000000000001 1.0
vertex 15.16 16.0 1.0
endloop
endfacet
facet normal -0.0 -0.0 1.0
outer loop
vertex 15.16 16.0 1.0
vertex 15.94 0.800000000000001 1.0
vertex 15.16 22.8 1.0
endloop
endfacet
facet normal -0.0 -0.0 1.0
outer loop
vertex 15.94 0.800000000000001 1.0
vertex 31.6 -0.5 1.0
vertex 22.74 0.800000000000001 1.0
endloop
endfacet
facet normal -0.0 -0.0 1.0
outer loop
vertex 22.74 0.800000000000001 1.0
vertex 31.6 -0.5 1.0
vertex 23.5 0.800000000000001 1.0
endloop
endfacet
facet normal -0.0 -0.0 1.0
outer loop
vertex 22.74 0.800000000000001 1.0
vertex 23.5 0.800000000000001 1.0
vertex 22.74 7.6 1.0
endloop
endfacet
facet normal -0.0 -0.0 1.0
outer loop
vertex 22.74 7.6 1.0
vertex 23.5 0.800000000000001 1.0
vertex 22.74 16.0 1.0
endloop
endfacet
facet normal -0.0 -0.0 1.0
outer loop
vertex 22.74 16.0 1.0
vertex 23.5 0.800000000000001 1.0
vertex 22.74 22.8 1.0
endloop
endfacet
facet normal -0.0 -0.0 1.0
outer loop
vertex 23.5 0.800000000000001 1.0
vertex 31.6 -0.5 1.0
vertex 30.3 0.800000000000001 1.0
endloop
endfacet
facet normal -0.0 -0.0 1.0
outer loop
vertex 30.3 0.800000000000001 1.0
vertex 31.6 -0.5 1.0
vertex 30.3 7.6 1.0
endloop
endfacet
facet normal -0.0 -0.0 1.0
outer loop
vertex 30.3 7.6 1.0
vertex 31.6 -0.5 1.0
vertex 30.3 16.0 1.0
endloop
endfacet
facet normal -0.0 -0.0 1.0
outer loop
vertex 30.3 16.0 1.0
vertex 31.6 -0.5 1.0
vertex 30.3 22.8 1.0
endloop
endfacet
facet normal -0.0 -0.0 1.0
outer loop
vertex 0.799999999999998 22.8 1.0
vertex 31.6 24.1 1.0
vertex -0.5 24.1 1.0
endloop
endfacet
facet normal -0.0 -0.0 1.0
outer loop
vertex 31.6 24.1 1.0
vertex 0.799999999999998 22.8 1.0
vertex 7.6 22.8 1.0
endloop
endfacet
facet normal -0.0 -0.0 1.0
outer loop
vertex 31.6 24.1 1.0
vertex 7.6 22.8 1.0
vertex 8.36 22.8 1.0
endloop
endfacet
facet normal -0.0 -0.0 1.0
outer loop
vertex 8.36 22.8 1.0
vertex 7.6 22.8 1.0
vertex 8.36 16.0 1.0
endloop
endfacet
facet normal -0.0 -0.0 1.0
outer loop
vertex 31.6 24.1 1.0
vertex 8.36 22.8 1.0
vertex 15.16 22.8 1.0
endloop
endfacet
facet normal -0.0 -0.0 1.0
outer loop
vertex 31.6 24.1 1.0
vertex 15.16 22.8 1.0
vertex 15.94 22.8 1.0
endloop
endfacet
facet normal -0.0 -0.0 1.0
outer loop
vertex 15.94 22.8 1.0
vertex 15.16 22.8 1.0
vertex 15.94 0.800000000000001 1.0
endloop
endfacet
facet normal -0.0 -0.0 1.0
outer loop
vertex 15.94 22.8 1.0
vertex 15.94 0.800000000000001 1.0
vertex 15.94 7.6 1.0
endloop
endfacet
facet normal -0.0 -0.0 1.0
outer loop
vertex 15.94 22.8 1.0
vertex 15.94 7.6 1.0
vertex 15.94 16.0 1.0
endloop
endfacet
facet normal -0.0 -0.0 1.0
outer loop
vertex 31.6 24.1 1.0
vertex 15.94 22.8 1.0
vertex 22.74 22.8 1.0
endloop
endfacet
facet normal -0.0 -0.0 1.0
outer loop
vertex 31.6 24.1 1.0
vertex 22.74 22.8 1.0
vertex 23.5 22.8 1.0
endloop
endfacet
facet normal -0.0 -0.0 1.0
outer loop
vertex 23.5 22.8 1.0
vertex 22.74 22.8 1.0
vertex 23.5 0.800000000000001 1.0
endloop
endfacet
facet normal -0.0 -0.0 1.0
outer loop
vertex 23.5 22.8 1.0
vertex 23.5 0.800000000000001 1.0
vertex 23.5 7.6 1.0
endloop
endfacet
facet normal -0.0 -0.0 1.0
outer loop
vertex 23.5 22.8 1.0
vertex 23.5 7.6 1.0
vertex 23.5 16.0 1.0
endloop
endfacet
facet normal -0.0 -0.0 1.0
outer loop
vertex 31.6 24.1 1.0
vertex 23.5 22.8 1.0
vertex 30.3 22.8 1.0
endloop
endfacet
facet normal -0.0 -0.0 1.0
outer loop
vertex 31.6 24.1 1.0
vertex 30.3 22.8 1.0
vertex 31.6 -0.5 1.0
endloop
endfacet
facet normal -0.0 -0.0 1.0
outer loop
vertex 30.3 7.6 1.0
vertex 23.5 16.0 1.0
vertex 23.5 7.6 1.0
endloop
endfacet
facet normal -0.0 -0.0 1.0
outer loop
vertex 23.5 16.0 1.0
vertex 30.3 7.6 1.0
vertex 30.3 16.0 1.0
endloop
endfacet
facet normal -0.0 -0.0 1.0
outer loop
vertex 22.74 7.6 1.0
vertex 15.94 16.0 1.0
vertex 15.94 7.6 1.0
endloop
endfacet
facet normal -0.0 -0.0 1.0
outer loop
vertex 15.94 16.0 1.0
vertex 22.74 7.6 1.0
vertex 22.74 16.0 1.0
endloop
endfacet
facet normal -0.0 -0.0 1.0
outer loop
vertex 8.36 16.0 1.0
vertex 8.56 7.4 1.0
vertex 15.16 16.0 1.0
endloop
endfacet
facet normal -0.0 -0.0 1.0
outer loop
vertex 8.56 7.4 1.0
vertex 8.36 16.0 1.0
vertex 8.56 1.0 1.0
endloop
endfacet
facet normal -0.0 -0.0 1.0
outer loop
vertex 15.16 16.0 1.0
vertex 8.56 7.4 1.0
vertex 14.96 7.4 1.0
endloop
endfacet
facet normal 0.0 1.0 0.0
outer loop
vertex -0.5 24.1 1.0
vertex 31.6 24.1 0.0
vertex -0.5 24.1 0.0
endloop
endfacet
facet normal 0.0 1.0 0.0
outer loop
vertex 31.6 24.1 0.0
vertex -0.5 24.1 1.0
vertex 31.6 24.1 1.0
endloop
endfacet
facet normal 1.0 0.0 0.0
outer loop
vertex 31.6 24.1 0.0
vertex 31.6 -0.5 1.0
vertex 31.6 -0.5 0.0
endloop
endfacet
facet normal 1.0 0.0 0.0
outer loop
vertex 31.6 -0.5 1.0
vertex 31.6 24.1 0.0
vertex 31.6 24.1 1.0
endloop
endfacet
facet normal -0.0 -1.0 -0.0
outer loop
vertex 31.6 -0.5 1.0
vertex -0.5 -0.5 0.0
vertex 31.6 -0.5 0.0
endloop
endfacet
facet normal -0.0 -1.0 -0.0
outer loop
vertex -0.5 -0.5 0.0
vertex 31.6 -0.5 1.0
vertex -0.5 -0.5 1.0
endloop
endfacet
facet normal -1.0 0.0 0.0
outer loop
vertex -0.5 24.1 1.0
vertex -0.5 -0.5 0.0
vertex -0.5 -0.5 1.0
endloop
endfacet
facet normal -1.0 0.0 0.0
outer loop
vertex -0.5 -0.5 0.0
vertex -0.5 24.1 1.0
vertex -0.5 24.1 0.0
endloop
endfacet
facet normal 1.0 0.0 0.0
outer loop
vertex 8.56 7.4 0.0
vertex 8.56 1.0 1.0
vertex 8.56 1.0 0.0
endloop
endfacet
facet normal 1.0 0.0 0.0
outer loop
vertex 8.56 1.0 1.0
vertex 8.56 7.4 0.0
vertex 8.56 7.4 1.0
endloop
endfacet
facet normal -0.0 1.0 0.0
outer loop
vertex 8.56 1.0 1.0
vertex 14.96 1.0 0.0
vertex 8.56 1.0 0.0
endloop
endfacet
facet normal -0.0 1.0 0.0
outer loop
vertex 14.96 1.0 0.0
vertex 8.56 1.0 1.0
vertex 14.96 1.0 1.0
endloop
endfacet
facet normal -1.0 0.0 0.0
outer loop
vertex 14.96 7.4 1.0
vertex 14.96 1.0 0.0
vertex 14.96 1.0 1.0
endloop
endfacet
facet normal -1.0 0.0 0.0
outer loop
vertex 14.96 1.0 0.0
vertex 14.96 7.4 1.0
vertex 14.96 7.4 0.0
endloop
endfacet
facet normal -0.0 -1.0 -0.0
outer loop
vertex 14.96 7.4 1.0
vertex 8.56 7.4 0.0
vertex 14.96 7.4 0.0
endloop
endfacet
facet normal -0.0 -1.0 -0.0
outer loop
vertex 8.56 7.4 0.0
vertex 14.96 7.4 1.0
vertex 8.56 7.4 1.0
endloop
endfacet
facet normal -1.0 2.07350476657934e-016 0.0
outer loop
vertex 7.6 22.8 1.0
vertex 7.6 16.0 0.0
vertex 7.6 16.0 1.0
endloop
endfacet
facet normal -1.0 2.07350476657934e-016 0.0
outer loop
vertex 7.6 16.0 0.0
vertex 7.6 22.8 1.0
vertex 7.6 22.8 0.0
endloop
endfacet
facet normal -0.0 -1.0 -0.0
outer loop
vertex 7.6 22.8 1.0
vertex 0.799999999999998 22.8 0.0
vertex 7.6 22.8 0.0
endloop
endfacet
facet normal -0.0 -1.0 -0.0
outer loop
vertex 0.799999999999998 22.8 0.0
vertex 7.6 22.8 1.0
vertex 0.799999999999998 22.8 1.0
endloop
endfacet
facet normal 1.0 5.18376191644834e-017 0.0
outer loop
vertex 0.799999999999998 22.8 0.0
vertex 0.799999999999998 16.0 1.0
vertex 0.799999999999998 16.0 0.0
endloop
endfacet
facet normal 1.0 5.18376191644834e-017 0.0
outer loop
vertex 0.799999999999998 16.0 1.0
vertex 0.799999999999998 22.8 0.0
vertex 0.799999999999998 22.8 1.0
endloop
endfacet
facet normal -0.0 1.0 0.0
outer loop
vertex 0.799999999999998 16.0 1.0
vertex 7.6 16.0 0.0
vertex 0.799999999999998 16.0 0.0
endloop
endfacet
facet normal -0.0 1.0 0.0
outer loop
vertex 7.6 16.0 0.0
vertex 0.799999999999998 16.0 1.0
vertex 7.6 16.0 1.0
endloop
endfacet
facet normal -1.0 0.0 0.0
outer loop
vertex 15.16 22.8 1.0
vertex 15.16 16.0 0.0
vertex 15.16 16.0 1.0
endloop
endfacet
facet normal -1.0 0.0 0.0
outer loop
vertex 15.16 16.0 0.0
vertex 15.16 22.8 1.0
vertex 15.16 22.8 0.0
endloop
endfacet
facet normal -0.0 -1.0 -0.0
outer loop
vertex 15.16 22.8 1.0
vertex 8.36 22.8 0.0
vertex 15.16 22.8 0.0
endloop
endfacet
facet normal -0.0 -1.0 -0.0
outer loop
vertex 8.36 22.8 0.0
vertex 15.16 22.8 1.0
vertex 8.36 22.8 1.0
endloop
endfacet
facet normal 1.0 0.0 0.0
outer loop
vertex 8.36 22.8 0.0
vertex 8.36 16.0 1.0
vertex 8.36 16.0 0.0
endloop
endfacet
facet normal 1.0 0.0 0.0
outer loop
vertex 8.36 16.0 1.0
vertex 8.36 22.8 0.0
vertex 8.36 22.8 1.0
endloop
endfacet
facet normal -0.0 1.0 0.0
outer loop
vertex 8.36 16.0 1.0
vertex 15.16 16.0 0.0
vertex 8.36 16.0 0.0
endloop
endfacet
facet normal -0.0 1.0 0.0
outer loop
vertex 15.16 16.0 0.0
vertex 8.36 16.0 1.0
vertex 15.16 16.0 1.0
endloop
endfacet
facet normal -1.0 0.0 0.0
outer loop
vertex 22.74 22.8 1.0
vertex 22.74 16.0 0.0
vertex 22.74 16.0 1.0
endloop
endfacet
facet normal -1.0 0.0 0.0
outer loop
vertex 22.74 16.0 0.0
vertex 22.74 22.8 1.0
vertex 22.74 22.8 0.0
endloop
endfacet
facet normal -0.0 -1.0 -0.0
outer loop
vertex 22.74 22.8 1.0
vertex 15.94 22.8 0.0
vertex 22.74 22.8 0.0
endloop
endfacet
facet normal -0.0 -1.0 -0.0
outer loop
vertex 15.94 22.8 0.0
vertex 22.74 22.8 1.0
vertex 15.94 22.8 1.0
endloop
endfacet
facet normal 1.0 0.0 0.0
outer loop
vertex 15.94 22.8 0.0
vertex 15.94 16.0 1.0
vertex 15.94 16.0 0.0
endloop
endfacet
facet normal 1.0 0.0 0.0
outer loop
vertex 15.94 16.0 1.0
vertex 15.94 22.8 0.0
vertex 15.94 22.8 1.0
endloop
endfacet
facet normal -0.0 1.0 0.0
outer loop
vertex 15.94 16.0 1.0
vertex 22.74 16.0 0.0
vertex 15.94 16.0 0.0
endloop
endfacet
facet normal -0.0 1.0 0.0
outer loop
vertex 22.74 16.0 0.0
vertex 15.94 16.0 1.0
vertex 22.74 16.0 1.0
endloop
endfacet
facet normal -1.0 0.0 0.0
outer loop
vertex 30.3 22.8 1.0
vertex 30.3 16.0 0.0
vertex 30.3 16.0 1.0
endloop
endfacet
facet normal -1.0 0.0 0.0
outer loop
vertex 30.3 16.0 0.0
vertex 30.3 22.8 1.0
vertex 30.3 22.8 0.0
endloop
endfacet
facet normal -4.14700953315867e-016 -1.0 -0.0
outer loop
vertex 30.3 22.8 1.0
vertex 23.5 22.8 0.0
vertex 30.3 22.8 0.0
endloop
endfacet
facet normal -4.14700953315867e-016 -1.0 -0.0
outer loop
vertex 23.5 22.8 0.0
vertex 30.3 22.8 1.0
vertex 23.5 22.8 1.0
endloop
endfacet
facet normal 1.0 0.0 0.0
outer loop
vertex 23.5 22.8 0.0
vertex 23.5 16.0 1.0
vertex 23.5 16.0 0.0
endloop
endfacet
facet normal 1.0 0.0 0.0
outer loop
vertex 23.5 16.0 1.0
vertex 23.5 22.8 0.0
vertex 23.5 22.8 1.0
endloop
endfacet
facet normal -0.0 1.0 0.0
outer loop
vertex 23.5 16.0 1.0
vertex 30.3 16.0 0.0
vertex 23.5 16.0 0.0
endloop
endfacet
facet normal -0.0 1.0 0.0
outer loop
vertex 30.3 16.0 0.0
vertex 23.5 16.0 1.0
vertex 30.3 16.0 1.0
endloop
endfacet
facet normal 1.0 0.0 0.0
outer loop
vertex 0.8 7.6 0.0
vertex 0.8 0.8 1.0
vertex 0.8 0.8 0.0
endloop
endfacet
facet normal 1.0 0.0 0.0
outer loop
vertex 0.8 0.8 1.0
vertex 0.8 7.6 0.0
vertex 0.8 7.6 1.0
endloop
endfacet
facet normal -0.0 1.0 0.0
outer loop
vertex 0.8 0.8 1.0
vertex 7.6 0.8 0.0
vertex 0.8 0.8 0.0
endloop
endfacet
facet normal -0.0 1.0 0.0
outer loop
vertex 7.6 0.8 0.0
vertex 0.8 0.8 1.0
vertex 7.6 0.8 1.0
endloop
endfacet
facet normal -1.0 0.0 0.0
outer loop
vertex 7.6 7.6 1.0
vertex 7.6 0.8 0.0
vertex 7.6 0.8 1.0
endloop
endfacet
facet normal -1.0 0.0 0.0
outer loop
vertex 7.6 0.8 0.0
vertex 7.6 7.6 1.0
vertex 7.6 7.6 0.0
endloop
endfacet
facet normal -0.0 -1.0 -0.0
outer loop
vertex 7.6 7.6 1.0
vertex 0.8 7.6 0.0
vertex 7.6 7.6 0.0
endloop
endfacet
facet normal -0.0 -1.0 -0.0
outer loop
vertex 0.8 7.6 0.0
vertex 7.6 7.6 1.0
vertex 0.8 7.6 1.0
endloop
endfacet
facet normal -0.0 1.0 0.0
outer loop
vertex 15.94 0.800000000000001 1.0
vertex 22.74 0.800000000000001 0.0
vertex 15.94 0.800000000000001 0.0
endloop
endfacet
facet normal -0.0 1.0 0.0
outer loop
vertex 22.74 0.800000000000001 0.0
vertex 15.94 0.800000000000001 1.0
vertex 22.74 0.800000000000001 1.0
endloop
endfacet
facet normal -1.0 0.0 0.0
outer loop
vertex 22.74 7.6 1.0
vertex 22.74 0.800000000000001 0.0
vertex 22.74 0.800000000000001 1.0
endloop
endfacet
facet normal -1.0 0.0 0.0
outer loop
vertex 22.74 0.800000000000001 0.0
vertex 22.74 7.6 1.0
vertex 22.74 7.6 0.0
endloop
endfacet
facet normal -0.0 -1.0 -0.0
outer loop
vertex 22.74 7.6 1.0
vertex 15.94 7.6 0.0
vertex 22.74 7.6 0.0
endloop
endfacet
facet normal -0.0 -1.0 -0.0
outer loop
vertex 15.94 7.6 0.0
vertex 22.74 7.6 1.0
vertex 15.94 7.6 1.0
endloop
endfacet
facet normal 1.0 0.0 0.0
outer loop
vertex 15.94 7.6 0.0
vertex 15.94 0.800000000000001 1.0
vertex 15.94 0.800000000000001 0.0
endloop
endfacet
facet normal 1.0 0.0 0.0
outer loop
vertex 15.94 0.800000000000001 1.0
vertex 15.94 7.6 0.0
vertex 15.94 7.6 1.0
endloop
endfacet
facet normal -0.0 1.0 0.0
outer loop
vertex 23.5 0.800000000000001 1.0
vertex 30.3 0.800000000000001 0.0
vertex 23.5 0.800000000000001 0.0
endloop
endfacet
facet normal -0.0 1.0 0.0
outer loop
vertex 30.3 0.800000000000001 0.0
vertex 23.5 0.800000000000001 1.0
vertex 30.3 0.800000000000001 1.0
endloop
endfacet
facet normal -1.0 0.0 0.0
outer loop
vertex 30.3 7.6 1.0
vertex 30.3 0.800000000000001 0.0
vertex 30.3 0.800000000000001 1.0
endloop
endfacet
facet normal -1.0 0.0 0.0
outer loop
vertex 30.3 0.800000000000001 0.0
vertex 30.3 7.6 1.0
vertex 30.3 7.6 0.0
endloop
endfacet
facet normal -0.0 -1.0 -0.0
outer loop
vertex 30.3 7.6 1.0
vertex 23.5 7.6 0.0
vertex 30.3 7.6 0.0
endloop
endfacet
facet normal -0.0 -1.0 -0.0
outer loop
vertex 23.5 7.6 0.0
vertex 30.3 7.6 1.0
vertex 23.5 7.6 1.0
endloop
endfacet
facet normal 1.0 0.0 0.0
outer loop
vertex 23.5 7.6 0.0
vertex 23.5 0.800000000000001 1.0
vertex 23.5 0.800000000000001 0.0
endloop
endfacet
facet normal 1.0 0.0 0.0
outer loop
vertex 23.5 0.800000000000001 1.0
vertex 23.5 7.6 0.0
vertex 23.5 7.6 1.0
endloop
endfacet
endsolid keyboard-button-grid
