solid rubber-band-holder
facet normal -1.21902269745556e-015 -0.5 -0.866025403784439
outer loop
vertex 21.4 4.98575225023205 16.3748883958227
vertex 12.6 4.48351830585469 16.7602660556226
vertex 12.6 4.98575225023207 16.3748883958227
endloop
endfacet
facet normal -1.4487028418153e-015 -0.707106781186542 -0.707106781186553
outer loop
vertex 12.6 4.48351830585469 16.7602660556226
vertex 21.4 4.98575225023205 16.3748883958227
vertex 21.4 4.48351830585466 16.7602660556226
endloop
endfacet
facet normal -3.34528304815956e-016 -0.13052619222005 -0.991444861373811
outer loop
vertex 21.4 6.19825225023205 16.05
vertex 12.6 5.57061606585845 16.132629871249
vertex 12.6 6.19825225023207 16.05
endloop
endfacet
facet normal -6.63783385565685e-016 -0.258819045102525 -0.965925826289067
outer loop
vertex 12.6 5.57061606585845 16.132629871249
vertex 21.4 6.19825225023205 16.05
vertex 21.4 5.57061606585842 16.132629871249
endloop
endfacet
facet normal -2.51493987112427e-016 0.499999999999999 -0.866025403784439
outer loop
vertex 25.8 7.41075225023207 16.3748883958227
vertex 9.0 6.82588843460569 16.132629871249
vertex 9.0 7.41075225023206 16.3748883958227
endloop
endfacet
facet normal 4.78993677726938e-017 0.258819045102522 -0.965925826289068
outer loop
vertex 9.0 6.82588843460569 16.132629871249
vertex 25.8 7.41075225023207 16.3748883958227
vertex 25.8 6.8258884346057 16.132629871249
endloop
endfacet
facet normal -4.07610374023313e-015 -0.461550979250936 0.887113686937871
outer loop
vertex 13.4 4.98575225023205 20.5751116041772
vertex 12.6 5.57061606585845 20.817370128751
vertex 12.6 4.98575225023207 20.5751116041773
endloop
endfacet
facet normal -2.03807080083424e-015 -0.258819045102525 0.965925826289067
outer loop
vertex 12.6 5.57061606585845 20.817370128751
vertex 13.4 4.98575225023205 20.5751116041772
vertex 22.2 5.57061606585841 20.817370128751
endloop
endfacet
facet normal -2.03807080083424e-015 -0.258819045102525 0.965925826289067
outer loop
vertex 22.2 5.57061606585841 20.817370128751
vertex 13.4 4.98575225023205 20.5751116041772
vertex 21.4 4.98575225023205 20.5751116041773
endloop
endfacet
facet normal -2.03807080083424e-015 -0.258819045102525 0.965925826289067
outer loop
vertex 22.2 5.57061606585841 20.817370128751
vertex 21.4 4.98575225023205 20.5751116041773
vertex 22.2 4.98575225023204 20.5751116041773
endloop
endfacet
facet normal -6.26958718287825e-015 -0.258819045102526 -0.965925826289067
outer loop
vertex 22.2 5.57061606585841 16.132629871249
vertex 21.4 4.98575225023205 16.3748883958227
vertex 21.4 5.57061606585842 16.132629871249
endloop
endfacet
facet normal -9.63826503515663e-015 -0.5 -0.866025403784439
outer loop
vertex 21.4 4.98575225023205 16.3748883958227
vertex 22.2 5.57061606585841 16.132629871249
vertex 22.2 4.98575225023204 16.3748883958227
endloop
endfacet
facet normal -4.92172930046657e-016 0.96592582628907 0.258819045102514
outer loop
vertex 9.0 8.54062237898305 19.1026361843736
vertex 25.8 8.62325225023207 18.475
vertex 9.0 8.62325225023206 18.475
endloop
endfacet
facet normal -5.03975010709413e-016 1.0 1.78222197912938e-017
outer loop
vertex 25.8 8.62325225023207 18.475
vertex 9.0 8.54062237898305 19.1026361843736
vertex 25.8 8.54062237898306 19.1026361843736
endloop
endfacet
facet normal -4.36127506335747e-016 0.866025403784443 0.499999999999993
outer loop
vertex 9.0 8.29836385440933 19.6875
vertex 25.8 8.54062237898306 19.1026361843736
vertex 9.0 8.54062237898305 19.1026361843736
endloop
endfacet
facet normal -4.92172930046657e-016 0.96592582628907 0.258819045102514
outer loop
vertex 25.8 8.54062237898306 19.1026361843736
vertex 9.0 8.29836385440933 19.6875
vertex 25.8 8.29836385440934 19.6875
endloop
endfacet
facet normal 7.83324022929976e-016 1.72651009135586e-015 -1.0
outer loop
vertex 25.8 6.19825225023203 16.05
vertex 22.2 1.29825225023206 16.05
vertex 22.2 6.19825225023203 16.05
endloop
endfacet
facet normal 7.83324022929976e-016 1.72651009135586e-015 -1.0
outer loop
vertex 22.2 1.29825225023206 16.05
vertex 25.8 6.19825225023203 16.05
vertex 25.8 1.29825225023204 16.05
endloop
endfacet
facet normal -4.35823160264232e-016 0.866025403784443 -0.499999999999992
outer loop
vertex 9.0 8.29836385440933 17.2625
vertex 25.8 7.91298619460946 16.7602660556226
vertex 9.0 7.91298619460945 16.7602660556226
endloop
endfacet
facet normal -3.5548792562864e-016 0.707106781186546 -0.707106781186549
outer loop
vertex 25.8 7.91298619460946 16.7602660556226
vertex 9.0 8.29836385440933 17.2625
vertex 25.8 8.29836385440934 17.2625
endloop
endfacet
facet normal -1.45855734285198e-014 -0.866025403784443 -0.499999999999993
outer loop
vertex 22.2 4.09814064605477 17.2625
vertex 21.4 4.48351830585466 16.7602660556226
vertex 22.2 4.48351830585465 16.7602660556226
endloop
endfacet
facet normal -1.24618482335218e-014 -0.707106781186545 -0.70710678118655
outer loop
vertex 21.4 4.48351830585466 16.7602660556226
vertex 22.2 4.09814064605477 17.2625
vertex 21.4 4.09814064605478 17.2625
endloop
endfacet
facet normal -3.55353315644783e-016 0.258819045102523 0.965925826289068
outer loop
vertex 25.8 6.8258884346057 20.817370128751
vertex 9.0 7.41075225023206 20.5751116041773
vertex 9.0 6.82588843460569 20.817370128751
endloop
endfacet
facet normal -3.6286997023877e-016 0.499999999999999 0.866025403784439
outer loop
vertex 9.0 7.41075225023206 20.5751116041773
vertex 25.8 6.8258884346057 20.817370128751
vertex 25.8 7.41075225023207 20.5751116041773
endloop
endfacet
facet normal -5.03975010709413e-016 1.0 -8.9111098956469e-018
outer loop
vertex 9.0 8.62325225023206 18.475
vertex 25.8 8.54062237898306 17.8473638156264
vertex 9.0 8.54062237898305 17.8473638156264
endloop
endfacet
facet normal -4.81079466450512e-016 0.96592582628907 -0.258819045102514
outer loop
vertex 25.8 8.54062237898306 17.8473638156264
vertex 9.0 8.62325225023206 18.475
vertex 25.8 8.62325225023207 18.475
endloop
endfacet
facet normal 0.383262148894722 -0.915737742983149 0.120559160998773
outer loop
vertex 19.0 2.88564064605479 19.3626116041773
vertex 21.4 3.77325225023206 18.475
vertex 21.4 3.85588212148106 19.1026361843736
endloop
endfacet
facet normal -6.63783385565687e-016 -0.258819045102525 -0.965925826289067
outer loop
vertex 21.4 5.57061606585842 16.132629871249
vertex 12.6 4.98575225023207 16.3748883958227
vertex 12.6 5.57061606585845 16.132629871249
endloop
endfacet
facet normal -1.21902269745556e-015 -0.499999999999999 -0.866025403784439
outer loop
vertex 12.6 4.98575225023207 16.3748883958227
vertex 21.4 5.57061606585842 16.132629871249
vertex 21.4 4.98575225023205 16.3748883958227
endloop
endfacet
facet normal -1.44317041507333e-015 -0.991444861373811 0.130526192220048
outer loop
vertex 21.4 3.85588212148106 19.1026361843736
vertex 13.4 3.77325225023206 18.475
vertex 21.4 3.77325225023206 18.475
endloop
endfacet
facet normal -1.5180106051903e-015 -1.0 -1.87133307808585e-016
outer loop
vertex 13.4 3.77325225023206 18.475
vertex 21.4 3.85588212148106 19.1026361843736
vertex 12.6 3.77325225023208 18.475
endloop
endfacet
facet normal -1.5180106051903e-015 -1.0 1.15844428643409e-016
outer loop
vertex 12.6 3.77325225023208 18.475
vertex 21.4 3.85588212148106 19.1026361843736
vertex 13.4 3.85588212148106 19.1026361843736
endloop
endfacet
facet normal -1.5180106051903e-015 -1.0 1.15844428643409e-016
outer loop
vertex 12.6 3.77325225023208 18.475
vertex 13.4 3.85588212148106 19.1026361843736
vertex 12.6 3.85588212148109 19.1026361843736
endloop
endfacet
facet normal -4.81079466450513e-016 0.96592582628907 -0.258819045102514
outer loop
vertex 9.0 8.54062237898305 17.8473638156264
vertex 25.8 8.29836385440934 17.2625
vertex 9.0 8.29836385440933 17.2625
endloop
endfacet
facet normal -4.35823160264232e-016 0.866025403784443 -0.499999999999992
outer loop
vertex 25.8 8.29836385440934 17.2625
vertex 9.0 8.54062237898305 17.8473638156264
vertex 25.8 8.54062237898306 17.8473638156264
endloop
endfacet
facet normal 0.0 0.0 -1.0
outer loop
vertex 12.6 6.19825225023207 16.05
vertex 9.0 1.29825225023208 16.05
vertex 9.0 6.19825225023207 16.05
endloop
endfacet
facet normal 0.0 0.0 -1.0
outer loop
vertex 9.0 1.29825225023208 16.05
vertex 12.6 6.19825225023207 16.05
vertex 12.6 1.29825225023208 16.05
endloop
endfacet
facet normal -1.17148568962194e-015 -0.92387953251129 0.382683432365081
outer loop
vertex 21.4 4.09814064605478 19.6875
vertex 13.4 3.85588212148106 19.1026361843736
vertex 21.4 3.85588212148106 19.1026361843736
endloop
endfacet
facet normal -1.31860893457667e-015 -0.96592582628907 0.258819045102514
outer loop
vertex 13.4 3.85588212148106 19.1026361843736
vertex 21.4 4.09814064605478 19.6875
vertex 12.6 3.85588212148109 19.1026361843736
endloop
endfacet
facet normal -1.31860893457667e-015 -0.96592582628907 0.258819045102515
outer loop
vertex 12.6 3.85588212148109 19.1026361843736
vertex 21.4 4.09814064605478 19.6875
vertex 13.4 4.09814064605478 19.6875
endloop
endfacet
facet normal -1.31860893457667e-015 -0.96592582628907 0.258819045102515
outer loop
vertex 12.6 3.85588212148109 19.1026361843736
vertex 13.4 4.09814064605478 19.6875
vertex 12.6 4.09814064605481 19.6875
endloop
endfacet
facet normal -3.5548792562864e-016 0.707106781186546 -0.707106781186549
outer loop
vertex 25.8 7.91298619460946 16.7602660556226
vertex 9.0 7.41075225023206 16.3748883958227
vertex 9.0 7.91298619460945 16.7602660556226
endloop
endfacet
facet normal -2.51493987112427e-016 0.499999999999999 -0.866025403784439
outer loop
vertex 9.0 7.41075225023206 16.3748883958227
vertex 25.8 7.91298619460946 16.7602660556226
vertex 25.8 7.41075225023207 16.3748883958227
endloop
endfacet
facet normal -9.63826503515665e-015 -0.500000000000002 -0.866025403784437
outer loop
vertex 22.2 4.98575225023204 16.3748883958227
vertex 21.4 4.48351830585466 16.7602660556226
vertex 21.4 4.98575225023205 16.3748883958227
endloop
endfacet
facet normal -1.24618482335218e-014 -0.707106781186545 -0.70710678118655
outer loop
vertex 21.4 4.48351830585466 16.7602660556226
vertex 22.2 4.98575225023204 16.3748883958227
vertex 22.2 4.48351830585465 16.7602660556226
endloop
endfacet
facet normal 0.0224424463333871 -0.857702457443632 -0.513656335595822
outer loop
vertex 19.0 2.88564064605479 19.3626116041773
vertex 21.4 3.85588212148106 17.8473638156264
vertex 21.4 3.77325225023206 18.475
endloop
endfacet
facet normal -2.03807080083424e-015 -0.258819045102525 0.965925826289067
outer loop
vertex 22.2 5.57061606585841 20.817370128751
vertex 12.6 6.19825225023207 20.9
vertex 12.6 5.57061606585845 20.817370128751
endloop
endfacet
facet normal -1.66285596680573e-015 -0.130526192220046 0.991444861373811
outer loop
vertex 12.6 6.19825225023207 20.9
vertex 22.2 5.57061606585841 20.817370128751
vertex 22.2 6.19825225023203 20.9
endloop
endfacet
facet normal -2.46243427368775e-020 -0.92387953251129 -0.382683432365081
outer loop
vertex 21.4 4.09814064605478 17.2625
vertex 13.4 4.09814064605478 17.2625
vertex 17.4 4.09814064605478 17.2625
endloop
endfacet
facet normal -2.46243427368775e-020 -0.92387953251129 -0.382683432365081
outer loop
vertex 13.4 4.09814064605478 17.2625
vertex 21.4 4.09814064605478 17.2625
vertex 13.4 3.85588212148106 17.8473638156264
endloop
endfacet
facet normal -2.46243427368775e-020 -0.92387953251129 -0.382683432365081
outer loop
vertex 13.4 3.85588212148106 17.8473638156264
vertex 21.4 4.09814064605478 17.2625
vertex 21.4 3.85588212148106 17.8473638156264
endloop
endfacet
facet normal -2.26996140747551e-014 -0.965925826289068 -0.258819045102522
outer loop
vertex 22.2 3.85588212148105 17.8473638156264
vertex 21.4 3.77325225023206 18.475
vertex 21.4 3.85588212148106 17.8473638156264
endloop
endfacet
facet normal -3.19547072181553e-014 -1.0 -1.16735539632974e-015
outer loop
vertex 21.4 3.77325225023206 18.475
vertex 22.2 3.85588212148105 17.8473638156264
vertex 22.2 3.77325225023202 18.475
endloop
endfacet
facet normal -1.43711134632299e-015 -0.793353340291233 -0.608761429008723
outer loop
vertex 21.4 4.09814064605478 17.2625
vertex 17.4 4.09814064605478 17.2625
vertex 21.4 4.48351830585466 16.7602660556226
endloop
endfacet
facet normal -1.4487028418153e-015 -0.707106781186542 -0.707106781186553
outer loop
vertex 21.4 4.48351830585466 16.7602660556226
vertex 12.6 4.09814064605481 17.2625
vertex 12.6 4.48351830585469 16.7602660556226
endloop
endfacet
facet normal -1.38629062586294e-014 -0.86602540378444 -0.499999999999998
outer loop
vertex 12.6 4.09814064605481 17.2625
vertex 21.4 4.48351830585466 16.7602660556226
vertex 17.4 4.09814064605478 17.2625
endloop
endfacet
facet normal -1.38629062586294e-014 -0.86602540378444 -0.499999999999998
outer loop
vertex 12.6 4.09814064605481 17.2625
vertex 17.4 4.09814064605478 17.2625
vertex 13.4 4.09814064605478 17.2625
endloop
endfacet
facet normal -2.31907871247207e-014 -0.70710678118655 0.707106781186545
outer loop
vertex 22.2 4.48351830585465 20.1897339443774
vertex 21.4 4.98575225023205 20.5751116041773
vertex 21.4 4.48351830585466 20.1897339443774
endloop
endfacet
facet normal -8.02278138500416e-015 -0.461550979250939 0.887113686937869
outer loop
vertex 21.4 4.98575225023205 20.5751116041773
vertex 22.2 4.48351830585465 20.1897339443774
vertex 22.2 4.98575225023204 20.5751116041773
endloop
endfacet
facet normal 0.303392941758181 -0.755959053000984 0.580067783174668
outer loop
vertex 21.4 4.48351830585466 20.1897339443774
vertex 19.0 2.88564064605479 19.3626116041773
vertex 21.4 4.09814064605478 19.6875
endloop
endfacet
facet normal -3.19547072181553e-014 -1.0 1.1762665062254e-015
outer loop
vertex 22.2 3.77325225023202 18.475
vertex 21.4 3.85588212148106 19.1026361843736
vertex 21.4 3.77325225023206 18.475
endloop
endfacet
facet normal -2.84020196034948e-014 -0.965925826289068 0.258819045102522
outer loop
vertex 21.4 3.85588212148106 19.1026361843736
vertex 22.2 3.77325225023202 18.475
vertex 22.2 3.85588212148105 19.1026361843736
endloop
endfacet
facet normal -0.383262148894722 -0.915737742983149 0.120559160998774
outer loop
vertex 15.8 2.88564064605479 19.3626116041773
vertex 13.4 3.85588212148106 19.1026361843736
vertex 13.4 3.77325225023206 18.475
endloop
endfacet
facet normal -0.303392941758181 -0.755959053000984 0.580067783174667
outer loop
vertex 13.4 4.48351830585466 20.1897339443774
vertex 13.4 4.09814064605478 19.6875
vertex 15.8 2.88564064605479 19.3626116041773
endloop
endfacet
facet normal -2.84020196034947e-014 -0.965925826289068 0.258819045102523
outer loop
vertex 22.2 3.85588212148105 19.1026361843736
vertex 21.4 4.09814064605478 19.6875
vertex 21.4 3.85588212148106 19.1026361843736
endloop
endfacet
facet normal -2.51565635830085e-014 -0.866025403784443 0.499999999999992
outer loop
vertex 21.4 4.09814064605478 19.6875
vertex 22.2 3.85588212148105 19.1026361843736
vertex 22.2 4.09814064605477 19.6875
endloop
endfacet
facet normal -2.26996140747551e-014 -0.965925826289068 -0.258819045102522
outer loop
vertex 22.2 3.85588212148105 17.8473638156264
vertex 21.4 4.09814064605478 17.2625
vertex 22.2 4.09814064605477 17.2625
endloop
endfacet
facet normal -1.45855734285198e-014 -0.866025403784442 -0.499999999999993
outer loop
vertex 21.4 4.09814064605478 17.2625
vertex 22.2 3.85588212148105 17.8473638156264
vertex 21.4 3.85588212148106 17.8473638156264
endloop
endfacet
facet normal -8.34632765637896e-016 -0.707106781186548 0.707106781186547
outer loop
vertex 21.4 4.48351830585466 20.1897339443774
vertex 13.4 4.98575225023205 20.5751116041772
vertex 13.4 4.48351830585466 20.1897339443774
endloop
endfacet
facet normal -8.37171493334743e-016 -0.60876142900872 0.793353340291236
outer loop
vertex 13.4 4.98575225023205 20.5751116041772
vertex 21.4 4.48351830585466 20.1897339443774
vertex 21.4 4.98575225023205 20.5751116041773
endloop
endfacet
facet normal 9.27620553469698e-016 1.0 -2.44397095154151e-014
outer loop
vertex 9.0 1.29825225023208 16.05
vertex 25.8 1.298252250232 13.05
vertex 8.99999999999999 1.29825225023199 13.05
endloop
endfacet
facet normal 9.27620553469698e-016 1.0 -2.44397095154151e-014
outer loop
vertex 25.8 1.298252250232 13.05
vertex 9.0 1.29825225023208 16.05
vertex 22.2 1.29825225023206 16.05
endloop
endfacet
facet normal 9.27620553469698e-016 1.0 -2.44397095154151e-014
outer loop
vertex 22.2 1.29825225023206 16.05
vertex 9.0 1.29825225023208 16.05
vertex 12.6 1.29825225023208 16.05
endloop
endfacet
facet normal 9.27620553469698e-016 1.0 -2.44397095154151e-014
outer loop
vertex 25.8 1.29825225023204 16.05
vertex 25.8 1.298252250232 13.05
vertex 22.2 1.29825225023206 16.05
endloop
endfacet
facet normal 4.78993677726943e-017 0.258819045102522 -0.965925826289068
outer loop
vertex 25.8 6.8258884346057 16.132629871249
vertex 9.0 6.19825225023207 16.05
vertex 9.0 6.82588843460569 16.132629871249
endloop
endfacet
facet normal 2.87697264895867e-016 0.130526192220044 -0.991444861373811
outer loop
vertex 9.0 6.19825225023207 16.05
vertex 25.8 6.8258884346057 16.132629871249
vertex 12.6 6.19825225023207 16.05
endloop
endfacet
facet normal 2.87697264895867e-016 0.130526192220044 -0.991444861373811
outer loop
vertex 12.6 6.19825225023207 16.05
vertex 25.8 6.8258884346057 16.132629871249
vertex 21.4 6.19825225023205 16.05
endloop
endfacet
facet normal 2.87697264895867e-016 0.130526192220044 -0.991444861373811
outer loop
vertex 21.4 6.19825225023205 16.05
vertex 25.8 6.8258884346057 16.132629871249
vertex 22.2 6.19825225023203 16.05
endloop
endfacet
facet normal 2.87697264895867e-016 0.130526192220044 -0.991444861373811
outer loop
vertex 22.2 6.19825225023203 16.05
vertex 25.8 6.8258884346057 16.132629871249
vertex 25.8 6.19825225023203 16.05
endloop
endfacet
facet normal -1.5668772129804e-015 -0.991444861373811 -0.130526192220048
outer loop
vertex 21.4 3.77325225023206 18.475
vertex 13.4 3.85588212148106 17.8473638156264
vertex 21.4 3.85588212148106 17.8473638156264
endloop
endfacet
facet normal -9.80293048810091e-015 -0.976344204783668 -0.216222093656839
outer loop
vertex 13.4 3.85588212148106 17.8473638156264
vertex 21.4 3.77325225023206 18.475
vertex 12.6 3.85588212148109 17.8473638156264
endloop
endfacet
facet normal -1.39283490642323e-014 -0.96592582628907 -0.258819045102515
outer loop
vertex 12.6 3.85588212148109 17.8473638156264
vertex 21.4 3.77325225023206 18.475
vertex 13.4 3.77325225023206 18.475
endloop
endfacet
facet normal -1.39283490642323e-014 -0.96592582628907 -0.258819045102515
outer loop
vertex 12.6 3.85588212148109 17.8473638156264
vertex 13.4 3.77325225023206 18.475
vertex 12.6 3.77325225023208 18.475
endloop
endfacet
facet normal -2.48408553430628e-015 -0.707106781186548 0.707106781186548
outer loop
vertex 13.4 4.48351830585466 20.1897339443774
vertex 12.6 4.98575225023207 20.5751116041773
vertex 12.6 4.48351830585469 20.1897339443774
endloop
endfacet
facet normal -4.92057170204888e-015 -0.499999999999999 0.866025403784439
outer loop
vertex 12.6 4.98575225023207 20.5751116041773
vertex 13.4 4.48351830585466 20.1897339443774
vertex 13.4 4.98575225023205 20.5751116041772
endloop
endfacet
facet normal -3.6286997023877e-016 0.5 0.866025403784439
outer loop
vertex 25.8 7.41075225023207 20.5751116041773
vertex 9.0 7.91298619460945 20.1897339443774
vertex 9.0 7.41075225023206 20.5751116041773
endloop
endfacet
facet normal -3.89109319592118e-016 0.707106781186546 0.707106781186549
outer loop
vertex 9.0 7.91298619460945 20.1897339443774
vertex 25.8 7.41075225023207 20.5751116041773
vertex 25.8 7.91298619460946 20.1897339443774
endloop
endfacet
facet normal 0.383262148894724 -0.853331729127022 0.353461575407688
outer loop
vertex 21.4 4.09814064605478 19.6875
vertex 19.0 2.88564064605479 19.3626116041773
vertex 21.4 3.85588212148106 19.1026361843736
endloop
endfacet
facet normal -3.89109319592118e-016 0.707106781186546 0.707106781186549
outer loop
vertex 9.0 7.91298619460945 20.1897339443774
vertex 25.8 8.29836385440934 19.6875
vertex 9.0 8.29836385440933 19.6875
endloop
endfacet
facet normal -4.36127506335747e-016 0.866025403784443 0.499999999999993
outer loop
vertex 25.8 8.29836385440934 19.6875
vertex 9.0 7.91298619460945 20.1897339443774
vertex 25.8 7.91298619460946 20.1897339443774
endloop
endfacet
facet normal -8.34632765637896e-016 -0.707106781186548 0.707106781186547
outer loop
vertex 21.4 4.48351830585466 20.1897339443774
vertex 13.4 4.09814064605478 19.6875
vertex 21.4 4.09814064605478 19.6875
endloop
endfacet
facet normal -1.00323225579207e-015 -0.866025403784442 0.499999999999994
outer loop
vertex 13.4 4.09814064605478 19.6875
vertex 21.4 4.48351830585466 20.1897339443774
vertex 12.6 4.09814064605481 19.6875
endloop
endfacet
facet normal -1.00323225579207e-015 -0.866025403784441 0.499999999999995
outer loop
vertex 12.6 4.09814064605481 19.6875
vertex 21.4 4.48351830585466 20.1897339443774
vertex 13.4 4.48351830585466 20.1897339443774
endloop
endfacet
facet normal -1.00323225579207e-015 -0.866025403784441 0.499999999999995
outer loop
vertex 12.6 4.09814064605481 19.6875
vertex 13.4 4.48351830585466 20.1897339443774
vertex 12.6 4.48351830585469 20.1897339443774
endloop
endfacet
facet normal -0.793353340291237 -0.527202862365671 -0.304380714504354
outer loop
vertex 16.0143593539449 0.692820323027565 21.5606878155306
vertex 16.2686291501015 1.90584474894141 18.7969261792282
vertex 16.2686291501015 0.40584474894184 21.3950023905814
endloop
endfacet
facet normal -0.793353340291237 -0.527202862365671 -0.304380714504354
outer loop
vertex 16.2686291501015 1.90584474894141 18.7969261792282
vertex 16.0143593539449 0.692820323027565 21.5606878155306
vertex 16.0143593539449 2.19282032302713 18.9626116041774
endloop
endfacet
facet normal -2.1915501762165e-016 -0.866025403784487 -0.499999999999916
outer loop
vertex 19.0 2.03564064605473 20.8348547906108
vertex 15.8 2.88564064605479 19.3626116041773
vertex 19.0 2.88564064605479 19.3626116041773
endloop
endfacet
facet normal -2.1915501762165e-016 -0.866025403784487 -0.499999999999916
outer loop
vertex 15.8 2.88564064605479 19.3626116041773
vertex 19.0 2.03564064605473 20.8348547906108
vertex 15.8 2.03564064605473 20.8348547906108
endloop
endfacet
facet normal -2.1915501762165e-016 -0.866025403784487 -0.499999999999916
outer loop
vertex 15.8 2.03564064605473 20.8348547906108
vertex 19.0 2.03564064605473 20.8348547906108
vertex 19.0 1.38564064605511 21.9606878155306
endloop
endfacet
facet normal -2.1915501762165e-016 -0.866025403784487 -0.499999999999916
outer loop
vertex 15.8 2.03564064605473 20.8348547906108
vertex 19.0 1.38564064605511 21.9606878155306
vertex 15.8 1.38564064605511 21.9606878155306
endloop
endfacet
facet normal -2.1915501762165e-016 -0.866025403784487 -0.499999999999916
outer loop
vertex 15.8 1.38564064605511 21.9606878155306
vertex 19.0 1.38564064605511 21.9606878155306
vertex 17.4 1.38564064605511 21.9606878155306
endloop
endfacet
facet normal -3.57126076278173e-016 0.130526192220048 0.991444861373811
outer loop
vertex 12.6 6.19825225023207 20.9
vertex 9.0 6.82588843460569 20.817370128751
vertex 9.0 6.19825225023207 20.9
endloop
endfacet
facet normal -3.55353315644783e-016 0.258819045102524 0.965925826289068
outer loop
vertex 9.0 6.82588843460569 20.817370128751
vertex 12.6 6.19825225023207 20.9
vertex 25.8 6.8258884346057 20.817370128751
endloop
endfacet
facet normal -3.55353315644783e-016 0.258819045102523 0.965925826289068
outer loop
vertex 25.8 6.8258884346057 20.817370128751
vertex 12.6 6.19825225023207 20.9
vertex 22.2 6.19825225023203 20.9
endloop
endfacet
facet normal -3.55353315644783e-016 0.258819045102523 0.965925826289068
outer loop
vertex 25.8 6.8258884346057 20.817370128751
vertex 22.2 6.19825225023203 20.9
vertex 25.8 6.19825225023203 20.9
endloop
endfacet
facet normal -0.866025403784437 0.433012701892245 0.249999999999961
outer loop
vertex 16.0143593539449 2.72846096908228 21.2348547906108
vertex 15.8545186779375 3.24427083492202 19.5696668402593
vertex 15.8545186779375 2.39427083492196 21.0419100266928
endloop
endfacet
facet normal -0.965925826289066 0.22414386804203 0.129409522551251
outer loop
vertex 15.8545186779375 3.24427083492202 19.5696668402593
vertex 16.0143593539449 2.72846096908228 21.2348547906108
vertex 16.0143593539449 3.57846096908233 19.7626116041773
endloop
endfacet
facet normal 0.608761429008724 -0.687064146869451 -0.396676670145611
outer loop
vertex 18.5313708498985 1.90584474894141 18.7969261792282
vertex 18.2 0.185640646055109 21.2678674925031
vertex 18.2 1.68564064605468 18.6697912811499
endloop
endfacet
facet normal 0.608761429008724 -0.687064146869451 -0.396676670145611
outer loop
vertex 18.2 0.185640646055109 21.2678674925031
vertex 18.5313708498985 1.90584474894141 18.7969261792282
vertex 18.5313708498985 0.40584474894184 21.3950023905814
endloop
endfacet
facet normal 0.866025403784436 0.433012701892247 0.249999999999962
outer loop
vertex 18.7856406460551 3.57846096908233 19.7626116041773
vertex 18.5313708498985 3.015436543168 21.4005402155601
vertex 18.7856406460551 2.72846096908228 21.2348547906108
endloop
endfacet
facet normal 0.707106781186551 0.612372435695824 0.353553390593214
outer loop
vertex 18.5313708498985 3.015436543168 21.4005402155601
vertex 18.7856406460551 3.57846096908233 19.7626116041773
vertex 18.5313708498985 3.86543654316806 19.9282970291265
endloop
endfacet
facet normal 0.92387953251128 -0.331413574035608 -0.191341716182551
outer loop
vertex 18.7856406460551 2.19282032302713 18.9626116041774
vertex 18.9454813220625 1.02701045718788 21.7536325794486
vertex 18.7856406460551 0.692820323027565 21.5606878155306
endloop
endfacet
facet normal 0.92387953251128 -0.331413574035608 -0.191341716182551
outer loop
vertex 18.9454813220625 1.02701045718788 21.7536325794486
vertex 18.7856406460551 2.19282032302713 18.9626116041774
vertex 18.9454813220625 2.52701045718745 19.1555563680954
endloop
endfacet
facet normal 0.79335334029124 -0.527202862365667 -0.304380714504353
outer loop
vertex 18.5313708498985 1.90584474894141 18.7969261792282
vertex 18.7856406460551 0.692820323027565 21.5606878155306
vertex 18.5313708498985 0.40584474894184 21.3950023905814
endloop
endfacet
facet normal 0.79335334029124 -0.527202862365667 -0.304380714504353
outer loop
vertex 18.7856406460551 0.692820323027565 21.5606878155306
vertex 18.5313708498985 1.90584474894141 18.7969261792282
vertex 18.7856406460551 2.19282032302713 18.9626116041774
endloop
endfacet
facet normal 0.500000000000006 0.750000000000038 0.433012701892147
outer loop
vertex 18.2 4.08564064605479 20.0554319272048
vertex 18.5313708498985 3.015436543168 21.4005402155601
vertex 18.5313708498985 3.86543654316806 19.9282970291265
endloop
endfacet
facet normal 0.707106781186551 0.612372435695824 0.353553390593214
outer loop
vertex 18.5313708498985 3.015436543168 21.4005402155601
vertex 18.2 4.08564064605479 20.0554319272048
vertex 18.2 3.23564064605473 21.5276751136384
endloop
endfacet
facet normal 0.509444096659124 -0.301258496535743 -0.806045923408954
outer loop
vertex 18.5313708498985 1.90584474894141 18.7969261792282
vertex 18.2 1.68564064605468 18.6697912811499
vertex 17.4 4.09814064605478 17.2625
endloop
endfacet
facet normal -0.109231293109647 -0.444822620354574 -0.888932708941731
outer loop
vertex 17.4 4.09814064605478 17.2625
vertex 17.4 1.49999999999957 18.5626116041774
vertex 16.985889527836 1.54721456007418 18.5898709431462
endloop
endfacet
facet normal -0.383262148894724 -0.853331729127022 0.353461575407688
outer loop
vertex 13.4 4.09814064605478 19.6875
vertex 13.4 3.85588212148106 19.1026361843736
vertex 15.8 2.88564064605479 19.3626116041773
endloop
endfacet
facet normal -0.707106781186551 0.612372435695825 0.353553390593214
outer loop
vertex 16.2686291501015 3.015436543168 21.4005402155601
vertex 16.6 4.08564064605479 20.0554319272048
vertex 16.2686291501015 3.86543654316806 19.9282970291265
endloop
endfacet
facet normal -0.500000000000006 0.750000000000038 0.433012701892147
outer loop
vertex 16.6 4.08564064605479 20.0554319272048
vertex 16.2686291501015 3.015436543168 21.4005402155601
vertex 16.6 3.23564064605473 21.5276751136384
endloop
endfacet
facet normal -5.99061994878356e-016 0.499999999999927 -0.866025403784481
outer loop
vertex 19.0 2.88564064605479 19.3626116041773
vertex 15.8545186779375 2.52701045718745 19.1555563680954
vertex 15.8 2.88564064605479 19.3626116041773
endloop
endfacet
facet normal -5.99061994878356e-016 0.499999999999927 -0.866025403784481
outer loop
vertex 15.8545186779375 2.52701045718745 19.1555563680954
vertex 19.0 2.88564064605479 19.3626116041773
vertex 16.0143593539449 2.19282032302713 18.9626116041774
endloop
endfacet
facet normal -5.99061994878356e-016 0.499999999999927 -0.866025403784481
outer loop
vertex 16.0143593539449 2.19282032302713 18.9626116041774
vertex 19.0 2.88564064605479 19.3626116041773
vertex 16.2686291501015 1.90584474894141 18.7969261792282
endloop
endfacet
facet normal -5.99061994878356e-016 0.499999999999927 -0.866025403784481
outer loop
vertex 16.2686291501015 1.90584474894141 18.7969261792282
vertex 19.0 2.88564064605479 19.3626116041773
vertex 16.6 1.68564064605468 18.6697912811499
endloop
endfacet
facet normal -5.99061994878356e-016 0.499999999999927 -0.866025403784481
outer loop
vertex 16.6 1.68564064605468 18.6697912811499
vertex 19.0 2.88564064605479 19.3626116041773
vertex 16.985889527836 1.54721456007418 18.5898709431462
endloop
endfacet
facet normal -5.99061994878356e-016 0.499999999999927 -0.866025403784481
outer loop
vertex 16.985889527836 1.54721456007418 18.5898709431462
vertex 19.0 2.88564064605479 19.3626116041773
vertex 17.4 1.49999999999957 18.5626116041774
endloop
endfacet
facet normal -5.99061994878356e-016 0.499999999999927 -0.866025403784481
outer loop
vertex 17.4 1.49999999999957 18.5626116041774
vertex 19.0 2.88564064605479 19.3626116041773
vertex 17.814110472164 1.54721456007418 18.5898709431462
endloop
endfacet
facet normal -5.99061994878356e-016 0.499999999999927 -0.866025403784481
outer loop
vertex 17.814110472164 1.54721456007418 18.5898709431462
vertex 19.0 2.88564064605479 19.3626116041773
vertex 18.2 1.68564064605468 18.6697912811499
endloop
endfacet
facet normal -5.99061994878356e-016 0.499999999999927 -0.866025403784481
outer loop
vertex 18.2 1.68564064605468 18.6697912811499
vertex 19.0 2.88564064605479 19.3626116041773
vertex 18.5313708498985 1.90584474894141 18.7969261792282
endloop
endfacet
facet normal -5.99061994878356e-016 0.499999999999927 -0.866025403784481
outer loop
vertex 18.5313708498985 1.90584474894141 18.7969261792282
vertex 19.0 2.88564064605479 19.3626116041773
vertex 18.7856406460551 2.19282032302713 18.9626116041774
endloop
endfacet
facet normal -5.99061994878356e-016 0.499999999999927 -0.866025403784481
outer loop
vertex 18.7856406460551 2.19282032302713 18.9626116041774
vertex 19.0 2.88564064605479 19.3626116041773
vertex 18.9454813220625 2.52701045718745 19.1555563680954
endloop
endfacet
facet normal 0.320958771494114 -0.729178934290459 -0.604386919769133
outer loop
vertex 13.4 2.20895347812845 19.5417609183368
vertex 13.4 4.09814064605478 17.2625
vertex 14.6 2.88564064605479 19.3626116041773
endloop
endfacet
facet normal -0.991444861373808 -0.113038998321837 -0.0652630961100238
outer loop
vertex 15.8 1.38564064605511 21.9606878155306
vertex 15.8545186779375 2.52701045718745 19.1555563680954
vertex 15.8545186779375 1.02701045718788 21.7536325794486
endloop
endfacet
facet normal -0.991444861373808 -0.113038998321837 -0.0652630961100238
outer loop
vertex 15.8545186779375 2.52701045718745 19.1555563680954
vertex 15.8 1.38564064605511 21.9606878155306
vertex 15.8 2.03564064605473 20.8348547906108
endloop
endfacet
facet normal -0.991444861373808 -0.113038998321837 -0.0652630961100238
outer loop
vertex 15.8545186779375 2.52701045718745 19.1555563680954
vertex 15.8 2.03564064605473 20.8348547906108
vertex 15.8 2.88564064605479 19.3626116041773
endloop
endfacet
facet normal 0.991444861373809 -0.113038998321831 -0.0652630961100203
outer loop
vertex 18.9454813220625 2.52701045718745 19.1555563680954
vertex 19.0 1.38564064605511 21.9606878155306
vertex 18.9454813220625 1.02701045718788 21.7536325794486
endloop
endfacet
facet normal 0.991444861373809 -0.113038998321831 -0.0652630961100203
outer loop
vertex 19.0 1.38564064605511 21.9606878155306
vertex 18.9454813220625 2.52701045718745 19.1555563680954
vertex 19.0 2.03564064605473 20.8348547906108
endloop
endfacet
facet normal 0.991444861373809 -0.113038998321831 -0.0652630961100203
outer loop
vertex 19.0 2.03564064605473 20.8348547906108
vertex 18.9454813220625 2.52701045718745 19.1555563680954
vertex 19.0 2.88564064605479 19.3626116041773
endloop
endfacet
facet normal -0.25881904510253 0.836516303737851 0.482962913144454
outer loop
vertex 16.985889527836 3.37406673203523 21.6075954516421
vertex 17.4 4.2712812921099 20.1626116041773
vertex 16.985889527836 4.22406673203529 20.1353522652085
endloop
endfacet
facet normal -4.45555494782345e-017 0.866025403784486 0.499999999999919
outer loop
vertex 17.4 4.2712812921099 20.1626116041773
vertex 16.985889527836 3.37406673203523 21.6075954516421
vertex 17.4 3.42128129210984 21.6348547906108
endloop
endfacet
facet normal 0.965925826289067 0.224143868042026 0.129409522551249
outer loop
vertex 18.9454813220625 3.24427083492202 19.5696668402593
vertex 18.7856406460551 2.72846096908228 21.2348547906108
vertex 18.9454813220625 2.39427083492196 21.0419100266928
endloop
endfacet
facet normal 0.866025403784437 0.433012701892245 0.24999999999996
outer loop
vertex 18.7856406460551 2.72846096908228 21.2348547906108
vertex 18.9454813220625 3.24427083492202 19.5696668402593
vertex 18.7856406460551 3.57846096908233 19.7626116041773
endloop
endfacet
facet normal -2.00811024708078e-016 -0.866025403784441 -0.499999999999997
outer loop
vertex 15.8 2.88564064605479 19.3626116041773
vertex 17.4 4.09814064605478 17.2625
vertex 19.0 2.88564064605479 19.3626116041773
endloop
endfacet
facet normal -0.707106781186551 0.612372435695825 0.353553390593214
outer loop
vertex 16.2686291501015 3.015436543168 21.4005402155601
vertex 16.0143593539449 3.57846096908233 19.7626116041773
vertex 16.0143593539449 2.72846096908228 21.2348547906108
endloop
endfacet
facet normal -0.866025403784435 0.433012701892248 0.249999999999962
outer loop
vertex 16.0143593539449 3.57846096908233 19.7626116041773
vertex 16.2686291501015 3.015436543168 21.4005402155601
vertex 16.2686291501015 3.86543654316806 19.9282970291265
endloop
endfacet
facet normal -2.51565635830085e-014 -0.866025403784442 0.499999999999994
outer loop
vertex 22.2 4.09814064605477 19.6875
vertex 21.4 4.48351830585466 20.1897339443774
vertex 21.4 4.09814064605478 19.6875
endloop
endfacet
facet normal -2.31907871247208e-014 -0.707106781186551 0.707106781186544
outer loop
vertex 21.4 4.48351830585466 20.1897339443774
vertex 22.2 4.09814064605477 19.6875
vertex 22.2 4.48351830585465 20.1897339443774
endloop
endfacet
facet normal -4.45555494782345e-017 0.866025403784486 0.499999999999919
outer loop
vertex 17.4 4.2712812921099 20.1626116041773
vertex 17.814110472164 3.37406673203523 21.6075954516421
vertex 17.814110472164 4.22406673203529 20.1353522652085
endloop
endfacet
facet normal 0.258819045102529 0.836516303737851 0.482962913144454
outer loop
vertex 17.814110472164 3.37406673203523 21.6075954516421
vertex 17.4 4.2712812921099 20.1626116041773
vertex 17.4 3.42128129210984 21.6348547906108
endloop
endfacet
facet normal -0.608761429008724 -0.687064146869452 -0.39667667014561
outer loop
vertex 16.6 0.185640646055109 21.2678674925031
vertex 16.2686291501015 1.90584474894141 18.7969261792282
vertex 16.6 1.68564064605468 18.6697912811499
endloop
endfacet
facet normal -0.608761429008724 -0.687064146869452 -0.39667667014561
outer loop
vertex 16.2686291501015 1.90584474894141 18.7969261792282
vertex 16.6 0.185640646055109 21.2678674925031
vertex 16.2686291501015 0.40584474894184 21.3950023905814
endloop
endfacet
facet normal 0.663920472810338 -0.167478030504231 -0.728807735333346
outer loop
vertex 18.7856406460551 2.19282032302713 18.9626116041774
vertex 18.5313708498985 1.90584474894141 18.7969261792282
vertex 17.4 4.09814064605478 17.2625
endloop
endfacet
facet normal -9.80293048810091e-015 -0.976344204783668 -0.216222093656839
outer loop
vertex 13.4 3.85588212148106 17.8473638156264
vertex 12.6 4.09814064605481 17.2625
vertex 13.4 4.09814064605478 17.2625
endloop
endfacet
facet normal -1.38629062586294e-014 -0.86602540378444 -0.499999999999998
outer loop
vertex 12.6 4.09814064605481 17.2625
vertex 13.4 3.85588212148106 17.8473638156264
vertex 12.6 3.85588212148109 17.8473638156264
endloop
endfacet
facet normal 0.258819045102527 0.836516303737852 0.482962913144455
outer loop
vertex 17.814110472164 4.22406673203529 20.1353522652085
vertex 18.2 3.23564064605473 21.5276751136384
vertex 18.2 4.08564064605479 20.0554319272048
endloop
endfacet
facet normal 0.500000000000009 0.750000000000036 0.433012701892146
outer loop
vertex 18.2 3.23564064605473 21.5276751136384
vertex 17.814110472164 4.22406673203529 20.1353522652085
vertex 17.814110472164 3.37406673203523 21.6075954516421
endloop
endfacet
facet normal -0.0224424463333874 -0.857702457443632 -0.513656335595822
outer loop
vertex 15.8 2.88564064605479 19.3626116041773
vertex 13.4 3.77325225023206 18.475
vertex 13.4 3.85588212148106 17.8473638156264
endloop
endfacet
facet normal -4.04892110386916e-015 -0.130526192220048 -0.991444861373811
outer loop
vertex 22.2 6.19825225023203 16.05
vertex 21.4 5.57061606585842 16.132629871249
vertex 21.4 6.19825225023205 16.05
endloop
endfacet
facet normal -6.2695871828782e-015 -0.258819045102523 -0.965925826289068
outer loop
vertex 21.4 5.57061606585842 16.132629871249
vertex 22.2 6.19825225023203 16.05
vertex 22.2 5.57061606585841 16.132629871249
endloop
endfacet
facet normal 0.773151765919982 -0.00363109083976921 -0.634210660612171
outer loop
vertex 17.4 4.09814064605478 17.2625
vertex 18.9454813220625 2.52701045718745 19.1555563680954
vertex 18.7856406460551 2.19282032302713 18.9626116041774
endloop
endfacet
facet normal -0.50000000000001 0.750000000000036 0.433012701892146
outer loop
vertex 16.6 3.23564064605473 21.5276751136384
vertex 16.985889527836 4.22406673203529 20.1353522652085
vertex 16.6 4.08564064605479 20.0554319272048
endloop
endfacet
facet normal -0.258819045102527 0.836516303737852 0.482962913144455
outer loop
vertex 16.985889527836 4.22406673203529 20.1353522652085
vertex 16.6 3.23564064605473 21.5276751136384
vertex 16.985889527836 3.37406673203523 21.6075954516421
endloop
endfacet
facet normal 0.991444861373811 0.11303899832181 0.0652630961100266
outer loop
vertex 19.0 2.88564064605479 19.3626116041773
vertex 18.9454813220625 2.39427083492196 21.0419100266928
vertex 19.0 2.03564064605473 20.8348547906108
endloop
endfacet
facet normal 0.965925826289068 0.224143868042022 0.129409522551247
outer loop
vertex 18.9454813220625 2.39427083492196 21.0419100266928
vertex 19.0 2.88564064605479 19.3626116041773
vertex 18.9454813220625 3.24427083492202 19.5696668402593
endloop
endfacet
facet normal 0.357241292700191 -0.683836127526375 0.636197146708179
outer loop
vertex 17.4 0.985640646055153 22.6535081385582
vertex 18.5313708498985 0.40584474894184 21.3950023905814
vertex 18.7856406460551 0.692820323027565 21.5606878155306
endloop
endfacet
facet normal 0.274120885109344 -0.755820512072965 0.594636942912759
outer loop
vertex 17.4 0.985640646055153 22.6535081385582
vertex 18.2 0.185640646055109 21.2678674925031
vertex 18.5313708498985 0.40584474894184 21.3950023905814
endloop
endfacet
facet normal 0.446614372115912 -0.491430773390177 0.747684022555412
outer loop
vertex 19.0583301667107 1.82160421140424 22.2123914973417
vertex 17.4 0.985640646055153 22.6535081385582
vertex 19.0 1.38564064605511 21.9606878155306
endloop
endfacet
facet normal 0.41329738024101 -0.384249194491316 0.825553046156752
outer loop
vertex 19.0583301667107 1.82160421140424 22.2123914973417
vertex 18.9620155749944 2.25248547247312 22.4611609094086
vertex 17.4 0.985640646055153 22.6535081385582
endloop
endfacet
facet normal -0.357241292700186 -0.683836127526379 0.636197146708177
outer loop
vertex 17.4 0.985640646055153 22.6535081385582
vertex 16.0143593539449 0.692820323027565 21.5606878155306
vertex 16.2686291501015 0.40584474894184 21.3950023905814
endloop
endfacet
facet normal -1.07276347998717e-016 0.866025403784445 0.499999999999989
outer loop
vertex 17.4 3.85429399400208 21.8848547906108
vertex 17.9008333273972 3.13728265018928 22.9719987981412
vertex 17.9008333273972 3.78728265018904 21.8461657732216
endloop
endfacet
facet normal 0.301793396709921 0.825645540941587 0.476686675317826
outer loop
vertex 17.9008333273972 3.13728265018928 22.9719987981412
vertex 17.4 3.85429399400208 21.8848547906108
vertex 17.4 3.20429399400232 23.0106878155304
endloop
endfacet
facet normal -6.71778418665207e-016 -0.499999999999965 0.866025403784459
outer loop
vertex 15.8 1.38564064605511 21.9606878155306
vertex 15.8379844250055 2.25248547247312 22.4611609094086
vertex 15.7416698332893 1.82160421140424 22.2123914973417
endloop
endfacet
facet normal -6.71778418665207e-016 -0.499999999999965 0.866025403784459
outer loop
vertex 15.8379844250055 2.25248547247312 22.4611609094086
vertex 15.8 1.38564064605511 21.9606878155306
vertex 17.4 1.38564064605511 21.9606878155306
endloop
endfacet
facet normal -6.71778418665207e-016 -0.499999999999965 0.866025403784459
outer loop
vertex 15.8379844250055 2.25248547247312 22.4611609094086
vertex 17.4 1.38564064605511 21.9606878155306
vertex 16.0799621217556 2.6381033303066 22.6837974834331
endloop
endfacet
facet normal -6.71778418665207e-016 -0.499999999999965 0.866025403784459
outer loop
vertex 16.0799621217556 2.6381033303066 22.6837974834331
vertex 17.4 1.38564064605511 21.9606878155306
vertex 16.4450377050987 2.94249764761301 22.8595396244697
endloop
endfacet
facet normal -6.71778418665207e-016 -0.499999999999965 0.866025403784459
outer loop
vertex 16.4450377050987 2.94249764761301 22.8595396244697
vertex 17.4 1.38564064605511 21.9606878155306
vertex 16.8991666726028 3.13728265018928 22.9719987981412
endloop
endfacet
facet normal -6.71778418665207e-016 -0.499999999999965 0.866025403784459
outer loop
vertex 16.8991666726028 3.13728265018928 22.9719987981412
vertex 17.4 1.38564064605511 21.9606878155306
vertex 17.4 3.20429399400232 23.0106878155304
endloop
endfacet
facet normal -6.71778418665207e-016 -0.499999999999965 0.866025403784459
outer loop
vertex 17.4 3.20429399400232 23.0106878155304
vertex 17.4 1.38564064605511 21.9606878155306
vertex 19.0 1.38564064605511 21.9606878155306
endloop
endfacet
facet normal -6.71778418665207e-016 -0.499999999999965 0.866025403784459
outer loop
vertex 17.4 3.20429399400232 23.0106878155304
vertex 19.0 1.38564064605511 21.9606878155306
vertex 17.9008333273972 3.13728265018928 22.9719987981412
endloop
endfacet
facet normal -6.71778418665207e-016 -0.499999999999965 0.866025403784459
outer loop
vertex 17.9008333273972 3.13728265018928 22.9719987981412
vertex 19.0 1.38564064605511 21.9606878155306
vertex 18.3549622949013 2.94249764761301 22.8595396244697
endloop
endfacet
facet normal -6.71778418665207e-016 -0.499999999999965 0.866025403784459
outer loop
vertex 18.3549622949013 2.94249764761301 22.8595396244697
vertex 19.0 1.38564064605511 21.9606878155306
vertex 18.7200378782444 2.6381033303066 22.6837974834331
endloop
endfacet
facet normal -6.71778418665207e-016 -0.499999999999965 0.866025403784459
outer loop
vertex 18.7200378782444 2.6381033303066 22.6837974834331
vertex 19.0 1.38564064605511 21.9606878155306
vertex 18.9620155749944 2.25248547247312 22.4611609094086
endloop
endfacet
facet normal -6.71778418665207e-016 -0.499999999999965 0.866025403784459
outer loop
vertex 18.9620155749944 2.25248547247312 22.4611609094086
vertex 19.0 1.38564064605511 21.9606878155306
vertex 19.0583301667107 1.82160421140424 22.2123914973417
endloop
endfacet
facet normal 0.320249947216769 -0.39585557125692 -0.860661569963778
outer loop
vertex 18.2 1.68564064605468 18.6697912811499
vertex 17.814110472164 1.54721456007418 18.5898709431462
vertex 17.4 4.09814064605478 17.2625
endloop
endfacet
facet normal -0.446440477313827 0.497341123766236 -0.743870087331612
outer loop
vertex 19.0 1.38564064605511 21.9606878155306
vertex 18.9454813220625 1.02701045718788 21.7536325794486
vertex 17.4 0.985640646055153 22.6535081385582
endloop
endfacet
facet normal -0.575443563642101 0.70827150782533 0.408920745702285
outer loop
vertex 16.4450377050987 2.94249764761301 22.8595396244697
vertex 16.8991666726028 3.78728265018904 21.8461657732216
vertex 16.4450377050987 3.59249764761277 21.7337065995501
endloop
endfacet
facet normal -0.301793396709926 0.825645540941586 0.476686675317825
outer loop
vertex 16.8991666726028 3.78728265018904 21.8461657732216
vertex 16.4450377050987 2.94249764761301 22.8595396244697
vertex 16.8991666726028 3.13728265018928 22.9719987981412
endloop
endfacet
facet normal -0.575443563642101 0.70827150782533 0.408920745702285
outer loop
vertex 16.4450377050987 2.94249764761301 22.8595396244697
vertex 16.0799621217556 3.28810333030636 21.5579644585134
vertex 16.0799621217556 2.6381033303066 22.6837974834331
endloop
endfacet
facet normal -0.795431720032507 0.52484882020883 0.303021607631416
outer loop
vertex 16.0799621217556 3.28810333030636 21.5579644585134
vertex 16.4450377050987 2.94249764761301 22.8595396244697
vertex 16.4450377050987 3.59249764761277 21.7337065995501
endloop
endfacet
facet normal -0.130526192220074 -0.85861643640131 -0.495722430686815
outer loop
vertex 17.4 0.0 21.1606878155306
vertex 16.985889527836 1.54721456007418 18.5898709431462
vertex 17.4 1.49999999999957 18.5626116041774
endloop
endfacet
facet normal -0.130526192220074 -0.85861643640131 -0.495722430686815
outer loop
vertex 16.985889527836 1.54721456007418 18.5898709431462
vertex 17.4 0.0 21.1606878155306
vertex 16.985889527836 0.0472145600746101 21.1879471544994
endloop
endfacet
facet normal -0.99928073173387 0.0328407428214631 0.0189606117083692
outer loop
vertex 15.7416698332893 1.82160421140424 22.2123914973417
vertex 15.8 2.03564064605473 20.8348547906108
vertex 15.8 1.38564064605511 21.9606878155306
endloop
endfacet
facet normal -0.9933538389695 -0.0996800529364783 -0.0575503053956887
outer loop
vertex 15.8 2.03564064605473 20.8348547906108
vertex 15.7416698332893 1.82160421140424 22.2123914973417
vertex 15.7416698332893 2.471604211404 21.0865584724221
endloop
endfacet
facet normal -0.829694043875854 0.179116424289226 -0.528701333558725
outer loop
vertex 17.4 4.09814064605478 17.2625
vertex 15.8545186779375 2.52701045718745 19.1555563680954
vertex 15.8 2.88564064605479 19.3626116041773
endloop
endfacet
facet normal -0.320249947216773 -0.395855571256918 -0.860661569963777
outer loop
vertex 17.4 4.09814064605478 17.2625
vertex 16.985889527836 1.54721456007418 18.5898709431462
vertex 16.6 1.68564064605468 18.6697912811499
endloop
endfacet
facet normal -2.09651698328117e-016 -0.866025403784475 -0.499999999999937
outer loop
vertex 17.4 0.985640646055153 22.6535081385582
vertex 17.4 1.38564064605511 21.9606878155306
vertex 19.0 1.38564064605511 21.9606878155306
endloop
endfacet
facet normal -0.795431720032498 0.524848820208839 0.303021607631422
outer loop
vertex 16.0799621217556 2.6381033303066 22.6837974834331
vertex 15.8379844250055 2.90248547247288 21.335327884489
vertex 15.8379844250055 2.25248547247312 22.4611609094086
endloop
endfacet
facet normal -0.94124324461646 0.292482248774024 0.168864705062864
outer loop
vertex 15.8379844250055 2.90248547247288 21.335327884489
vertex 16.0799621217556 2.6381033303066 22.6837974834331
vertex 16.0799621217556 3.28810333030636 21.5579644585134
endloop
endfacet
facet normal -0.17231959220449 -0.806721158525392 0.565249440981527
outer loop
vertex 17.4 0.985640646055153 22.6535081385582
vertex 16.6 0.185640646055109 21.2678674925031
vertex 16.985889527836 0.0472145600746101 21.1879471544994
endloop
endfacet
facet normal -0.509444096659122 -0.301258496535744 -0.806045923408955
outer loop
vertex 17.4 4.09814064605478 17.2625
vertex 16.6 1.68564064605468 18.6697912811499
vertex 16.2686291501015 1.90584474894141 18.7969261792282
endloop
endfacet
facet normal -0.965925826289067 0.224143868042026 0.129409522551248
outer loop
vertex 15.8545186779375 2.39427083492196 21.0419100266928
vertex 15.8 2.88564064605479 19.3626116041773
vertex 15.8 2.03564064605473 20.8348547906108
endloop
endfacet
facet normal -0.99144486137381 0.113038998321816 0.0652630961100299
outer loop
vertex 15.8 2.88564064605479 19.3626116041773
vertex 15.8545186779375 2.39427083492196 21.0419100266928
vertex 15.8545186779375 3.24427083492202 19.5696668402593
endloop
endfacet
facet normal 0.999280731733871 0.0328407428214517 0.018960611708363
outer loop
vertex 19.0583301667107 2.471604211404 21.0865584724221
vertex 18.9620155749944 2.25248547247312 22.4611609094086
vertex 19.0583301667107 1.82160421140424 22.2123914973417
endloop
endfacet
facet normal 0.941243244616456 0.292482248774035 0.168864705062872
outer loop
vertex 18.9620155749944 2.25248547247312 22.4611609094086
vertex 19.0583301667107 2.471604211404 21.0865584724221
vertex 18.9620155749944 2.90248547247288 21.335327884489
endloop
endfacet
facet normal 0.416016296562648 -0.595673621732692 0.687097793160592
outer loop
vertex 18.9454813220625 1.02701045718788 21.7536325794486
vertex 17.4 0.985640646055153 22.6535081385582
vertex 18.7856406460551 0.692820323027565 21.5606878155306
endloop
endfacet
facet normal 0.941243244616461 0.292482248774022 0.168864705062864
outer loop
vertex 18.9620155749944 2.90248547247288 21.335327884489
vertex 18.7200378782444 2.6381033303066 22.6837974834331
vertex 18.9620155749944 2.25248547247312 22.4611609094086
endloop
endfacet
facet normal 0.7954317200325 0.524848820208837 0.303021607631421
outer loop
vertex 18.7200378782444 2.6381033303066 22.6837974834331
vertex 18.9620155749944 2.90248547247288 21.335327884489
vertex 18.7200378782444 3.28810333030636 21.5579644585134
endloop
endfacet
facet normal -0.301793396709922 0.825645540941587 0.476686675317826
outer loop
vertex 16.8991666726028 3.13728265018928 22.9719987981412
vertex 17.4 3.85429399400208 21.8848547906108
vertex 16.8991666726028 3.78728265018904 21.8461657732216
endloop
endfacet
facet normal -1.07276347998717e-016 0.866025403784445 0.499999999999989
outer loop
vertex 17.4 3.85429399400208 21.8848547906108
vertex 16.8991666726028 3.13728265018928 22.9719987981412
vertex 17.4 3.20429399400232 23.0106878155304
endloop
endfacet
facet normal 4.1761019338232e-016 0.499999999999989 -0.866025403784445
outer loop
vertex 15.8379844250055 2.90248547247288 21.335327884489
vertex 15.8 2.03564064605473 20.8348547906108
vertex 15.7416698332893 2.471604211404 21.0865584724221
endloop
endfacet
facet normal 4.1761019338232e-016 0.499999999999989 -0.866025403784445
outer loop
vertex 15.8 2.03564064605473 20.8348547906108
vertex 15.8379844250055 2.90248547247288 21.335327884489
vertex 15.8545186779375 2.39427083492196 21.0419100266928
endloop
endfacet
facet normal 4.1761019338232e-016 0.499999999999989 -0.866025403784445
outer loop
vertex 15.8545186779375 2.39427083492196 21.0419100266928
vertex 15.8379844250055 2.90248547247288 21.335327884489
vertex 16.0799621217556 3.28810333030636 21.5579644585134
endloop
endfacet
facet normal 4.1761019338232e-016 0.499999999999989 -0.866025403784445
outer loop
vertex 15.8545186779375 2.39427083492196 21.0419100266928
vertex 16.0799621217556 3.28810333030636 21.5579644585134
vertex 16.0143593539449 2.72846096908228 21.2348547906108
endloop
endfacet
facet normal 4.1761019338232e-016 0.499999999999989 -0.866025403784445
outer loop
vertex 16.0143593539449 2.72846096908228 21.2348547906108
vertex 16.0799621217556 3.28810333030636 21.5579644585134
vertex 16.2686291501015 3.015436543168 21.4005402155601
endloop
endfacet
facet normal 4.1761019338232e-016 0.499999999999989 -0.866025403784445
outer loop
vertex 16.2686291501015 3.015436543168 21.4005402155601
vertex 16.0799621217556 3.28810333030636 21.5579644585134
vertex 16.4450377050987 3.59249764761277 21.7337065995501
endloop
endfacet
facet normal 4.1761019338232e-016 0.499999999999989 -0.866025403784445
outer loop
vertex 16.2686291501015 3.015436543168 21.4005402155601
vertex 16.4450377050987 3.59249764761277 21.7337065995501
vertex 16.6 3.23564064605473 21.5276751136384
endloop
endfacet
facet normal 4.1761019338232e-016 0.499999999999989 -0.866025403784445
outer loop
vertex 16.6 3.23564064605473 21.5276751136384
vertex 16.4450377050987 3.59249764761277 21.7337065995501
vertex 16.8991666726028 3.78728265018904 21.8461657732216
endloop
endfacet
facet normal 4.1761019338232e-016 0.499999999999989 -0.866025403784445
outer loop
vertex 16.6 3.23564064605473 21.5276751136384
vertex 16.8991666726028 3.78728265018904 21.8461657732216
vertex 16.985889527836 3.37406673203523 21.6075954516421
endloop
endfacet
facet normal 4.1761019338232e-016 0.499999999999989 -0.866025403784445
outer loop
vertex 16.985889527836 3.37406673203523 21.6075954516421
vertex 16.8991666726028 3.78728265018904 21.8461657732216
vertex 17.4 3.85429399400208 21.8848547906108
endloop
endfacet
facet normal 4.1761019338232e-016 0.499999999999989 -0.866025403784445
outer loop
vertex 16.985889527836 3.37406673203523 21.6075954516421
vertex 17.4 3.85429399400208 21.8848547906108
vertex 17.4 3.42128129210984 21.6348547906108
endloop
endfacet
facet normal 4.1761019338232e-016 0.499999999999989 -0.866025403784445
outer loop
vertex 17.4 3.42128129210984 21.6348547906108
vertex 17.4 3.85429399400208 21.8848547906108
vertex 17.814110472164 3.37406673203523 21.6075954516421
endloop
endfacet
facet normal 4.1761019338232e-016 0.499999999999989 -0.866025403784445
outer loop
vertex 17.814110472164 3.37406673203523 21.6075954516421
vertex 17.4 3.85429399400208 21.8848547906108
vertex 17.9008333273972 3.78728265018904 21.8461657732216
endloop
endfacet
facet normal 4.1761019338232e-016 0.499999999999989 -0.866025403784445
outer loop
vertex 17.814110472164 3.37406673203523 21.6075954516421
vertex 17.9008333273972 3.78728265018904 21.8461657732216
vertex 18.2 3.23564064605473 21.5276751136384
endloop
endfacet
facet normal 4.1761019338232e-016 0.499999999999989 -0.866025403784445
outer loop
vertex 18.2 3.23564064605473 21.5276751136384
vertex 17.9008333273972 3.78728265018904 21.8461657732216
vertex 18.3549622949013 3.59249764761277 21.7337065995501
endloop
endfacet
facet normal 4.1761019338232e-016 0.499999999999989 -0.866025403784445
outer loop
vertex 18.2 3.23564064605473 21.5276751136384
vertex 18.3549622949013 3.59249764761277 21.7337065995501
vertex 18.5313708498985 3.015436543168 21.4005402155601
endloop
endfacet
facet normal 4.1761019338232e-016 0.499999999999989 -0.866025403784445
outer loop
vertex 18.5313708498985 3.015436543168 21.4005402155601
vertex 18.3549622949013 3.59249764761277 21.7337065995501
vertex 18.7200378782444 3.28810333030636 21.5579644585134
endloop
endfacet
facet normal 4.1761019338232e-016 0.499999999999989 -0.866025403784445
outer loop
vertex 18.5313708498985 3.015436543168 21.4005402155601
vertex 18.7200378782444 3.28810333030636 21.5579644585134
vertex 18.7856406460551 2.72846096908228 21.2348547906108
endloop
endfacet
facet normal 4.1761019338232e-016 0.499999999999989 -0.866025403784445
outer loop
vertex 18.7856406460551 2.72846096908228 21.2348547906108
vertex 18.7200378782444 3.28810333030636 21.5579644585134
vertex 18.9620155749944 2.90248547247288 21.335327884489
endloop
endfacet
facet normal 4.1761019338232e-016 0.499999999999989 -0.866025403784445
outer loop
vertex 18.7856406460551 2.72846096908228 21.2348547906108
vertex 18.9620155749944 2.90248547247288 21.335327884489
vertex 18.9454813220625 2.39427083492196 21.0419100266928
endloop
endfacet
facet normal 4.1761019338232e-016 0.499999999999989 -0.866025403784445
outer loop
vertex 18.9454813220625 2.39427083492196 21.0419100266928
vertex 18.9620155749944 2.90248547247288 21.335327884489
vertex 19.0 2.03564064605473 20.8348547906108
endloop
endfacet
facet normal 4.1761019338232e-016 0.499999999999989 -0.866025403784445
outer loop
vertex 19.0 2.03564064605473 20.8348547906108
vertex 18.9620155749944 2.90248547247288 21.335327884489
vertex 19.0583301667107 2.471604211404 21.0865584724221
endloop
endfacet
facet normal 0.109231293109647 -0.444822620354574 -0.888932708941731
outer loop
vertex 17.814110472164 1.54721456007418 18.5898709431462
vertex 17.4 1.49999999999957 18.5626116041774
vertex 17.4 4.09814064605478 17.2625
endloop
endfacet
facet normal 0.795431720032507 0.524848820208828 0.303021607631416
outer loop
vertex 18.7200378782444 3.28810333030636 21.5579644585134
vertex 18.3549622949013 2.94249764761301 22.8595396244697
vertex 18.7200378782444 2.6381033303066 22.6837974834331
endloop
endfacet
facet normal 0.575443563642101 0.70827150782533 0.408920745702285
outer loop
vertex 18.3549622949013 2.94249764761301 22.8595396244697
vertex 18.7200378782444 3.28810333030636 21.5579644585134
vertex 18.3549622949013 3.59249764761277 21.7337065995501
endloop
endfacet
facet normal 0.829694043875856 0.179116424289231 -0.528701333558721
outer loop
vertex 17.4 4.09814064605478 17.2625
vertex 19.0 2.88564064605479 19.3626116041773
vertex 18.9454813220625 2.52701045718745 19.1555563680954
endloop
endfacet
facet normal 0.382683432365102 -0.800103145191265 -0.461939766255634
outer loop
vertex 18.2 1.68564064605468 18.6697912811499
vertex 17.814110472164 0.0472145600746101 21.1879471544994
vertex 17.814110472164 1.54721456007418 18.5898709431462
endloop
endfacet
facet normal 0.382683432365102 -0.800103145191265 -0.461939766255634
outer loop
vertex 17.814110472164 0.0472145600746101 21.1879471544994
vertex 18.2 1.68564064605468 18.6697912811499
vertex 18.2 0.185640646055109 21.2678674925031
endloop
endfacet
facet normal -0.923879532511282 -0.331413574035603 -0.191341716182547
outer loop
vertex 15.8545186779375 1.02701045718788 21.7536325794486
vertex 16.0143593539449 2.19282032302713 18.9626116041774
vertex 16.0143593539449 0.692820323027565 21.5606878155306
endloop
endfacet
facet normal -0.923879532511282 -0.331413574035603 -0.191341716182547
outer loop
vertex 16.0143593539449 2.19282032302713 18.9626116041774
vertex 15.8545186779375 1.02701045718788 21.7536325794486
vertex 15.8545186779375 2.52701045718745 19.1555563680954
endloop
endfacet
facet normal -0.663920472810334 -0.167478030504235 -0.728807735333349
outer loop
vertex 17.4 4.09814064605478 17.2625
vertex 16.2686291501015 1.90584474894141 18.7969261792282
vertex 16.0143593539449 2.19282032302713 18.9626116041774
endloop
endfacet
facet normal -0.382683432365103 -0.800103145191265 -0.461939766255633
outer loop
vertex 16.985889527836 0.0472145600746101 21.1879471544994
vertex 16.6 1.68564064605468 18.6697912811499
vertex 16.985889527836 1.54721456007418 18.5898709431462
endloop
endfacet
facet normal -0.382683432365103 -0.800103145191265 -0.461939766255633
outer loop
vertex 16.6 1.68564064605468 18.6697912811499
vertex 16.985889527836 0.0472145600746101 21.1879471544994
vertex 16.6 0.185640646055109 21.2678674925031
endloop
endfacet
facet normal -0.322329158915963 -0.728330758541184 -0.604680262184365
outer loop
vertex 21.4 2.20262794416258 19.5456243060695
vertex 20.2 2.88564064605479 19.3626116041773
vertex 21.4 4.09814064605478 17.2625
endloop
endfacet
facet normal 1.62749037397856e-016 -0.86602540378444 -0.499999999999997
outer loop
vertex 21.4 4.09814064605478 17.2625
vertex 19.0 2.88564064605479 19.3626116041773
vertex 17.4 4.09814064605478 17.2625
endloop
endfacet
facet normal 1.62749037397856e-016 -0.86602540378444 -0.499999999999997
outer loop
vertex 19.0 2.88564064605479 19.3626116041773
vertex 21.4 4.09814064605478 17.2625
vertex 20.2 2.88564064605479 19.3626116041773
endloop
endfacet
facet normal 0.301793396709925 0.825645540941586 0.476686675317825
outer loop
vertex 17.9008333273972 3.78728265018904 21.8461657732216
vertex 18.3549622949013 2.94249764761301 22.8595396244697
vertex 18.3549622949013 3.59249764761277 21.7337065995501
endloop
endfacet
facet normal 0.575443563642101 0.70827150782533 0.408920745702285
outer loop
vertex 18.3549622949013 2.94249764761301 22.8595396244697
vertex 17.9008333273972 3.78728265018904 21.8461657732216
vertex 17.9008333273972 3.13728265018928 22.9719987981412
endloop
endfacet
facet normal -8.85003767444325e-016 -0.499999999999994 0.866025403784442
outer loop
vertex 13.4 4.98575225023205 20.5751116041772
vertex 16.985889527836 4.22406673203529 20.1353522652085
vertex 21.4 4.98575225023205 20.5751116041773
endloop
endfacet
facet normal -8.85003767444325e-016 -0.499999999999994 0.866025403784442
outer loop
vertex 16.985889527836 4.22406673203529 20.1353522652085
vertex 13.4 4.98575225023205 20.5751116041772
vertex 16.6 4.08564064605479 20.0554319272048
endloop
endfacet
facet normal -8.85003767444325e-016 -0.499999999999994 0.866025403784442
outer loop
vertex 16.6 4.08564064605479 20.0554319272048
vertex 13.4 4.98575225023205 20.5751116041772
vertex 14.6 2.88564064605479 19.3626116041773
endloop
endfacet
facet normal -8.85003767444325e-016 -0.499999999999994 0.866025403784442
outer loop
vertex 16.6 4.08564064605479 20.0554319272048
vertex 14.6 2.88564064605479 19.3626116041773
vertex 16.2686291501015 3.86543654316806 19.9282970291265
endloop
endfacet
facet normal -8.85003767444325e-016 -0.499999999999994 0.866025403784442
outer loop
vertex 16.2686291501015 3.86543654316806 19.9282970291265
vertex 14.6 2.88564064605479 19.3626116041773
vertex 16.0143593539449 3.57846096908233 19.7626116041773
endloop
endfacet
facet normal -8.85003767444325e-016 -0.499999999999994 0.866025403784442
outer loop
vertex 16.0143593539449 3.57846096908233 19.7626116041773
vertex 14.6 2.88564064605479 19.3626116041773
vertex 15.8545186779375 3.24427083492202 19.5696668402593
endloop
endfacet
facet normal -8.85003767444325e-016 -0.499999999999994 0.866025403784442
outer loop
vertex 15.8545186779375 3.24427083492202 19.5696668402593
vertex 14.6 2.88564064605479 19.3626116041773
vertex 15.8 2.88564064605479 19.3626116041773
endloop
endfacet
facet normal -8.85003767444325e-016 -0.499999999999994 0.866025403784442
outer loop
vertex 21.4 4.98575225023205 20.5751116041773
vertex 16.985889527836 4.22406673203529 20.1353522652085
vertex 17.4 4.2712812921099 20.1626116041773
endloop
endfacet
facet normal -8.85003767444325e-016 -0.499999999999994 0.866025403784442
outer loop
vertex 21.4 4.98575225023205 20.5751116041773
vertex 17.4 4.2712812921099 20.1626116041773
vertex 17.814110472164 4.22406673203529 20.1353522652085
endloop
endfacet
facet normal -8.85003767444325e-016 -0.499999999999994 0.866025403784442
outer loop
vertex 21.4 4.98575225023205 20.5751116041773
vertex 17.814110472164 4.22406673203529 20.1353522652085
vertex 18.2 4.08564064605479 20.0554319272048
endloop
endfacet
facet normal -8.85003767444325e-016 -0.499999999999994 0.866025403784442
outer loop
vertex 21.4 4.98575225023205 20.5751116041773
vertex 18.2 4.08564064605479 20.0554319272048
vertex 18.5313708498985 3.86543654316806 19.9282970291265
endloop
endfacet
facet normal -8.85003767444325e-016 -0.499999999999994 0.866025403784442
outer loop
vertex 21.4 4.98575225023205 20.5751116041773
vertex 18.5313708498985 3.86543654316806 19.9282970291265
vertex 18.7856406460551 3.57846096908233 19.7626116041773
endloop
endfacet
facet normal -8.85003767444325e-016 -0.499999999999994 0.866025403784442
outer loop
vertex 21.4 4.98575225023205 20.5751116041773
vertex 18.7856406460551 3.57846096908233 19.7626116041773
vertex 18.9454813220625 3.24427083492202 19.5696668402593
endloop
endfacet
facet normal -8.85003767444325e-016 -0.499999999999994 0.866025403784442
outer loop
vertex 21.4 4.98575225023205 20.5751116041773
vertex 18.9454813220625 3.24427083492202 19.5696668402593
vertex 19.0 2.88564064605479 19.3626116041773
endloop
endfacet
facet normal -8.85003767444325e-016 -0.499999999999994 0.866025403784442
outer loop
vertex 21.4 4.98575225023205 20.5751116041773
vertex 19.0 2.88564064605479 19.3626116041773
vertex 20.2 2.88564064605479 19.3626116041773
endloop
endfacet
facet normal 0.172319592204492 -0.806721158525391 0.565249440981527
outer loop
vertex 17.4 0.985640646055153 22.6535081385582
vertex 17.814110472164 0.0472145600746101 21.1879471544994
vertex 18.2 0.185640646055109 21.2678674925031
endloop
endfacet
facet normal 0.348680678126336 -0.294844065759289 0.889656541361828
outer loop
vertex 18.9620155749944 2.25248547247312 22.4611609094086
vertex 18.7200378782444 2.6381033303066 22.6837974834331
vertex 17.4 0.985640646055153 22.6535081385582
endloop
endfacet
facet normal -0.0549177676557462 -0.158703006384639 0.985797846700928
outer loop
vertex 17.4 3.20429399400232 23.0106878155304
vertex 16.8991666726028 3.13728265018928 22.9719987981412
vertex 17.4 0.985640646055153 22.6535081385582
endloop
endfacet
facet normal -0.162393974199417 -0.181368890201223 0.969914183219781
outer loop
vertex 17.4 0.985640646055153 22.6535081385582
vertex 16.8991666726028 3.13728265018928 22.9719987981412
vertex 16.4450377050987 2.94249764761301 22.8595396244697
endloop
endfacet
facet normal -0.274120885109345 -0.755820512072964 0.594636942912759
outer loop
vertex 17.4 0.985640646055153 22.6535081385582
vertex 16.2686291501015 0.40584474894184 21.3950023905814
vertex 16.6 0.185640646055109 21.2678674925031
endloop
endfacet
facet normal -0.416016296562648 -0.59567362173269 0.687097793160594
outer loop
vertex 17.4 0.985640646055153 22.6535081385582
vertex 15.8545186779375 1.02701045718788 21.7536325794486
vertex 16.0143593539449 0.692820323027565 21.5606878155306
endloop
endfacet
facet normal -0.348680678126336 -0.294844065759288 0.889656541361829
outer loop
vertex 17.4 0.985640646055153 22.6535081385582
vertex 16.0799621217556 2.6381033303066 22.6837974834331
vertex 15.8379844250055 2.25248547247312 22.4611609094086
endloop
endfacet
facet normal 0.130526192220074 -0.85861643640131 -0.495722430686815
outer loop
vertex 17.814110472164 1.54721456007418 18.5898709431462
vertex 17.4 0.0 21.1606878155306
vertex 17.4 1.49999999999957 18.5626116041774
endloop
endfacet
facet normal 0.130526192220074 -0.85861643640131 -0.495722430686815
outer loop
vertex 17.4 0.0 21.1606878155306
vertex 17.814110472164 1.54721456007418 18.5898709431462
vertex 17.814110472164 0.0472145600746101 21.1879471544994
endloop
endfacet
facet normal -0.262398726386979 -0.226804182241346 0.937926847525075
outer loop
vertex 17.4 0.985640646055153 22.6535081385582
vertex 16.4450377050987 2.94249764761301 22.8595396244697
vertex 16.0799621217556 2.6381033303066 22.6837974834331
endloop
endfacet
facet normal 0.9933538389695 -0.0996800529364825 -0.0575503053956911
outer loop
vertex 19.0 2.03564064605473 20.8348547906108
vertex 19.0583301667107 1.82160421140424 22.2123914973417
vertex 19.0 1.38564064605511 21.9606878155306
endloop
endfacet
facet normal 0.99928073173387 0.0328407428214611 0.0189606117083685
outer loop
vertex 19.0583301667107 1.82160421140424 22.2123914973417
vertex 19.0 2.03564064605473 20.8348547906108
vertex 19.0583301667107 2.471604211404 21.0865584724221
endloop
endfacet
facet normal 0.446440477313826 0.497341123766237 -0.743870087331612
outer loop
vertex 17.4 0.985640646055153 22.6535081385582
vertex 15.8545186779375 1.02701045718788 21.7536325794486
vertex 15.8 1.38564064605511 21.9606878155306
endloop
endfacet
facet normal 0.0549177676557444 -0.158703006384639 0.985797846700928
outer loop
vertex 17.9008333273972 3.13728265018928 22.9719987981412
vertex 17.4 3.20429399400232 23.0106878155304
vertex 17.4 0.985640646055153 22.6535081385582
endloop
endfacet
facet normal 0.162393974199415 -0.181368890201224 0.969914183219782
outer loop
vertex 18.3549622949013 2.94249764761301 22.8595396244697
vertex 17.9008333273972 3.13728265018928 22.9719987981412
vertex 17.4 0.985640646055153 22.6535081385582
endloop
endfacet
facet normal 1.0 1.60818387297076e-015 -4.30911570043304e-016
outer loop
vertex 21.4 2.20262794416258 19.5456243060695
vertex 21.4 3.85588212148106 17.8473638156264
vertex 21.4 3.77325225023206 18.475
endloop
endfacet
facet normal 1.0 1.60818387297076e-015 -4.30911570043304e-016
outer loop
vertex 21.4 3.85588212148106 17.8473638156264
vertex 21.4 2.20262794416258 19.5456243060695
vertex 21.4 4.09814064605478 17.2625
endloop
endfacet
facet normal 1.0 1.60818387297076e-015 -4.30911570043304e-016
outer loop
vertex 21.4 2.20262794416258 19.5456243060695
vertex 21.4 4.48351830585466 20.1897339443774
vertex 21.4 4.98575225023205 20.5751116041773
endloop
endfacet
facet normal 1.0 1.60818387297076e-015 -4.30911570043304e-016
outer loop
vertex 21.4 4.48351830585466 20.1897339443774
vertex 21.4 2.20262794416258 19.5456243060695
vertex 21.4 4.09814064605478 19.6875
endloop
endfacet
facet normal 1.0 1.60818387297076e-015 -4.30911570043304e-016
outer loop
vertex 21.4 4.09814064605478 19.6875
vertex 21.4 2.20262794416258 19.5456243060695
vertex 21.4 3.85588212148106 19.1026361843736
endloop
endfacet
facet normal 1.0 1.60818387297076e-015 -4.30911570043304e-016
outer loop
vertex 21.4 3.85588212148106 19.1026361843736
vertex 21.4 2.20262794416258 19.5456243060695
vertex 21.4 3.77325225023206 18.475
endloop
endfacet
facet normal 0.0224424463333871 -0.857702457443632 -0.513656335595822
outer loop
vertex 19.0 2.88564064605479 19.3626116041773
vertex 13.4 3.85588212148106 17.8473638156264
vertex 21.4 3.85588212148106 17.8473638156264
endloop
endfacet
facet normal -0.190737149157095 -0.935634905472229 -0.296996066629505
outer loop
vertex 13.4 3.85588212148106 17.8473638156264
vertex 19.0 2.88564064605479 19.3626116041773
vertex 15.8 2.88564064605479 19.3626116041773
endloop
endfacet
facet normal 6.00107899672125e-016 -0.499999999999996 0.866025403784441
outer loop
vertex 15.8545186779375 1.02701045718788 21.7536325794486
vertex 17.4 1.38564064605511 21.9606878155306
vertex 15.8 1.38564064605511 21.9606878155306
endloop
endfacet
facet normal 6.00107899672125e-016 -0.499999999999996 0.866025403784441
outer loop
vertex 17.4 1.38564064605511 21.9606878155306
vertex 15.8545186779375 1.02701045718788 21.7536325794486
vertex 16.0143593539449 0.692820323027565 21.5606878155306
endloop
endfacet
facet normal 6.00107899672125e-016 -0.499999999999996 0.866025403784441
outer loop
vertex 17.4 1.38564064605511 21.9606878155306
vertex 16.0143593539449 0.692820323027565 21.5606878155306
vertex 16.2686291501015 0.40584474894184 21.3950023905814
endloop
endfacet
facet normal 6.00107899672125e-016 -0.499999999999996 0.866025403784441
outer loop
vertex 17.4 1.38564064605511 21.9606878155306
vertex 16.2686291501015 0.40584474894184 21.3950023905814
vertex 16.6 0.185640646055109 21.2678674925031
endloop
endfacet
facet normal 6.00107899672125e-016 -0.499999999999996 0.866025403784441
outer loop
vertex 17.4 1.38564064605511 21.9606878155306
vertex 16.6 0.185640646055109 21.2678674925031
vertex 16.985889527836 0.0472145600746101 21.1879471544994
endloop
endfacet
facet normal 6.00107899672125e-016 -0.499999999999996 0.866025403784441
outer loop
vertex 17.4 1.38564064605511 21.9606878155306
vertex 16.985889527836 0.0472145600746101 21.1879471544994
vertex 17.4 0.0 21.1606878155306
endloop
endfacet
facet normal 6.00107899672125e-016 -0.499999999999996 0.866025403784441
outer loop
vertex 17.4 1.38564064605511 21.9606878155306
vertex 17.4 0.0 21.1606878155306
vertex 17.814110472164 0.0472145600746101 21.1879471544994
endloop
endfacet
facet normal 6.00107899672125e-016 -0.499999999999996 0.866025403784441
outer loop
vertex 17.4 1.38564064605511 21.9606878155306
vertex 17.814110472164 0.0472145600746101 21.1879471544994
vertex 19.0 1.38564064605511 21.9606878155306
endloop
endfacet
facet normal 6.00107899672125e-016 -0.499999999999996 0.866025403784441
outer loop
vertex 19.0 1.38564064605511 21.9606878155306
vertex 17.814110472164 0.0472145600746101 21.1879471544994
vertex 18.2 0.185640646055109 21.2678674925031
endloop
endfacet
facet normal 6.00107899672125e-016 -0.499999999999996 0.866025403784441
outer loop
vertex 19.0 1.38564064605511 21.9606878155306
vertex 18.2 0.185640646055109 21.2678674925031
vertex 18.5313708498985 0.40584474894184 21.3950023905814
endloop
endfacet
facet normal 6.00107899672125e-016 -0.499999999999996 0.866025403784441
outer loop
vertex 19.0 1.38564064605511 21.9606878155306
vertex 18.5313708498985 0.40584474894184 21.3950023905814
vertex 18.7856406460551 0.692820323027565 21.5606878155306
endloop
endfacet
facet normal 6.00107899672125e-016 -0.499999999999996 0.866025403784441
outer loop
vertex 19.0 1.38564064605511 21.9606878155306
vertex 18.7856406460551 0.692820323027565 21.5606878155306
vertex 18.9454813220625 1.02701045718788 21.7536325794486
endloop
endfacet
facet normal 0.058775003862429 -0.833069271945241 0.550037350605937
outer loop
vertex 17.4 0.985640646055153 22.6535081385582
vertex 17.4 0.0 21.1606878155306
vertex 17.814110472164 0.0472145600746101 21.1879471544994
endloop
endfacet
facet normal -1.0 -4.79461798813549e-016 9.28927519311789e-016
outer loop
vertex 13.4 2.20895347812845 19.5417609183368
vertex 13.4 3.85588212148106 19.1026361843736
vertex 13.4 3.77325225023206 18.475
endloop
endfacet
facet normal -1.0 -4.79461798813549e-016 9.28927519311789e-016
outer loop
vertex 13.4 3.85588212148106 19.1026361843736
vertex 13.4 2.20895347812845 19.5417609183368
vertex 13.4 4.09814064605478 19.6875
endloop
endfacet
facet normal -1.0 -4.79461798813549e-016 9.28927519311789e-016
outer loop
vertex 13.4 4.09814064605478 19.6875
vertex 13.4 2.20895347812845 19.5417609183368
vertex 13.4 4.48351830585466 20.1897339443774
endloop
endfacet
facet normal -1.0 -4.79461798813549e-016 9.28927519311789e-016
outer loop
vertex 13.4 4.48351830585466 20.1897339443774
vertex 13.4 2.20895347812845 19.5417609183368
vertex 13.4 4.98575225023205 20.5751116041772
endloop
endfacet
facet normal -1.0 -4.79461798813549e-016 9.28927519311789e-016
outer loop
vertex 13.4 2.20895347812845 19.5417609183368
vertex 13.4 3.85588212148106 17.8473638156264
vertex 13.4 4.09814064605478 17.2625
endloop
endfacet
facet normal -1.0 -4.79461798813549e-016 9.28927519311789e-016
outer loop
vertex 13.4 3.85588212148106 17.8473638156264
vertex 13.4 2.20895347812845 19.5417609183368
vertex 13.4 3.77325225023206 18.475
endloop
endfacet
facet normal 0.262398726386976 -0.226804182241346 0.937926847525076
outer loop
vertex 18.7200378782444 2.6381033303066 22.6837974834331
vertex 18.3549622949013 2.94249764761301 22.8595396244697
vertex 17.4 0.985640646055153 22.6535081385582
endloop
endfacet
facet normal -0.0587750038624289 -0.833069271945241 0.550037350605937
outer loop
vertex 17.4 0.985640646055153 22.6535081385582
vertex 16.985889527836 0.0472145600746101 21.1879471544994
vertex 17.4 0.0 21.1606878155306
endloop
endfacet
facet normal -0.941243244616455 0.292482248774038 0.168864705062872
outer loop
vertex 15.8379844250055 2.25248547247312 22.4611609094086
vertex 15.7416698332893 2.471604211404 21.0865584724221
vertex 15.7416698332893 1.82160421140424 22.2123914973417
endloop
endfacet
facet normal -0.999280731733871 0.0328407428214545 0.0189606117083642
outer loop
vertex 15.7416698332893 2.471604211404 21.0865584724221
vertex 15.8379844250055 2.25248547247312 22.4611609094086
vertex 15.8379844250055 2.90248547247288 21.335327884489
endloop
endfacet
facet normal 3.96948871702087e-018 -0.866025403784441 -0.499999999999996
outer loop
vertex 15.8 2.88564064605479 19.3626116041773
vertex 13.4 4.09814064605478 17.2625
vertex 17.4 4.09814064605478 17.2625
endloop
endfacet
facet normal 3.96948871702087e-018 -0.866025403784441 -0.499999999999996
outer loop
vertex 13.4 4.09814064605478 17.2625
vertex 15.8 2.88564064605479 19.3626116041773
vertex 14.6 2.88564064605479 19.3626116041773
endloop
endfacet
facet normal -0.413297380241012 -0.384249194491316 0.825553046156751
outer loop
vertex 17.4 0.985640646055153 22.6535081385582
vertex 15.8379844250055 2.25248547247312 22.4611609094086
vertex 15.7416698332893 1.82160421140424 22.2123914973417
endloop
endfacet
facet normal -2.56240964623253e-016 -0.866025403784475 -0.499999999999937
outer loop
vertex 17.4 0.985640646055153 22.6535081385582
vertex 15.8 1.38564064605511 21.9606878155306
vertex 17.4 1.38564064605511 21.9606878155306
endloop
endfacet
facet normal -1.49235712606727e-016 -0.707106781186552 -0.707106781186543
outer loop
vertex 19.0 2.88564064605479 19.3626116041773
vertex 13.4 3.77325225023206 18.475
vertex 21.4 3.77325225023206 18.475
endloop
endfacet
facet normal -1.49235712606727e-016 -0.707106781186552 -0.707106781186543
outer loop
vertex 13.4 3.77325225023206 18.475
vertex 19.0 2.88564064605479 19.3626116041773
vertex 15.8 2.88564064605479 19.3626116041773
endloop
endfacet
facet normal -0.773151765919983 -0.00363109083976547 -0.63421066061217
outer loop
vertex 17.4 4.09814064605478 17.2625
vertex 16.0143593539449 2.19282032302713 18.9626116041774
vertex 15.8545186779375 2.52701045718745 19.1555563680954
endloop
endfacet
facet normal 2.06716030906583e-016 -0.258819045102505 0.965925826289073
outer loop
vertex 15.8 2.88564064605479 19.3626116041773
vertex 21.4 4.09814064605478 19.6875
vertex 13.4 4.09814064605478 19.6875
endloop
endfacet
facet normal 2.06716030906583e-016 -0.258819045102505 0.965925826289073
outer loop
vertex 21.4 4.09814064605478 19.6875
vertex 15.8 2.88564064605479 19.3626116041773
vertex 19.0 2.88564064605479 19.3626116041773
endloop
endfacet
facet normal -0.446614372115911 -0.491430773390168 0.747684022555419
outer loop
vertex 17.4 0.985640646055153 22.6535081385582
vertex 15.7416698332893 1.82160421140424 22.2123914973417
vertex 15.8 1.38564064605511 21.9606878155306
endloop
endfacet
facet normal -9.62580916203652e-017 0.499999999999993 -0.866025403784443
outer loop
vertex 15.8545186779375 3.24427083492202 19.5696668402593
vertex 19.0 2.88564064605479 19.3626116041773
vertex 15.8 2.88564064605479 19.3626116041773
endloop
endfacet
facet normal -9.62580916203652e-017 0.499999999999993 -0.866025403784443
outer loop
vertex 19.0 2.88564064605479 19.3626116041773
vertex 15.8545186779375 3.24427083492202 19.5696668402593
vertex 16.0143593539449 3.57846096908233 19.7626116041773
endloop
endfacet
facet normal -9.62580916203652e-017 0.499999999999993 -0.866025403784443
outer loop
vertex 19.0 2.88564064605479 19.3626116041773
vertex 16.0143593539449 3.57846096908233 19.7626116041773
vertex 16.2686291501015 3.86543654316806 19.9282970291265
endloop
endfacet
facet normal -9.62580916203652e-017 0.499999999999993 -0.866025403784443
outer loop
vertex 19.0 2.88564064605479 19.3626116041773
vertex 16.2686291501015 3.86543654316806 19.9282970291265
vertex 16.6 4.08564064605479 20.0554319272048
endloop
endfacet
facet normal -9.62580916203652e-017 0.499999999999993 -0.866025403784443
outer loop
vertex 19.0 2.88564064605479 19.3626116041773
vertex 16.6 4.08564064605479 20.0554319272048
vertex 16.985889527836 4.22406673203529 20.1353522652085
endloop
endfacet
facet normal -9.62580916203652e-017 0.499999999999993 -0.866025403784443
outer loop
vertex 19.0 2.88564064605479 19.3626116041773
vertex 16.985889527836 4.22406673203529 20.1353522652085
vertex 17.4 4.2712812921099 20.1626116041773
endloop
endfacet
facet normal -9.62580916203652e-017 0.499999999999993 -0.866025403784443
outer loop
vertex 19.0 2.88564064605479 19.3626116041773
vertex 17.4 4.2712812921099 20.1626116041773
vertex 17.814110472164 4.22406673203529 20.1353522652085
endloop
endfacet
facet normal -9.62580916203652e-017 0.499999999999993 -0.866025403784443
outer loop
vertex 19.0 2.88564064605479 19.3626116041773
vertex 17.814110472164 4.22406673203529 20.1353522652085
vertex 18.2 4.08564064605479 20.0554319272048
endloop
endfacet
facet normal -9.62580916203652e-017 0.499999999999993 -0.866025403784443
outer loop
vertex 19.0 2.88564064605479 19.3626116041773
vertex 18.2 4.08564064605479 20.0554319272048
vertex 18.5313708498985 3.86543654316806 19.9282970291265
endloop
endfacet
facet normal -9.62580916203652e-017 0.499999999999993 -0.866025403784443
outer loop
vertex 19.0 2.88564064605479 19.3626116041773
vertex 18.5313708498985 3.86543654316806 19.9282970291265
vertex 18.7856406460551 3.57846096908233 19.7626116041773
endloop
endfacet
facet normal -9.62580916203652e-017 0.499999999999993 -0.866025403784443
outer loop
vertex 19.0 2.88564064605479 19.3626116041773
vertex 18.7856406460551 3.57846096908233 19.7626116041773
vertex 18.9454813220625 3.24427083492202 19.5696668402593
endloop
endfacet
facet normal 0.319004677466166 -0.330548097084074 0.888242067945898
outer loop
vertex 14.6 2.88564064605479 19.3626116041773
vertex 13.4 4.98575225023205 20.5751116041772
vertex 13.4 2.20895347812845 19.5417609183368
endloop
endfacet
facet normal -0.322329158915963 -0.328412808162067 0.887833847489289
outer loop
vertex 21.4 4.98575225023205 20.5751116041773
vertex 20.2 2.88564064605479 19.3626116041773
vertex 21.4 2.20262794416258 19.5456243060695
endloop
endfacet
facet normal -2.06333365117556e-016 -0.258819045102538 -0.965925826289064
outer loop
vertex 21.4 3.85588212148106 19.1026361843736
vertex 15.8 2.88564064605479 19.3626116041773
vertex 13.4 3.85588212148106 19.1026361843736
endloop
endfacet
facet normal -2.06333365117556e-016 -0.258819045102538 -0.965925826289064
outer loop
vertex 15.8 2.88564064605479 19.3626116041773
vertex 21.4 3.85588212148106 19.1026361843736
vertex 19.0 2.88564064605479 19.3626116041773
endloop
endfacet
facet normal 0.0 0.0 -1.0
outer loop
vertex 8.99999999999999 1.29825225023199 13.05
vertex 25.8 -2.701747749768 13.05
vertex 8.99999999999999 -2.70174774976801 13.05
endloop
endfacet
facet normal 0.0 0.0 -1.0
outer loop
vertex 25.8 -2.701747749768 13.05
vertex 8.99999999999999 1.29825225023199 13.05
vertex 25.8 1.298252250232 13.05
endloop
endfacet
facet normal 1.0 -5.08382549692553e-016 -9.07044597569983e-016
outer loop
vertex 25.8 1.298252250232 13.05
vertex 25.8 -2.70174774976789 20.9
vertex 25.8 -2.701747749768 13.05
endloop
endfacet
facet normal 1.0 -5.08382549692553e-016 -9.07044597569983e-016
outer loop
vertex 25.8 -2.70174774976789 20.9
vertex 25.8 1.298252250232 13.05
vertex 25.8 1.29825225023204 16.05
endloop
endfacet
facet normal 1.0 -5.08382549692553e-016 -9.07044597569983e-016
outer loop
vertex 25.8 -2.70174774976789 20.9
vertex 25.8 1.29825225023204 16.05
vertex 25.8 6.19825225023203 20.9
endloop
endfacet
facet normal 1.0 -5.08382549692553e-016 -9.07044597569983e-016
outer loop
vertex 25.8 6.19825225023203 20.9
vertex 25.8 1.29825225023204 16.05
vertex 25.8 6.19825225023203 16.05
endloop
endfacet
facet normal 1.0 -5.08382549692553e-016 -9.07044597569983e-016
outer loop
vertex 25.8 6.19825225023203 20.9
vertex 25.8 6.19825225023203 16.05
vertex 25.8 6.8258884346057 16.132629871249
endloop
endfacet
facet normal 1.0 -5.08382549692553e-016 -9.07044597569983e-016
outer loop
vertex 25.8 6.19825225023203 20.9
vertex 25.8 6.8258884346057 16.132629871249
vertex 25.8 6.8258884346057 20.817370128751
endloop
endfacet
facet normal 1.0 -5.08382549692553e-016 -9.07044597569983e-016
outer loop
vertex 25.8 6.8258884346057 20.817370128751
vertex 25.8 6.8258884346057 16.132629871249
vertex 25.8 7.41075225023207 16.3748883958227
endloop
endfacet
facet normal 1.0 -5.08382549692553e-016 -9.07044597569983e-016
outer loop
vertex 25.8 6.8258884346057 20.817370128751
vertex 25.8 7.41075225023207 16.3748883958227
vertex 25.8 7.41075225023207 20.5751116041773
endloop
endfacet
facet normal 1.0 -5.08382549692553e-016 -9.07044597569983e-016
outer loop
vertex 25.8 7.41075225023207 20.5751116041773
vertex 25.8 7.41075225023207 16.3748883958227
vertex 25.8 7.91298619460946 16.7602660556226
endloop
endfacet
facet normal 1.0 -5.08382549692553e-016 -9.07044597569983e-016
outer loop
vertex 25.8 7.41075225023207 20.5751116041773
vertex 25.8 7.91298619460946 16.7602660556226
vertex 25.8 7.91298619460946 20.1897339443774
endloop
endfacet
facet normal 1.0 -5.08382549692553e-016 -9.07044597569983e-016
outer loop
vertex 25.8 7.91298619460946 20.1897339443774
vertex 25.8 7.91298619460946 16.7602660556226
vertex 25.8 8.29836385440934 17.2625
endloop
endfacet
facet normal 1.0 -5.08382549692553e-016 -9.07044597569983e-016
outer loop
vertex 25.8 7.91298619460946 20.1897339443774
vertex 25.8 8.29836385440934 17.2625
vertex 25.8 8.29836385440934 19.6875
endloop
endfacet
facet normal 1.0 -5.08382549692553e-016 -9.07044597569983e-016
outer loop
vertex 25.8 8.29836385440934 19.6875
vertex 25.8 8.29836385440934 17.2625
vertex 25.8 8.54062237898306 17.8473638156264
endloop
endfacet
facet normal 1.0 -5.08382549692553e-016 -9.07044597569983e-016
outer loop
vertex 25.8 8.29836385440934 19.6875
vertex 25.8 8.54062237898306 17.8473638156264
vertex 25.8 8.54062237898306 19.1026361843736
endloop
endfacet
facet normal 1.0 -5.08382549692553e-016 -9.07044597569983e-016
outer loop
vertex 25.8 8.54062237898306 19.1026361843736
vertex 25.8 8.54062237898306 17.8473638156264
vertex 25.8 8.62325225023207 18.475
endloop
endfacet
facet normal -1.0 1.79810694879203e-016 2.8448554048686e-016
outer loop
vertex 9.0 -2.7017477497679 20.9
vertex 8.99999999999999 1.29825225023199 13.05
vertex 8.99999999999999 -2.70174774976801 13.05
endloop
endfacet
facet normal -1.0 1.79810694879203e-016 2.8448554048686e-016
outer loop
vertex 8.99999999999999 1.29825225023199 13.05
vertex 9.0 -2.7017477497679 20.9
vertex 9.0 1.29825225023208 16.05
endloop
endfacet
facet normal -1.0 1.79810694879203e-016 2.8448554048686e-016
outer loop
vertex 9.0 1.29825225023208 16.05
vertex 9.0 -2.7017477497679 20.9
vertex 9.0 6.19825225023207 20.9
endloop
endfacet
facet normal -1.0 1.79810694879203e-016 2.8448554048686e-016
outer loop
vertex 9.0 1.29825225023208 16.05
vertex 9.0 6.19825225023207 20.9
vertex 9.0 6.19825225023207 16.05
endloop
endfacet
facet normal -1.0 1.79810694879203e-016 2.8448554048686e-016
outer loop
vertex 9.0 6.19825225023207 16.05
vertex 9.0 6.19825225023207 20.9
vertex 9.0 6.82588843460569 20.817370128751
endloop
endfacet
facet normal -1.0 1.79810694879203e-016 2.8448554048686e-016
outer loop
vertex 9.0 6.19825225023207 16.05
vertex 9.0 6.82588843460569 20.817370128751
vertex 9.0 6.82588843460569 16.132629871249
endloop
endfacet
facet normal -1.0 1.79810694879203e-016 2.8448554048686e-016
outer loop
vertex 9.0 6.82588843460569 16.132629871249
vertex 9.0 6.82588843460569 20.817370128751
vertex 9.0 7.41075225023206 20.5751116041773
endloop
endfacet
facet normal -1.0 1.79810694879203e-016 2.8448554048686e-016
outer loop
vertex 9.0 6.82588843460569 16.132629871249
vertex 9.0 7.41075225023206 20.5751116041773
vertex 9.0 7.41075225023206 16.3748883958227
endloop
endfacet
facet normal -1.0 1.79810694879203e-016 2.8448554048686e-016
outer loop
vertex 9.0 7.41075225023206 16.3748883958227
vertex 9.0 7.41075225023206 20.5751116041773
vertex 9.0 7.91298619460945 20.1897339443774
endloop
endfacet
facet normal -1.0 1.79810694879203e-016 2.8448554048686e-016
outer loop
vertex 9.0 7.41075225023206 16.3748883958227
vertex 9.0 7.91298619460945 20.1897339443774
vertex 9.0 7.91298619460945 16.7602660556226
endloop
endfacet
facet normal -1.0 1.79810694879203e-016 2.8448554048686e-016
outer loop
vertex 9.0 7.91298619460945 16.7602660556226
vertex 9.0 7.91298619460945 20.1897339443774
vertex 9.0 8.29836385440933 19.6875
endloop
endfacet
facet normal -1.0 1.79810694879203e-016 2.8448554048686e-016
outer loop
vertex 9.0 7.91298619460945 16.7602660556226
vertex 9.0 8.29836385440933 19.6875
vertex 9.0 8.29836385440933 17.2625
endloop
endfacet
facet normal -1.0 1.79810694879203e-016 2.8448554048686e-016
outer loop
vertex 9.0 8.29836385440933 17.2625
vertex 9.0 8.29836385440933 19.6875
vertex 9.0 8.54062237898305 19.1026361843736
endloop
endfacet
facet normal -1.0 1.79810694879203e-016 2.8448554048686e-016
outer loop
vertex 9.0 8.29836385440933 17.2625
vertex 9.0 8.54062237898305 19.1026361843736
vertex 9.0 8.54062237898305 17.8473638156264
endloop
endfacet
facet normal -1.0 1.79810694879203e-016 2.8448554048686e-016
outer loop
vertex 9.0 8.54062237898305 17.8473638156264
vertex 9.0 8.54062237898305 19.1026361843736
vertex 9.0 8.62325225023206 18.475
endloop
endfacet
facet normal 2.93746508598739e-016 -7.04991620636963e-016 1.0
outer loop
vertex 22.2 -2.701747749768 16.05
vertex 12.6 1.29825225023208 16.05
vertex 12.6 -2.70174774976801 16.05
endloop
endfacet
facet normal 2.93746508598739e-016 -7.04991620636963e-016 1.0
outer loop
vertex 12.6 1.29825225023208 16.05
vertex 22.2 -2.701747749768 16.05
vertex 22.2 1.29825225023206 16.05
endloop
endfacet
facet normal 5.96531371308204e-016 -1.0 1.57804248532562e-014
outer loop
vertex 25.8 -2.701747749768 13.05
vertex 22.2 -2.701747749768 16.05
vertex 8.99999999999999 -2.70174774976801 13.05
endloop
endfacet
facet normal 5.96531371308204e-016 -1.0 1.57804248532562e-014
outer loop
vertex 22.2 -2.701747749768 16.05
vertex 25.8 -2.701747749768 13.05
vertex 25.8 -2.70174774976789 20.9
endloop
endfacet
facet normal 5.96531371308204e-016 -1.0 1.57804248532562e-014
outer loop
vertex 22.2 -2.701747749768 16.05
vertex 25.8 -2.70174774976789 20.9
vertex 22.2 -2.70174774976789 20.9
endloop
endfacet
facet normal 5.96531371308204e-016 -1.0 1.57804248532562e-014
outer loop
vertex 8.99999999999999 -2.70174774976801 13.05
vertex 12.6 -2.70174774976801 16.05
vertex 9.0 -2.7017477497679 20.9
endloop
endfacet
facet normal 5.96531371308204e-016 -1.0 1.57804248532562e-014
outer loop
vertex 12.6 -2.70174774976801 16.05
vertex 8.99999999999999 -2.70174774976801 13.05
vertex 22.2 -2.701747749768 16.05
endloop
endfacet
facet normal 5.96531371308204e-016 -1.0 1.57804248532562e-014
outer loop
vertex 9.0 -2.7017477497679 20.9
vertex 12.6 -2.70174774976801 16.05
vertex 12.6 -2.7017477497679 20.9
endloop
endfacet
facet normal -7.83324022929969e-016 3.16850166578419e-016 1.0
outer loop
vertex 25.8 -2.70174774976789 20.9
vertex 22.2 6.19825225023203 20.9
vertex 22.2 -2.70174774976789 20.9
endloop
endfacet
facet normal -7.83324022929969e-016 3.16850166578419e-016 1.0
outer loop
vertex 22.2 6.19825225023203 20.9
vertex 25.8 -2.70174774976789 20.9
vertex 25.8 6.19825225023203 20.9
endloop
endfacet
facet normal -1.0 1.17404512832764e-016 2.37313065899003e-016
outer loop
vertex 22.2 -2.70174774976789 20.9
vertex 22.2 1.29825225023206 16.05
vertex 22.2 -2.701747749768 16.05
endloop
endfacet
facet normal -1.0 1.17404512832764e-016 2.37313065899003e-016
outer loop
vertex 22.2 1.29825225023206 16.05
vertex 22.2 -2.70174774976789 20.9
vertex 22.2 4.48351830585465 20.1897339443774
endloop
endfacet
facet normal -1.0 1.17404512832764e-016 2.37313065899003e-016
outer loop
vertex 22.2 4.48351830585465 20.1897339443774
vertex 22.2 -2.70174774976789 20.9
vertex 22.2 4.98575225023204 20.5751116041773
endloop
endfacet
facet normal -1.0 1.17404512832764e-016 2.37313065899003e-016
outer loop
vertex 22.2 4.98575225023204 20.5751116041773
vertex 22.2 -2.70174774976789 20.9
vertex 22.2 5.57061606585841 20.817370128751
endloop
endfacet
facet normal -1.0 1.17404512832764e-016 2.37313065899003e-016
outer loop
vertex 22.2 5.57061606585841 20.817370128751
vertex 22.2 -2.70174774976789 20.9
vertex 22.2 6.19825225023203 20.9
endloop
endfacet
facet normal -1.0 1.17404512832764e-016 2.37313065899003e-016
outer loop
vertex 22.2 1.29825225023206 16.05
vertex 22.2 4.48351830585465 20.1897339443774
vertex 22.2 4.09814064605477 19.6875
endloop
endfacet
facet normal -1.0 1.17404512832764e-016 2.37313065899003e-016
outer loop
vertex 22.2 1.29825225023206 16.05
vertex 22.2 4.09814064605477 19.6875
vertex 22.2 3.85588212148105 19.1026361843736
endloop
endfacet
facet normal -1.0 1.17404512832764e-016 2.37313065899003e-016
outer loop
vertex 22.2 1.29825225023206 16.05
vertex 22.2 3.85588212148105 19.1026361843736
vertex 22.2 3.77325225023202 18.475
endloop
endfacet
facet normal -1.0 1.17404512832764e-016 2.37313065899003e-016
outer loop
vertex 22.2 1.29825225023206 16.05
vertex 22.2 5.57061606585841 16.132629871249
vertex 22.2 6.19825225023203 16.05
endloop
endfacet
facet normal -1.0 1.17404512832764e-016 2.37313065899003e-016
outer loop
vertex 22.2 5.57061606585841 16.132629871249
vertex 22.2 1.29825225023206 16.05
vertex 22.2 4.98575225023204 16.3748883958227
endloop
endfacet
facet normal -1.0 1.17404512832764e-016 2.37313065899003e-016
outer loop
vertex 22.2 4.98575225023204 16.3748883958227
vertex 22.2 1.29825225023206 16.05
vertex 22.2 4.48351830585465 16.7602660556226
endloop
endfacet
facet normal -1.0 1.17404512832764e-016 2.37313065899003e-016
outer loop
vertex 22.2 4.48351830585465 16.7602660556226
vertex 22.2 1.29825225023206 16.05
vertex 22.2 4.09814064605477 17.2625
endloop
endfacet
facet normal -1.0 1.17404512832764e-016 2.37313065899003e-016
outer loop
vertex 22.2 4.09814064605477 17.2625
vertex 22.2 1.29825225023206 16.05
vertex 22.2 3.85588212148105 17.8473638156264
endloop
endfacet
facet normal -1.0 1.17404512832764e-016 2.37313065899003e-016
outer loop
vertex 22.2 3.85588212148105 17.8473638156264
vertex 22.2 1.29825225023206 16.05
vertex 22.2 3.77325225023202 18.475
endloop
endfacet
facet normal 7.83324022929973e-016 3.16850166578416e-016 1.0
outer loop
vertex 12.6 -2.7017477497679 20.9
vertex 9.0 6.19825225023207 20.9
vertex 9.0 -2.7017477497679 20.9
endloop
endfacet
facet normal 7.83324022929973e-016 3.16850166578416e-016 1.0
outer loop
vertex 9.0 6.19825225023207 20.9
vertex 12.6 -2.7017477497679 20.9
vertex 12.6 6.19825225023207 20.9
endloop
endfacet
facet normal 1.0 -7.964587533241e-016 -3.44268433373201e-018
outer loop
vertex 12.6 1.29825225023208 16.05
vertex 12.6 3.85588212148109 17.8473638156264
vertex 12.6 3.77325225023208 18.475
endloop
endfacet
facet normal 1.0 -7.964587533241e-016 -3.44268433373201e-018
outer loop
vertex 12.6 3.85588212148109 17.8473638156264
vertex 12.6 1.29825225023208 16.05
vertex 12.6 4.09814064605481 17.2625
endloop
endfacet
facet normal 1.0 -7.964587533241e-016 -3.44268433373201e-018
outer loop
vertex 12.6 4.09814064605481 17.2625
vertex 12.6 1.29825225023208 16.05
vertex 12.6 4.48351830585469 16.7602660556226
endloop
endfacet
facet normal 1.0 -7.964587533241e-016 -3.44268433373201e-018
outer loop
vertex 12.6 4.48351830585469 16.7602660556226
vertex 12.6 1.29825225023208 16.05
vertex 12.6 4.98575225023207 16.3748883958227
endloop
endfacet
facet normal 1.0 -7.964587533241e-016 -3.44268433373201e-018
outer loop
vertex 12.6 4.98575225023207 16.3748883958227
vertex 12.6 1.29825225023208 16.05
vertex 12.6 5.57061606585845 16.132629871249
endloop
endfacet
facet normal 1.0 -7.964587533241e-016 -3.44268433373201e-018
outer loop
vertex 12.6 5.57061606585845 16.132629871249
vertex 12.6 1.29825225023208 16.05
vertex 12.6 6.19825225023207 16.05
endloop
endfacet
facet normal 1.0 -7.964587533241e-016 -3.44268433373201e-018
outer loop
vertex 12.6 1.29825225023208 16.05
vertex 12.6 -2.7017477497679 20.9
vertex 12.6 -2.70174774976801 16.05
endloop
endfacet
facet normal 1.0 -7.964587533241e-016 -3.44268433373201e-018
outer loop
vertex 12.6 -2.7017477497679 20.9
vertex 12.6 1.29825225023208 16.05
vertex 12.6 4.48351830585469 20.1897339443774
endloop
endfacet
facet normal 1.0 -7.964587533241e-016 -3.44268433373201e-018
outer loop
vertex 12.6 -2.7017477497679 20.9
vertex 12.6 4.48351830585469 20.1897339443774
vertex 12.6 4.98575225023207 20.5751116041773
endloop
endfacet
facet normal 1.0 -7.964587533241e-016 -3.44268433373201e-018
outer loop
vertex 12.6 -2.7017477497679 20.9
vertex 12.6 4.98575225023207 20.5751116041773
vertex 12.6 5.57061606585845 20.817370128751
endloop
endfacet
facet normal 1.0 -7.964587533241e-016 -3.44268433373201e-018
outer loop
vertex 12.6 -2.7017477497679 20.9
vertex 12.6 5.57061606585845 20.817370128751
vertex 12.6 6.19825225023207 20.9
endloop
endfacet
facet normal 1.0 -7.964587533241e-016 -3.44268433373201e-018
outer loop
vertex 12.6 4.48351830585469 20.1897339443774
vertex 12.6 1.29825225023208 16.05
vertex 12.6 4.09814064605481 19.6875
endloop
endfacet
facet normal 1.0 -7.964587533241e-016 -3.44268433373201e-018
outer loop
vertex 12.6 4.09814064605481 19.6875
vertex 12.6 1.29825225023208 16.05
vertex 12.6 3.85588212148109 19.1026361843736
endloop
endfacet
facet normal 1.0 -7.964587533241e-016 -3.44268433373201e-018
outer loop
vertex 12.6 3.85588212148109 19.1026361843736
vertex 12.6 1.29825225023208 16.05
vertex 12.6 3.77325225023208 18.475
endloop
endfacet
endsolid rubber-band-holder
